<?xml version="1.0" encoding="utf-8"?>
<!-- Generator: Adobe Illustrator 16.0.0, SVG Export Plug-In . SVG Version: 6.00 Build 0)  -->
<!DOCTYPE svg PUBLIC "-//W3C//DTD SVG 1.1//EN" "http://www.w3.org/Graphics/SVG/1.1/DTD/svg11.dtd">
<svg version="1.1" id="Layer_1" xmlns="http://www.w3.org/2000/svg" xmlns:xlink="http://www.w3.org/1999/xlink" x="0px" y="0px"
	 width="261.333px" height="226px" viewBox="0 0 261.333 226" enable-background="new 0 0 261.333 226" xml:space="preserve">
<polygon fill="#70569B" points="124.619,93.898 124.619,93.898 124.619,93.898 "/>
<path fill="#FFFFFF" d="M121.288,120.755c0.694,0.287,1.416,0.587,2.162,0.926l3.166,1.442c0.696-0.294,1.377-0.595,2.026-0.919
	c0.179-0.09,1.866-0.895,2.858-1.367l0.375-8.6c-1.153,0.291-2.297,0.57-3.42,0.836c-1.033,0.244-2.021,0.472-2.961,0.689
	c-1.66,0.383-3.409,0.787-4.959,1.192l0.231,5.583C120.941,120.61,121.102,120.678,121.288,120.755z"/>
<path fill="#FFFFFF" d="M134.335,52.808l0.209-4.807h-16.666l0.247,5.951C123.042,53.366,128.448,53.018,134.335,52.808z"/>
<path fill="#FFFFFF" d="M139.875,76.667"/>
<circle fill="#FFFFFF" cx="126.211" cy="36.168" r="5.987"/>
<path fill="#70569B" d="M67.541,78.667l-0.046,0.854c14.342,0.084,40.522,0.196,46.715-0.062c7.312-0.298,10.553,8.836,10.584,8.928
	l1.416-0.49l1.42,0.49c0.031-0.092,3.274-9.238,10.584-8.928c6.392,0.267,34.068,0.139,48.051,0.054l-0.057-0.346l9.639-0.352
	v-2.367l-1.511,0.012c-0.476,0.003-47.616,0.351-55.997,0.001c-6.408-0.257-10.248,4.573-12.127,7.904
	c-1.876-3.328-5.713-8.15-12.127-7.904c-8.385,0.351-55.523,0.001-55.998-0.001l-1.512-0.012v1.992L67.541,78.667z"/>
<path fill="#70569B" d="M68.507,99.604c-1.335,4.666-3.373,9.744-6.268,14.073l-8.674,16.595c0,0,10.648,2.071,15.384-13.892
	C68.966,112.252,68.901,106.071,68.507,99.604z"/>
<path fill="#70569B" d="M66.623,89.837c-9.242,11.637-19.934,17.869-27.007,20.996l-9.948,7.456c0,0,3.995,3.081,10.354,3.576
	c6.311-0.315,11.695-2.215,16.09-5.673C59.025,111.291,64.507,101.001,66.623,89.837z"/>
<path fill="#70569B" d="M36.64,107.714c6.303-2.635,16.745-8.259,25.827-19.111c-0.746,0.195-1.494,0.38-2.245,0.547
	c-3.487,0.778-7.002,1.306-10.519,1.647c-3.518,0.344-7.038,0.5-10.556,0.507c-1.759,0.003-3.517-0.034-5.276-0.11
	c-0.88-0.038-1.76-0.086-2.643-0.148c-0.172-0.012-0.341-0.026-0.511-0.039l-18.576,5.117c1.372,2.082,8.016,11.254,18.954,11.957
	C32.921,108.2,34.771,108.061,36.64,107.714z"/>
<path fill="#70569B" d="M81.708,86.667c-3.882-1.966-6.912-5.02-7.55-10.075H21.913c0,0,2.029,5.39,9.672,8.464
	c0.02,0.001,0.039,0.003,0.058,0.004c0.827,0.058,1.659,0.104,2.491,0.14c1.666,0.072,3.336,0.107,5.006,0.104
	c3.339-0.006,6.676-0.155,9.982-0.479c3.307-0.32,6.585-0.816,9.79-1.531c0.802-0.179,1.599-0.37,2.388-0.582
	c0.794-0.2,1.572-0.439,2.353-0.669c0.773-0.249,1.549-0.492,2.306-0.774c0.768-0.26,1.506-0.577,2.257-0.869l3.798-1.476
	l0.358,4.113c0.02,0.462,0.084,1.074,0.129,1.622l0.183,1.696c0.143,1.13,0.311,2.258,0.523,3.37
	c0.429,2.221,1.021,4.393,1.908,6.36c0.46,0.97,0.968,1.908,1.599,2.727c0.628,0.822,1.365,1.526,2.205,2.114
	c0.847,0.574,1.801,1.058,2.89,1.382c1.086,0.351,2.281,0.522,3.567,0.692c-1.1,0.68-2.36,1.125-3.715,1.281
	c-1.349,0.156-2.799-0.001-4.146-0.506c-1.362-0.48-2.578-1.309-3.643-2.245c-0.923-0.815-1.716-1.736-2.409-2.709
	c0.19,2.976,0.311,5.899,0.384,8.609c0.555,1.349,3.4,5.269,4.624,6.226c3.781,2.961,9.018,3.374,13.618,0.797
	c0.044-2.003,0.366-3.646,0.569-4.67c0.506-2.563,1.438-4.378,3.175-6.241C88.406,100.139,82.846,94.406,81.708,86.667z"/>
<path fill="#70569B" d="M194.727,121.468c-0.239-0.348-3.022-4.445-6.042-10.619c-2.319-2.969-3.928-6.146-5.056-9.222
	c-0.367,7.142-0.354,13.692-0.309,17.184c5.205,13.312,15.534,11.461,15.534,11.461l-4.084-8.833L194.727,121.468z"/>
<path fill="#70569B" d="M185.626,89.837c2.287,12.064,8.506,23.112,11.164,27.437c4.105,2.773,8.99,4.311,14.609,4.591
	c6.358-0.495,10.354-3.576,10.354-3.576l-11.293-8.465C203.482,106.435,193.964,100.336,185.626,89.837z"/>
<path fill="#70569B" d="M220.876,91.055c-0.834,0.057-1.666,0.104-2.498,0.14c-1.76,0.076-3.518,0.113-5.276,0.11
	c-3.518-0.006-7.038-0.163-10.556-0.507c-3.517-0.341-7.031-0.869-10.519-1.647c-0.751-0.167-1.499-0.353-2.245-0.547
	c9.365,11.191,20.177,16.822,26.404,19.349c1.392,0.173,2.772,0.218,4.14,0.129c10.938-0.703,17.582-9.875,18.954-11.957
	L220.876,91.055z"/>
<path fill="#70569B" d="M177.264,76.592c-0.6,4.761-3.34,7.841-6.931,9.825c-0.287,2.28-1.191,4.938-2.25,7
	c-2.174,4.235-5.558,7.554-9.875,10.25c1.835,1.972,2.709,3.708,3.186,6.116c0.353,1.787,0.518,3.44,0.534,4.987
	c4.452,2.221,9.405,1.72,13.023-1.114c1.226-0.958,4.075-4.886,4.626-6.23c0.045-0.111,0.08-0.222,0.121-0.333
	c-0.053-2.374-0.02-4.726,0.063-6.977c-0.429,0.496-0.885,0.973-1.385,1.415c-1.064,0.936-2.28,1.764-3.643,2.245
	c-1.347,0.505-2.797,0.662-4.146,0.506c-1.354-0.156-2.615-0.601-3.715-1.281c0.304-0.04,0.602-0.081,0.896-0.123
	c-0.055-0.03-0.111-0.055-0.165-0.085c0.224,0.006,0.44,0.002,0.661,0.006c0.764-0.123,1.493-0.27,2.175-0.49
	c1.09-0.325,2.044-0.809,2.891-1.382c0.84-0.588,1.578-1.292,2.205-2.114c0.631-0.819,1.139-1.757,1.599-2.727
	c0.888-1.967,1.479-4.139,1.908-6.36c0.213-1.112,0.381-2.239,0.523-3.37l0.183-1.696c0.045-0.548,0.109-1.16,0.129-1.622
	l0.358-4.113l3.798,1.476c0.751,0.292,1.489,0.609,2.257,0.869c0.757,0.283,1.532,0.526,2.306,0.774
	c0.78,0.23,1.559,0.469,2.353,0.669c0.789,0.212,1.586,0.403,2.388,0.582c3.205,0.715,6.483,1.211,9.79,1.531
	c3.307,0.324,6.644,0.473,9.982,0.479c1.67,0.003,3.34-0.032,5.006-0.104c0.528-0.023,1.054-0.058,1.581-0.089
	c7.758-3.064,9.812-8.52,9.812-8.52H177.264z"/>
<path fill="#FFFFFF" d="M175.957,65.033c14.251-3.699,18.917-13.366,19.585-24.38c1.035-17.07-8.538-26.403-26.072-27.655
	c-6.49-0.462-16.549,5.72-19.036,11.533c-0.963,2.248-0.683,4.192,0.832,5.779c1.742,1.824,4.626,2.871,7.914,2.871
	c2.227,0,4.444-0.5,6.245-1.407c4.438-2.238,6.859-7.16,6.883-7.209l0.182-0.376l0.395-0.135c0.095-0.032,2.347-0.792,5.017-0.792
	c3.352,0,8.642,4.265,8.642,12.738c0,17.712-12.334,21.667-36.325,21c-40.758-1.131-56.745,6.348-61.041,22.917
	c-2.212,8.53,2.046,15.378,13.015,20.92c3.186-1.961,7.236-3.664,12.527-5.258c-4.578-1.103-7.951-3.846-9.01-5.08
	c-1.919-2.239-3.842-5.573-1.654-10.681c2.654-6.2,11.211-9.728,25.435-10.484c3.675-0.195,7.616-0.327,11.79-0.467
	C154.676,68.419,164.861,67.914,175.957,65.033z"/>
<path fill="#FFFFFF" d="M126.212,84.365c0,0-2.837-5.532-7.754-7.198l1.127,14.906l6.992,1.532c1.482-0.329,2.955-0.649,4.388-0.958
	c0.581-0.125,1.179-0.254,1.782-0.386L134.375,77C131.045,77.882,127.229,81.779,126.212,84.365z"/>
<path fill="#FFFFFF" d="M127.421,108.693c12.344-2.917,29.416-7.894,35.142-17.391c2.072-3.438,2.548-7.162,1.453-11.385
	c-0.14-0.539-0.274-0.758-0.479-1.088c-0.082-0.133-1.314-1.984-1.412-2.163c-4.667-0.042-8.937-0.083-12.334-0.083
	c-1.679,0-4.915-0.075-6.583-0.083c2.129,1.445,6.097,5.243,6.553,7.147c0.632,2.632-0.612,4.647-3.219,7.687
	c-1.535,1.792-6.186,3.892-14.629,5.712c-12.926,2.786-30.63,6.603-32.621,15.182c-1.818,7.833,0.889,13.154,9.046,17.7
	c3.499-2.358,7.345-3.869,10.911-5.146c-3.375-1.4-6.264-2.729-7.485-7.622c-0.272-1.089-0.146-2.07,0.373-2.918
	c1.437-2.345,5.542-3.293,12.345-4.863C125.416,109.162,126.396,108.936,127.421,108.693z"/>
<path fill="#FFFFFF" d="M56.375,40.167C56.431,52.875,62.862,59.946,68.208,63c4.667,2.667,14.57,4.59,19.097,4.954
	c2.841-5.085,6.874-8.489,13.212-10.981c-20.309,0.694-34.642-3.402-34.642-21.306c0-8.844,5.591-12.831,8.659-12.831
	c3.025,0,5.744,1.201,5.857,1.252l0.332,0.148l0.16,0.328c0.023,0.049,2.465,4.981,6.883,7.21c1.801,0.907,4.02,1.407,6.246,1.407
	c3.287,0,6.172-1.047,7.914-2.871c1.514-1.587,1.794-3.531,0.832-5.779c-2.403-5.616-12.516-11.533-19.037-11.533
	c-0.229,0,0.222-0.016,0,0C77.246,13.461,56.263,14.371,56.375,40.167z"/>
<path fill="#70569B" d="M209.705,117.797v73.742h-72.312l-0.188,0.012c-2.562,0.324-6.46,1.046-9.231,3.609
	c1.531-7.834,8.656-11.421,9.721-11.665l0.301-0.063c4.505-1.445,41.072,1.391,64.551,3.649l1.644,0.158V116.02
	c-1.08-0.394-2.089-0.786-3-1.155v69.072c-10.743-1.014-57.413-5.279-63.997-3.398c-1.623,0.319-6.361,2.756-9.521,7.549
	c0.035-10.39,0.529-11.819,7.388-15.613c4.467-2.471,12.485-0.367,12.567-0.344l48.046,7.488v-53.079l-3-2.789v52.365l-44.317-6.896
	c-1.05-0.286-9.509-1.961-14.771,1.196c-1.938,1.162-5.772,3.982-7.718,10.736c-2.263-6.476-6.698-10.918-11.104-12.386
	c-5.582-1.861-14.009,0.015-14.293,0.083L59.4,176.082v-50.627l-3,2.314v51.887l44.66-7.866c0.08-0.019,7.957-1.775,12.752-0.177
	c3.948,1.316,12.264,1.545,10.796,17.054c-1.789-2.767-4.622-5.511-9.046-7.865c-0.178-0.095-0.312-0.163-0.387-0.21
	c-5.511-3.511-51.317,1.732-64.291,3.301v-72.839l-3,0.877v75.353l1.684-0.208c28.519-3.514,60.637-6.095,63.995-3.955
	c0.111,0.071,0.312,0.181,0.59,0.329c5.65,3.006,8.979,6.938,9.947,11.709c-2.771-2.562-6.67-3.285-9.23-3.609l-72.503-0.012
	v-77.995l-3,0.877v80.118h75.208c1.035,0.158,9.831-0.22,9.831,9.098h0.262h2.738h0.262c0-9.328,8.813-8.943,9.83-9.098h75.207
	v-76.016C211.712,118.318,210.706,118.072,209.705,117.797z M125.995,191.266c-0.114-0.267-0.233-0.533-0.365-0.801h0.713
	C126.222,190.726,126.105,190.993,125.995,191.266z"/>
<path fill="#FFFFFF" d="M130.472,144.157l-3.791-1.758c-1.357,0.564-2.687,1.146-3.961,1.758c-0.312,0.149-0.631,0.311-0.95,0.484
	l2.356,59.691h3.868l2.491-60.169C130.48,144.161,130.476,144.159,130.472,144.157z"/>
<path fill="#FFFFFF" d="M153.9,112.228c-0.42-1.812-1.554-3.467-3.461-5.048c-3.709,1.643-7.959,3.148-12.903,4.57
	c2.434,0.964,4.612,2.524,3.893,5.409c-1.261,5.046-4.293,6.3-7.803,7.752c-0.956,0.396-1.944,0.805-2.971,1.317
	c-2.455,1.228-5.205,2.196-7.865,3.133c-9.148,3.221-18.606,6.552-20.592,21.19c-2.201,16.24,18.214,25.498,23.676,27.67v-3.947
	c-9.673-5.102-15.598-12.835-15.506-20.291c0.07-5.771,3.768-10.702,10.408-13.884c3.537-1.695,7.381-3.155,11.098-4.566
	C145.404,130.396,157.089,125.96,153.9,112.228z"/>
<path fill="#FFFFFF" d="M150.992,150.552c-0.832-6.142-3.045-10.781-6.758-14.16c-3.503,1.662-7.313,3.108-10.408,4.283
	l-0.161,0.062c5.853,3.184,9.092,7.848,9.158,13.247c0.092,7.456-5.833,15.189-15.506,20.291v3.946
	C132.779,176.046,153.192,166.777,150.992,150.552z"/>
</svg>
