<?xml version="1.0" encoding="utf-8"?>
<!-- Generator: Adobe Illustrator 16.0.0, SVG Export Plug-In . SVG Version: 6.00 Build 0)  -->
<!DOCTYPE svg PUBLIC "-//W3C//DTD SVG 1.1//EN" "http://www.w3.org/Graphics/SVG/1.1/DTD/svg11.dtd">
<svg version="1.1" id="Layer_1" xmlns="http://www.w3.org/2000/svg" xmlns:xlink="http://www.w3.org/1999/xlink" x="0px" y="0px"
	 width="293px" height="282px" viewBox="21.5 11.5 293 282" enable-background="new 21.5 11.5 293 282" xml:space="preserve">
<g>
	<path fill="#5B3D97" d="M145.644,117.49l25.317-3.617c0,0,5.877,20,24.866,20c18.987,0,27.804-7.457,26.784-18.984
		c-0.244-2.779-7.006-9.033-11.528-10.852c-18.871-7.566-55.872-12.779-59.56-30.4c-3.805-18.18,4.256-38.329,38.586-44.194
		c-8.729-3.979-18.424-6.212-28.644-6.212c-38.2,0-69.168,30.965-69.168,69.167s30.968,69.168,69.168,69.168
		c12.856,0,24.886-3.521,35.197-9.627C171.725,151.518,150.592,142.225,145.644,117.49z"/>
	<path fill="#5B3D97" d="M197.635,76.35c16.537,4.77,27.682,5.316,32.848,11.66c-0.902-14.428-6.229-27.646-14.64-38.336
		c-3.702-2.708-12.188-7.101-24.989-3.163C173.223,51.938,174.128,69.568,197.635,76.35z"/>
</g>
<g>
	<g>
		<path fill="#5B3D97" d="M55.989,199.954c-1.491-5.302-3.646-11.019-10.852-11.019c-6.379,0-9.194,4.642-9.194,9.115
			c0,6.047,3.975,8.861,10.519,12.26c6.463,3.312,14.33,7.205,14.33,16.484c0,8.699-7.37,15.655-18.39,15.655
			c-3.395,0-6.046-0.66-8.118-1.241c-2.069-0.748-3.313-1.329-4.059-1.74c-0.661-1.742-1.739-8.861-2.235-12.842l2.401-0.575
			c1.326,5.05,5.054,13.417,13.586,13.417c6.212,0,9.938-3.894,9.938-9.943c0-6.129-4.555-9.025-10.767-12.34
			c-5.303-2.816-13.668-6.957-13.668-16.318c0-7.953,6.378-14.745,17.065-14.745c3.811,0,7.286,0.911,10.435,1.905
			c0.333,2.979,0.748,6.212,1.41,11.431L55.989,199.954z"/>
		<path fill="#5B3D97" d="M98.73,233.755c-3.646,4.806-9.197,8.445-14.084,8.445c-10.437,0-16.565-8.445-16.565-17.31
			c0-6.379,2.731-11.93,8.282-16.235c4.309-3.314,9.279-4.64,12.508-4.64c3.314,0,6.048,1.075,7.375,2.152
			c1.075,0.912,1.323,1.657,1.323,2.566c0,1.738-1.823,3.562-2.732,3.562c-0.416,0-0.828-0.247-1.575-0.911
			c-2.484-2.316-5.384-3.396-8.283-3.396c-5.466,0-10.273,4.557-10.273,13.253c0,11.515,7.871,15.324,12.509,15.324
			c3.563,0,6.298-0.991,10.107-4.553L98.73,233.755z"/>
		<path fill="#5B3D97" d="M124.488,241.21v-2.155c4.805-0.494,5.469-0.992,5.469-6.378v-13.751c0-6.793-2.569-10.189-8.119-10.189
			c-3.147,0-6.296,1.576-8.616,4.227v19.715c0,5.303,0.417,5.883,5.304,6.377v2.156h-17.562v-2.156
			c4.971-0.41,5.717-0.912,5.717-6.377v-39.514c0-5.219-0.167-5.634-5.637-6.13v-1.908c3.979-0.577,8.947-1.903,12.179-2.896v27.832
			c2.899-2.979,7.373-6.045,11.849-6.045c6.706,0,11.433,4.224,11.433,14.164v14.496c0,5.465,0.576,5.967,5.466,6.377v2.156
			L124.488,241.21L124.488,241.21z"/>
		<path fill="#5B3D97" d="M185.039,239.223c-3.812,0.579-8.034,1.74-12.176,2.979l-0.5-0.494v-5.881
			c-1.905,1.406-3.809,2.896-6.128,4.307c-2.402,1.41-4.143,2.068-6.379,2.068c-5.552,0-10.27-3.396-10.27-12.342v-16.234
			c0-4.557-0.336-4.889-5.055-5.798v-1.906c3.895-0.249,7.869-0.745,11.844-1.491c-0.248,2.567-0.248,6.461-0.248,12.094v11.101
			c0,7.374,3.562,9.358,7.292,9.358c2.98,0,6.13-1.234,8.942-3.977v-19.3c0-4.72-0.493-5.05-6.458-5.879v-1.906
			c4.308-0.249,8.615-0.579,13.007-1.491v27.67c0,4.141,0.658,4.719,3.809,4.883l2.319,0.166L185.039,239.223L185.039,239.223z"/>
		<path fill="#5B3D97" d="M187.766,241.21v-2.155c5.221-0.494,5.967-0.992,5.967-6.459V193.41c0-5.633-0.494-5.881-5.719-6.294
			v-1.991c4.309-0.496,9.446-1.904,12.266-2.896v50.367c0,5.467,0.658,5.965,5.963,6.459v2.155H187.766z"/>
		<path fill="#5B3D97" d="M210.131,241.21v-2.155c5.219-0.494,5.801-0.992,5.801-6.629v-17.062c0-5.136-0.252-5.468-5.22-6.296
			v-1.987c4.226-0.665,8.115-1.74,11.761-3.231v28.576c0,5.637,0.582,6.135,5.879,6.629v2.155H210.131z M214.52,192.582
			c0-2.482,1.99-4.307,4.228-4.307c2.319,0,4.14,1.822,4.14,4.307c0,2.236-1.82,4.227-4.225,4.227
			C216.51,196.809,214.52,194.818,214.52,192.582z"/>
		<path fill="#5B3D97" d="M263.475,233.755c-3.641,4.806-9.197,8.445-14.084,8.445c-10.437,0-16.565-8.445-16.565-17.31
			c0-6.379,2.733-11.93,8.284-16.235c4.307-3.314,9.281-4.64,12.506-4.64c3.314,0,6.046,1.075,7.375,2.152
			c1.076,0.912,1.326,1.657,1.326,2.566c0,1.738-1.822,3.562-2.733,3.562c-0.413,0-0.831-0.247-1.578-0.911
			c-2.479-2.316-5.382-3.396-8.28-3.396c-5.468,0-10.271,4.557-10.271,13.253c0,11.515,7.865,15.324,12.507,15.324
			c3.565,0,6.298-0.991,10.106-4.553L263.475,233.755z"/>
		<path fill="#5B3D97" d="M289.234,241.21v-2.155c4.811-0.494,5.468-0.992,5.468-6.378v-13.751c0-6.793-2.571-10.189-8.118-10.189
			c-3.145,0-6.294,1.576-8.613,4.227v19.715c0,5.303,0.409,5.883,5.299,6.377v2.156h-17.558v-2.156
			c4.968-0.41,5.715-0.912,5.715-6.377v-39.514c0-5.219-0.169-5.634-5.638-6.13v-1.908c3.979-0.577,8.949-1.903,12.182-2.896v27.832
			c2.896-2.979,7.372-6.045,11.844-6.045c6.713,0,11.433,4.224,11.433,14.164v14.496c0,5.465,0.579,5.967,5.467,6.377v2.156
			L289.234,241.21L289.234,241.21z"/>
	</g>
	<g>
		<path fill="#5B3D97" d="M30.086,277.885v-19.089h3.346l3.992,13.519l0.799,2.824c0.196-0.703,0.494-1.723,0.896-3.06l4.035-13.283
			h2.995v19.089h-2.142v-15.963l-4.905,15.963h-1.999l-4.876-16.238v16.238H30.086z"/>
		<path fill="#5B3D97" d="M49.773,277.885v-19.089h12.16v2.252h-9.936v5.835h9.306v2.253h-9.306v6.496h10.327v2.253H49.773z"/>
		<path fill="#5B3D97" d="M65.347,277.885v-19.089h5.809c1.436,0,2.527,0.117,3.273,0.353c0.98,0.305,1.828,0.858,2.548,1.668
			c0.718,0.806,1.277,1.824,1.678,3.055c0.401,1.229,0.602,2.684,0.602,4.368c0,2.159-0.34,3.993-1.021,5.5
			c-0.682,1.505-1.556,2.573-2.623,3.204c-1.069,0.628-2.466,0.941-4.191,0.941H65.347z M67.572,275.632h3.583
			c1.446,0,2.541-0.219,3.289-0.655c0.745-0.438,1.318-1.144,1.72-2.115c0.532-1.295,0.798-2.844,0.798-4.648
			c0-1.936-0.282-3.458-0.847-4.564c-0.565-1.105-1.29-1.848-2.176-2.221c-0.597-0.251-1.544-0.379-2.84-0.379h-3.527V275.632z"/>
		<path fill="#5B3D97" d="M82.782,277.885v-19.089h2.226v19.089H82.782z"/>
		<path fill="#5B3D97" d="M100.834,271.193l2.238,0.637c-0.494,2.145-1.36,3.745-2.595,4.801c-1.236,1.057-2.74,1.58-4.513,1.58
			c-1.559,0-2.89-0.354-3.994-1.062c-1.106-0.707-2.012-1.844-2.716-3.406c-0.706-1.564-1.058-3.407-1.058-5.537
			c0-2.104,0.352-3.881,1.058-5.338c0.706-1.452,1.66-2.553,2.866-3.297c1.202-0.742,2.548-1.113,4.032-1.113
			c1.626,0,3.022,0.473,4.188,1.412c1.166,0.938,1.984,2.316,2.45,4.137l-2.184,0.586c-0.744-2.648-2.246-3.973-4.498-3.973
			c-1.12,0-2.092,0.268-2.913,0.802c-0.823,0.535-1.479,1.365-1.971,2.494c-0.489,1.132-0.733,2.559-0.733,4.29
			c0,2.613,0.494,4.576,1.483,5.883c0.988,1.311,2.303,1.964,3.945,1.964c1.213,0,2.26-0.403,3.142-1.206
			C99.943,274.042,100.535,272.826,100.834,271.193z"/>
		<path fill="#5B3D97" d="M106.277,277.885v-19.089h2.226v19.089H106.277z"/>
		<path fill="#5B3D97" d="M112.321,277.885v-19.089h2.28l8.844,15.019v-15.019h2.128v19.089h-2.282l-8.827-15.02v15.02H112.321z"/>
		<path fill="#5B3D97" d="M129.392,277.885v-19.089h12.161v2.252h-9.936v5.835h9.306v2.253h-9.306v6.496h10.326v2.253H129.392z"/>
		<path fill="#5B3D97" d="M160.918,275.622c-1.36,1.718-2.965,2.577-4.813,2.577c-1.669,0-2.978-0.584-3.924-1.747
			c-0.947-1.162-1.422-2.447-1.422-3.853c0-2.354,1.339-4.252,4.01-5.692c-0.739-0.961-1.243-1.749-1.503-2.368
			c-0.263-0.622-0.394-1.225-0.394-1.814c0-1.205,0.409-2.215,1.226-3.031c0.815-0.813,1.797-1.221,2.944-1.221
			c1.102,0,2.03,0.385,2.787,1.151c0.753,0.769,1.132,1.74,1.132,2.921c0,1.812-1.062,3.361-3.186,4.646l3.027,4.358
			c0.328-0.749,0.593-1.635,0.803-2.661l2.141,0.521c-0.364,1.647-0.858,3.021-1.483,4.116c0.754,1.145,1.628,2.121,2.616,2.927
			l-1.387,1.876C162.663,277.711,161.805,276.807,160.918,275.622z M159.603,273.78l-3.765-5.332
			c-1.062,0.72-1.803,1.399-2.224,2.036c-0.42,0.641-0.63,1.295-0.63,1.971c0,0.869,0.29,1.7,0.865,2.488
			c0.578,0.789,1.333,1.185,2.262,1.185c0.596,0,1.225-0.212,1.885-0.636S159.193,274.5,159.603,273.78z M156.716,265.682
			c0.862-0.582,1.43-1.095,1.712-1.535c0.281-0.441,0.418-0.955,0.418-1.535c0-0.68-0.185-1.215-0.558-1.612
			c-0.373-0.399-0.82-0.601-1.342-0.601c-0.534,0-0.992,0.196-1.38,0.586c-0.386,0.389-0.581,0.896-0.581,1.521
			c0,0.599,0.271,1.25,0.815,1.963L156.716,265.682z"/>
		<path fill="#5B3D97" d="M173.709,277.885v-19.089h5.807c1.438,0,2.528,0.117,3.272,0.353c0.979,0.305,1.83,0.858,2.548,1.668
			c0.721,0.806,1.278,1.824,1.68,3.055c0.4,1.229,0.601,2.684,0.601,4.368c0,2.159-0.339,3.993-1.021,5.5
			c-0.681,1.505-1.557,2.573-2.623,3.204c-1.068,0.628-2.467,0.941-4.189,0.941H173.709z M175.934,275.632h3.582
			c1.445,0,2.543-0.219,3.287-0.655c0.747-0.438,1.321-1.144,1.723-2.115c0.529-1.295,0.798-2.844,0.798-4.648
			c0-1.936-0.283-3.458-0.847-4.564c-0.565-1.105-1.289-1.848-2.178-2.221c-0.596-0.251-1.543-0.379-2.839-0.379h-3.526V275.632z"/>
		<path fill="#5B3D97" d="M190.766,277.885v-19.089h12.161v2.252h-9.936v5.835h9.306v2.253h-9.306v6.496h10.325v2.253H190.766z"/>
		<path fill="#5B3D97" d="M206.326,277.885v-19.089h2.281l8.842,15.019v-15.019h2.128v19.089h-2.281l-8.829-15.02v15.02H206.326z"/>
		<path fill="#5B3D97" d="M227.664,277.885v-16.837h-5.541v-2.252h13.336v2.252h-5.57v16.837H227.664z"/>
		<path fill="#5B3D97" d="M238.13,277.885v-19.089h2.226v19.089H238.13z"/>
		<path fill="#5B3D97" d="M243.491,271.74l2.099-0.208c0.111,1.049,0.365,1.866,0.764,2.454c0.396,0.586,0.961,1.059,1.698,1.414
			c0.738,0.354,1.567,0.533,2.491,0.533c1.325,0,2.354-0.305,3.086-0.904c0.73-0.6,1.1-1.383,1.1-2.348
			c0-0.562-0.135-1.052-0.4-1.473c-0.266-0.422-0.666-0.766-1.202-1.033c-0.537-0.268-1.696-0.648-3.479-1.139
			c-1.586-0.438-2.713-0.879-3.385-1.323c-0.672-0.44-1.193-1.005-1.568-1.687c-0.371-0.683-0.559-1.451-0.559-2.311
			c0-1.546,0.536-2.809,1.609-3.789c1.07-0.982,2.518-1.473,4.337-1.473c1.249,0,2.343,0.23,3.28,0.691
			c0.938,0.459,1.664,1.117,2.185,1.979c0.519,0.859,0.795,1.872,0.832,3.035l-2.14,0.18c-0.113-1.238-0.514-2.158-1.198-2.759
			s-1.647-0.897-2.89-0.897c-1.26,0-2.221,0.262-2.883,0.786c-0.662,0.526-0.992,1.205-0.992,2.04c0,0.771,0.242,1.369,0.728,1.797
			c0.485,0.426,1.575,0.854,3.274,1.291c1.658,0.428,2.822,0.799,3.496,1.111c1.024,0.486,1.8,1.129,2.32,1.921
			c0.525,0.796,0.787,1.74,0.787,2.845c0,1.092-0.275,2.088-0.824,2.983c-0.553,0.899-1.301,1.582-2.246,2.048
			c-0.947,0.471-2.088,0.703-3.422,0.703c-2.08,0-3.74-0.581-4.975-1.744C244.178,275.304,243.537,273.729,243.491,271.74z"/>
		<path fill="#5B3D97" d="M264.229,277.885v-16.837h-5.543v-2.252h13.336v2.252h-5.568v16.837H264.229z"/>
		<path fill="#5B3D97" d="M274.261,277.885v-19.089h7.458c1.559,0,2.707,0.181,3.449,0.536c0.741,0.354,1.35,0.946,1.826,1.775
			c0.477,0.826,0.715,1.789,0.715,2.883c0,1.438-0.404,2.604-1.212,3.498c-0.808,0.894-1.979,1.465-3.521,1.705
			c0.625,0.35,1.102,0.703,1.428,1.062c0.662,0.729,1.246,1.539,1.75,2.436l2.938,5.193h-2.798l-2.244-3.967
			c-0.871-1.552-1.525-2.6-1.968-3.138c-0.44-0.541-0.871-0.903-1.284-1.091c-0.416-0.188-0.998-0.28-1.74-0.28h-2.572v8.476
			H274.261z M276.486,267.221h4.785c1.045,0,1.836-0.117,2.377-0.353c0.543-0.232,0.971-0.603,1.287-1.104
			c0.317-0.505,0.477-1.09,0.477-1.759c0-0.964-0.305-1.722-0.908-2.272c-0.605-0.551-1.508-0.826-2.701-0.826h-5.316V267.221
			L276.486,267.221z"/>
		<path fill="#5B3D97" d="M295.557,277.885V269.8l-6.479-11.004h2.72l3.304,5.763c0.652,1.137,1.226,2.217,1.719,3.233
			c0.498-1.001,1.109-2.127,1.841-3.375l3.267-5.621h2.572l-6.717,11.004v8.085H295.557z"/>
	</g>
</g>
</svg>
