<?xml version="1.0" encoding="utf-8"?>
<!-- Generator: Adobe Illustrator 16.0.0, SVG Export Plug-In . SVG Version: 6.00 Build 0)  -->
<!DOCTYPE svg PUBLIC "-//W3C//DTD SVG 1.1//EN" "http://www.w3.org/Graphics/SVG/1.1/DTD/svg11.dtd">
<svg version="1.1" id="Layer_1" xmlns="http://www.w3.org/2000/svg" xmlns:xlink="http://www.w3.org/1999/xlink" x="0px" y="0px"
	 width="183px" height="353px" viewBox="0 0 183 353" enable-background="new 0 0 183 353" xml:space="preserve">
<path fill="none" stroke="#5B3D97" stroke-width="9" stroke-linecap="round" stroke-linejoin="round" stroke-miterlimit="10" d="
	M89.5,99.75V79c0,0,18.5,0,26.25,0s18-6.25,16.75-16.5S120.25,48.75,108.75,52s-50.699,18.493-65.5,1.5C29.75,38,41,19.25,55,17.25
	c10.538-1.505,36-2.25,60.167,11.083"/>
<circle fill="#5B3D97" cx="131.792" cy="127.625" r="12.417"/>
<path fill="#5B3D97" d="M142.5,98.834H34.583c-9.35,0-17,7.65-17,17V170.5c0,9.35,7.65,17,17,17c0,0,13.917-0.25,18.292-8.125
	s10-19,10-19h52.25c0,0,5.375,11.75,9.75,19.125c3.504,5.907,11.652,7.8,17.073,8h0.552c9.35,0,17-7.65,17-17v-54.666
	C159.5,106.484,151.85,98.834,142.5,98.834z M45.793,146.667c-10.517,0-19.042-8.525-19.042-19.042
	c0-10.516,8.525-19.041,19.042-19.041c10.516,0,19.041,8.525,19.041,19.041C64.834,138.142,56.309,146.667,45.793,146.667z
	 M131.793,146.667c-10.518,0-19.042-8.525-19.042-19.042c0-10.516,8.524-19.041,19.042-19.041c10.516,0,19.041,8.525,19.041,19.041
	C150.834,138.142,142.309,146.667,131.793,146.667z"/>
<circle fill="#5B3D97" cx="45.792" cy="127.625" r="12.417"/>
<path opacity="0.5" fill="#5B3D97" enable-background="new    " d="M120.574,182.051c-3.149-5.309-6.725-12.649-8.633-16.676H65.938
	c-1.954,3.816-5.603,10.865-8.692,16.428c-2.831,5.096-8.11,7.762-12.869,9.16l7.498,23.475L68.25,167.75L78,207.312L88.375,167.5
	l10.5,39.812l10.375-40.188l16.125,47.312l7.74-23.377C128.598,189.707,123.568,187.1,120.574,182.051z"/>
<path fill="#F7941E" d="M31.344,242.734"/>
<line fill="none" x1="-8.625" y1="247.292" x2="-14" y2="247.292"/>
<path fill="#F7941E" d="M-8.625,233.083"/>
<polygon fill="#5B3D97" points="26,247.292 26,236.751 31.375,233.083 31.375,242.73 37.75,242.73 37.75,233.083 37.75,226.625 
	30.375,226.625 19.625,234.083 19.625,247.292 19.625,253.75 26,253.75 31.375,253.75 31.375,270 26,270 26,258.625 19.625,258.594 
	19.625,270 19.625,276.458 26,276.458 31.375,276.458 37.75,276.458 37.75,270 37.75,253.75 37.75,247.292 "/>
<path fill="#5B3D97" d="M74.5,226.583v0.042h-4.375v-0.042H63.75v49.875H67h3.125H74.5h3.333h3.042v-49.875H74.5z M70.125,270
	v-36.917H74.5V270H70.125z"/>
<polygon fill="#5B3D97" points="53.75,226.583 53.75,239.812 47.75,226.583 41.375,226.583 41.375,276.458 47.75,276.458 
	47.75,240.16 47.774,240.211 53.75,253.656 53.75,276.458 60.125,276.458 60.125,226.583 "/>
<polygon fill="#5B3D97" points="108.5,226.583 108.5,269.543 103.125,263.277 103.125,226.583 96.75,226.583 96.75,263.328 
	91.375,269.594 91.375,226.583 85,226.583 85,276.458 88.334,276.458 94.67,276.458 99.958,269.746 105.247,276.458 
	111.667,276.458 114.875,276.458 114.875,226.583 "/>
<path fill="#5B3D97" d="M148.167,226.578l-1.792,0.005H140v49.875h2.5h3.875h5.25h4.292H158v-42.792L148.167,226.578z
	 M146.375,270.589v-37.506l5.25,3.423v34.083H146.375z"/>
<polygon fill="#5B3D97" points="129.646,247.292 125.125,247.292 125.125,233.083 129.646,233.083 129.646,243.094 136.062,243.094 
	136.062,233.083 136.062,226.625 129.646,226.625 125.125,226.625 118.75,226.625 118.75,233.083 118.75,247.292 118.75,253.75 
	118.75,270 118.75,276.458 125.125,276.458 129.646,276.458 136.062,276.458 136.062,270 129.646,270 125.125,270 125.125,253.75 
	129.646,253.75 136.062,253.75 136.062,247.292 "/>
<path opacity="0.5" fill="#5B3D97" enable-background="new    " d="M19.625,284.834v26.832h138.166v-26.832H19.625z M79.235,307.333
	h-5.527V289.27h5.527V307.333z M104.084,307.333h-6.327l-5.698-6.968c-1.582-1.93-3.324-4.262-4.629-6.379l-0.119,0.025
	c0.156,2.387,0.236,4.932,0.236,7.881v5.438H82.01v-18.063h7.042l5.539,6.621c1.581,1.901,3.166,4.151,4.353,6.189h0.119
	c-0.396-2.387-0.516-4.824-0.516-7.53v-5.28h5.537V307.333z"/>
<path fill="#5B3D97" d="M33.849,324.2c-0.621-0.748-1.402-1.123-2.342-1.123c-0.271,0-0.534,0.044-0.789,0.131
	c-0.255,0.088-0.486,0.228-0.692,0.419c-0.208,0.191-0.371,0.438-0.49,0.74c-0.119,0.304-0.179,0.66-0.179,1.074
	c0,0.718,0.215,1.271,0.646,1.662c0.43,0.39,0.995,0.761,1.696,1.108c0.414,0.207,0.836,0.446,1.266,0.72
	c0.43,0.271,0.82,0.596,1.171,0.979c0.35,0.382,0.637,0.836,0.86,1.361c0.223,0.523,0.334,1.146,0.334,1.861
	c0,0.829-0.131,1.562-0.394,2.198c-0.263,0.64-0.613,1.175-1.051,1.612c-0.438,0.438-0.952,0.77-1.541,0.99
	c-0.59,0.226-1.21,0.336-1.864,0.336c-0.94,0-1.808-0.184-2.604-0.549c-0.797-0.367-1.434-0.83-1.912-1.388l1.553-2.103
	c0.366,0.444,0.808,0.797,1.326,1.052c0.518,0.254,1.047,0.382,1.589,0.382c0.605,0,1.107-0.206,1.505-0.621
	c0.398-0.414,0.597-0.995,0.597-1.744c0-0.732-0.238-1.314-0.716-1.744s-1.083-0.828-1.816-1.193
	c-0.462-0.225-0.896-0.471-1.303-0.74c-0.406-0.271-0.765-0.594-1.075-0.969c-0.311-0.373-0.558-0.812-0.741-1.312
	c-0.183-0.501-0.275-1.104-0.275-1.804c0-0.877,0.139-1.629,0.418-2.259c0.279-0.631,0.645-1.15,1.099-1.564
	c0.454-0.415,0.968-0.721,1.541-0.92c0.573-0.197,1.155-0.299,1.745-0.299c0.86,0,1.628,0.141,2.306,0.417
	c0.676,0.278,1.246,0.688,1.708,1.229L33.849,324.2z"/>
<path fill="#5B3D97" d="M49.165,323.364v14.479h-2.819v-14.479h-3.178v-2.438h9.174v2.438H49.165z"/>
<path fill="#5B3D97" d="M71.731,334.354c-0.197,0.781-0.521,1.463-0.963,2.043c-0.446,0.582-1.02,1.039-1.721,1.375
	c-0.699,0.334-1.554,0.502-2.559,0.502c-1.007,0-1.856-0.168-2.548-0.502c-0.694-0.336-1.258-0.793-1.693-1.375
	c-0.439-0.58-0.751-1.262-0.941-2.043c-0.189-0.778-0.285-1.614-0.285-2.508v-10.92h2.97v10.656c0,0.525,0.036,1.032,0.109,1.518
	c0.074,0.485,0.208,0.912,0.396,1.277c0.19,0.368,0.449,0.658,0.778,0.873c0.33,0.216,0.752,0.322,1.263,0.322
	c0.51,0,0.932-0.106,1.261-0.322c0.33-0.215,0.589-0.505,0.779-0.873c0.188-0.365,0.322-0.792,0.396-1.277
	c0.074-0.483,0.11-0.992,0.11-1.518v-10.656h2.945v10.92C72.029,332.738,71.931,333.574,71.731,334.354z"/>
<path fill="#5B3D97" d="M81.996,320.927h5.182c0.949,0,1.906,0.144,2.87,0.431c0.962,0.287,1.829,0.763,2.601,1.422
	c0.772,0.662,1.396,1.529,1.879,2.604c0.48,1.075,0.725,2.409,0.725,4.003c0,1.481-0.242,2.756-0.725,3.822
	c-0.481,1.066-1.105,1.943-1.879,2.628c-0.771,0.687-1.639,1.19-2.601,1.519c-0.964,0.326-1.921,0.49-2.87,0.49h-5.182V320.927z
	 M86.766,335.216c0.674,0,1.35-0.092,2.023-0.274c0.673-0.184,1.281-0.492,1.826-0.933c0.545-0.438,0.988-1.03,1.332-1.78
	c0.342-0.748,0.515-1.695,0.515-2.842c0-1.212-0.173-2.199-0.515-2.965c-0.344-0.765-0.787-1.361-1.332-1.792
	c-0.545-0.43-1.153-0.724-1.826-0.883c-0.676-0.159-1.352-0.239-2.023-0.239h-2.168v11.708H86.766L86.766,335.216z"/>
<path fill="#5B3D97" d="M104.255,337.844v-16.917h2.865v16.917H104.255z"/>
<path fill="#5B3D97" d="M116.038,329.338c0-1.354,0.224-2.576,0.67-3.668c0.444-1.091,1.062-2.02,1.851-2.783
	c0.789-0.766,1.728-1.354,2.812-1.769c1.085-0.414,2.27-0.621,3.551-0.621c1.297,0,2.491,0.207,3.586,0.621
	c1.094,0.415,2.038,1.003,2.836,1.769c0.799,0.764,1.42,1.692,1.864,2.783c0.444,1.092,0.667,2.312,0.667,3.668
	c0,1.322-0.223,2.528-0.667,3.619c-0.444,1.092-1.065,2.031-1.864,2.818c-0.798,0.789-1.742,1.401-2.836,1.841
	c-1.095,0.438-2.289,0.657-3.586,0.657c-1.281,0-2.466-0.222-3.551-0.657c-1.087-0.438-2.023-1.052-2.812-1.841
	c-0.789-0.787-1.404-1.729-1.851-2.818S116.038,330.66,116.038,329.338z M119.25,329.338c0,0.907,0.137,1.739,0.411,2.496
	c0.272,0.757,0.662,1.414,1.171,1.973c0.509,0.558,1.107,0.99,1.807,1.301c0.691,0.312,1.463,0.468,2.307,0.468
	c0.846,0,1.617-0.155,2.32-0.468c0.702-0.311,1.312-0.742,1.815-1.301c0.509-0.559,0.899-1.216,1.174-1.973
	c0.272-0.757,0.411-1.589,0.411-2.496c0-0.876-0.139-1.688-0.411-2.438s-0.659-1.402-1.162-1.961
	c-0.499-0.558-1.101-0.994-1.803-1.312c-0.705-0.318-1.485-0.479-2.347-0.479c-0.857,0-1.637,0.158-2.332,0.479
	c-0.695,0.318-1.293,0.757-1.791,1.312c-0.502,0.559-0.887,1.211-1.159,1.961C119.387,327.648,119.25,328.462,119.25,329.338z"/>
<path fill="#5B3D97" d="M149.654,324.2c-0.619-0.748-1.399-1.123-2.34-1.123c-0.271,0-0.535,0.044-0.789,0.131
	c-0.254,0.088-0.484,0.228-0.691,0.419s-0.371,0.438-0.49,0.74c-0.121,0.304-0.181,0.66-0.181,1.074
	c0,0.718,0.217,1.271,0.647,1.662c0.428,0.39,0.994,0.761,1.693,1.108c0.414,0.207,0.837,0.446,1.268,0.72
	c0.43,0.271,0.818,0.596,1.172,0.979c0.35,0.382,0.638,0.836,0.856,1.361c0.226,0.523,0.337,1.146,0.337,1.861
	c0,0.829-0.132,1.562-0.396,2.198c-0.264,0.64-0.613,1.175-1.053,1.612c-0.438,0.438-0.949,0.77-1.541,0.99
	c-0.59,0.226-1.211,0.336-1.86,0.336c-0.94,0-1.812-0.184-2.604-0.549c-0.798-0.367-1.434-0.83-1.91-1.388l1.554-2.103
	c0.366,0.444,0.809,0.797,1.323,1.052c0.52,0.254,1.05,0.382,1.59,0.382c0.604,0,1.107-0.206,1.506-0.621
	c0.398-0.414,0.599-0.995,0.599-1.744c0-0.732-0.239-1.314-0.718-1.744s-1.082-0.828-1.814-1.193
	c-0.463-0.225-0.896-0.471-1.304-0.74c-0.405-0.271-0.764-0.594-1.075-0.969c-0.312-0.373-0.559-0.812-0.74-1.312
	c-0.185-0.502-0.272-1.104-0.272-1.804c0-0.877,0.142-1.629,0.418-2.259c0.278-0.631,0.646-1.15,1.101-1.564
	c0.453-0.415,0.967-0.721,1.541-0.92c0.571-0.197,1.154-0.299,1.742-0.299c0.86,0,1.629,0.141,2.309,0.417
	c0.678,0.278,1.246,0.688,1.707,1.229L149.654,324.2z"/>
</svg>
