<?xml version="1.0" encoding="utf-8"?>
<!-- Generator: Adobe Illustrator 16.0.0, SVG Export Plug-In . SVG Version: 6.00 Build 0)  -->
<!DOCTYPE svg PUBLIC "-//W3C//DTD SVG 1.1//EN" "http://www.w3.org/Graphics/SVG/1.1/DTD/svg11.dtd">
<svg version="1.1" id="Layer_1" xmlns="http://www.w3.org/2000/svg" xmlns:xlink="http://www.w3.org/1999/xlink" x="0px" y="0px"
	 width="344.688px" height="281px" viewBox="0 0 344.688 281" enable-background="new 0 0 344.688 281" xml:space="preserve">
<g>
	<path fill="none" stroke="#5C4782" stroke-width="6.9238" stroke-miterlimit="10" d="M118.413,135.171
		c0,0-38.948-1.299-39.38-42.409c0,0-14.282-18.607,9.52-49.331c23.801-30.725,47.601-23.801,47.601-23.801
		s20.339-21.638,66.642-6.491c0,0,17.742-7.356,33.753,7.789c0,0,14.28-5.625,40.244,10.387
		c25.964,16.01,18.175,38.945,18.175,38.945s22.501,21.635,6.49,51.496c0,0,4.761,15.577-6.058,22.5
		c-10.819,6.926-15.146,4.327-32.022,0.866s-73.997,27.263-86.979,26.396C163.416,170.652,125.336,181.473,118.413,135.171z"/>
	<g>
		<path fill="#5C4782" d="M176.661,172.177c-1.068,0.798-0.463,0.984-0.437,1.378c0.123,0.354,0.271,0.729,0.416,1.098
			c0.277,0.742,0.576,1.481,0.896,2.221c0.603,1.482,1.303,2.938,1.965,4.402c0.731,1.438,1.405,2.901,2.188,4.315
			c0.785,1.41,1.5,2.859,2.354,4.229c0.851,1.375,1.616,2.8,2.529,4.136c0.896,1.346,1.745,2.719,2.676,4.041l2.83,3.937
			c0.979,1.286,2.013,2.526,3.017,3.793c0.982,1.28,2.066,2.479,3.143,3.684l1.604,1.812c0.528,0.609,1.071,1.206,1.65,1.771
			l3.396,3.44c0.553,0.586,1.147,1.131,1.75,1.666l1.795,1.618l1.805,1.606l0.902,0.801l0.948,0.748l3.79,2.988
			c1.234,1.031,2.592,1.902,3.908,2.824l3.979,2.713h0.002l-2.279-0.572c-0.076,0.008-0.168,0.023-0.229,0.041l-0.039,0.015
			c-0.021,0.009-0.062,0.034-0.062,0.036c-0.004,0.007-0.008,0.023,0.004,0.039c0.031-0.016,0.081,0.023,0.146-0.021
			c0.033-0.012,0.066-0.022,0.105-0.033l0.113-0.09c0.084-0.047,0.177-0.108,0.259-0.227c0.387-0.336,0.681-1.059,0.972-1.787
			l0.307-1.248l0.174-1.369c0.085-0.447,0.051-0.953,0.066-1.431c-0.007-0.487,0.047-0.962-0.009-1.466
			c-0.094-1-0.071-1.992-0.267-3.006c-0.174-1.014-0.256-2.021-0.5-3.039c-0.213-1.018-0.426-2.028-0.678-3.039l-0.84-3.027
			c-0.26-1.002-0.623-2.041-0.938-3.062l-0.978-3.073c-0.686-2.041-1.345-4.088-2.062-6.117c-0.701-2.033-1.437-4.06-2.187-6.078
			c-0.771-2.014-1.531-4.028-2.388-6.016l6.615-2.045c0.415,2.122,0.923,4.217,1.423,6.312c0.521,2.091,1.059,4.175,1.626,6.25
			c0.556,2.08,1.165,4.144,1.75,6.214l1.858,6.202l0.931,3.177l0.808,3.239c0.303,1.065,0.455,2.201,0.688,3.302
			c0.239,1.097,0.342,2.263,0.513,3.396c0.1,0.562,0.094,1.171,0.139,1.757c0.016,0.596,0.104,1.168,0.064,1.791l-0.057,1.85
			l-0.262,1.93c-0.17,0.67-0.307,1.334-0.555,2.02c-0.279,0.689-0.554,1.379-1.021,2.078c-0.194,0.348-0.459,0.688-0.758,1.02
			c-0.146,0.166-0.289,0.332-0.441,0.492l-0.532,0.459c-0.339,0.312-0.786,0.576-1.219,0.828c-0.237,0.121-0.493,0.23-0.745,0.334
			c-0.125,0.053-0.299,0.104-0.449,0.146l-0.232,0.062c-0.127,0.029-0.285,0.059-0.429,0.076l-1.071,0.146l-1.209-0.721l0,0
			l-4.043-3.08c-1.348-1.025-2.73-1.998-3.988-3.133l-3.854-3.295l-0.964-0.824l-0.914-0.877l-1.822-1.758
			c-1.203-1.187-2.49-2.283-3.625-3.533l-3.469-3.685c-0.589-0.604-1.142-1.239-1.679-1.892l-1.632-1.932
			c-1.092-1.285-2.188-2.562-3.188-3.922c-1.014-1.346-2.06-2.664-3.045-4.029l-2.895-4.137c-0.949-1.391-1.821-2.83-2.734-4.242
			c-0.932-1.402-1.717-2.896-2.582-4.338c-0.869-1.441-1.623-2.951-2.432-4.428c-0.807-1.479-1.508-3.018-2.266-4.521
			c-0.69-1.543-1.418-3.062-2.05-4.641c-0.332-0.779-0.648-1.568-0.947-2.371c-0.152-0.398-0.307-0.791-0.453-1.219
			c-0.247-0.385,0.074-0.975-1.246-0.961L176.661,172.177z"/>
	</g>
	<g>
		<path fill="#5C4782" d="M200.861,165.589c0,0,0.027,0.08,0.08,0.234c0.05,0.141,0.145,0.407,0.279,0.741
			c0.271,0.672,0.697,1.688,1.36,2.935c0.66,1.246,1.537,2.733,2.688,4.342c1.151,1.601,2.563,3.338,4.334,4.988
			c3.498,3.321,8.396,6.383,14.322,7.771c2.955,0.686,6.123,1.014,9.369,0.896c3.247-0.104,6.559-0.578,9.834-1.302l2.443-0.642
			c0.404-0.108,0.814-0.204,1.219-0.325l1.201-0.401c0.771-0.257,1.537-0.513,2.304-0.767c0.788-0.328,1.66-0.646,2.372-0.979
			c1.33-0.64,2.736-1.373,4.004-2.254l0.952-0.648l0.897-0.707c0.615-0.448,1.149-0.985,1.715-1.479
			c2.197-2.039,3.963-4.4,5.354-6.812c1.404-2.408,2.435-4.878,3.209-7.218c1.572-4.69,2.062-8.873,2.288-11.746
			c0.207-2.89,0.069-4.515,0.081-4.399l6.921-0.196c0.008,0.108-0.006,2.014-0.396,5.252c-0.197,1.619-0.506,3.571-1.002,5.783
			c-0.504,2.209-1.174,4.686-2.133,7.323c-0.961,2.636-2.226,5.437-3.947,8.205c-1.73,2.754-3.842,5.536-6.5,7.969
			c-0.684,0.589-1.336,1.218-2.077,1.757l-1.093,0.836l-1.149,0.771c-1.535,1.037-3.183,1.896-4.985,2.724
			c-0.863,0.385-1.631,0.649-2.455,0.983c-0.89,0.291-1.781,0.582-2.676,0.873c-1.714,0.592-3.508,1.01-5.271,1.502
			c-3.581,0.824-7.255,1.389-10.929,1.535c-3.674,0.16-7.348-0.176-10.818-0.951c-3.477-0.77-6.756-1.977-9.654-3.521
			c-2.904-1.539-5.438-3.381-7.562-5.285c-4.271-3.819-6.998-7.76-8.674-10.625c-0.84-1.44-1.438-2.616-1.828-3.454
			c-0.196-0.42-0.334-0.74-0.44-0.996c-0.099-0.244-0.147-0.369-0.147-0.369L200.861,165.589z"/>
	</g>
	<path fill="none" stroke="#5C4782" stroke-width="3.0292" stroke-miterlimit="10" d="M203.443,178.011
		c0,0,38.947,19.259,67.938-12.549"/>
	<path fill="none" stroke="#5C4782" stroke-width="3.0292" stroke-miterlimit="10" d="M201.279,169.139
		c0,0,22.505,3.246,66.426-22.068"/>
	<path fill="none" stroke="#5C4782" stroke-width="3.0292" stroke-miterlimit="10" d="M272.25,152.048
		c0,0-26.613,26.396-69.455,21.205"/>
	<path fill="none" stroke="#5C4782" stroke-width="3.0292" stroke-miterlimit="10" d="M271.385,161.134
		c0,0-22.504,24.668-67.074,16.015"/>
	<g>
		<path fill="#5C4782" d="M116.931,135.614c0.225-1.183,0.533-2.02,0.912-2.908c0.177-0.442,0.385-0.858,0.598-1.27
			c0.202-0.421,0.432-0.818,0.671-1.207c0.451-0.804,0.996-1.52,1.511-2.263c0.575-0.681,1.1-1.422,1.724-2.047
			c0.605-0.647,1.208-1.3,1.869-1.874c0.641-0.604,1.293-1.188,1.986-1.711c0.68-0.545,1.357-1.092,2.08-1.562
			c0.719-0.473,1.406-1.011,2.153-1.428l2.211-1.309l2.271-1.164c0.752-0.403,1.525-0.748,2.303-1.075l2.406-1.037l2.291-0.828
			c0.764-0.276,1.511-0.562,2.356-0.792c1.642-0.482,3.296-1.005,4.913-1.357l2.438-0.584l2.45-0.48
			c1.631-0.346,3.272-0.576,4.91-0.84c1.638-0.264,3.283-0.43,4.924-0.648c1.644-0.154,3.288-0.346,4.933-0.461
			c1.645-0.126,3.291-0.245,4.937-0.316c1.646-0.099,3.293-0.133,4.94-0.184c1.647-0.033,3.296-0.05,4.945-0.042
			c1.661,0.019,3.278,0.037,4.991,0.119l-1.995,0.778l0,0c0.737-0.725,1.396-1.336,2.12-1.949c0.714-0.604,1.433-1.2,2.169-1.768
			c0.724-0.585,1.479-1.129,2.229-1.677c0.745-0.555,1.538-1.043,2.306-1.564c0.765-0.529,1.578-0.983,2.371-1.463
			c0.789-0.488,1.613-0.921,2.437-1.356c0.813-0.444,1.637-0.875,2.494-1.245c0.853-0.375,1.677-0.798,2.548-1.131l2.604-0.999
			c0.877-0.307,1.781-0.549,2.668-0.823c0.446-0.127,0.886-0.279,1.338-0.386l1.365-0.298c0.912-0.182,1.808-0.429,2.736-0.514
			c0.924-0.112,1.852-0.196,2.771-0.276c0.918-0.09,1.857,0.006,2.776,0.012l1.38,0.061c0.459,0.032,0.918,0.13,1.369,0.206
			c0.909,0.159,1.811,0.334,2.688,0.542c-0.911,0.162-1.809,0.29-2.691,0.401c-0.441,0.07-0.883,0.088-1.318,0.176l-1.307,0.281
			c-0.863,0.192-1.729,0.311-2.574,0.541c-0.848,0.242-1.688,0.479-2.527,0.689c-0.844,0.195-1.649,0.564-2.479,0.814l-1.229,0.415
			c-0.407,0.145-0.803,0.335-1.203,0.5c-0.797,0.35-1.604,0.662-2.385,1.038l-2.326,1.167c-0.775,0.382-1.512,0.854-2.27,1.275
			c-0.758,0.417-1.486,0.889-2.219,1.358c-0.73,0.464-1.467,0.922-2.168,1.437c-0.703,0.51-1.434,0.977-2.116,1.513
			c-0.688,0.531-1.396,1.025-2.062,1.586c-0.674,0.545-1.361,1.069-2.012,1.641c-0.668,0.553-1.311,1.127-1.945,1.705
			c-0.616,0.578-1.284,1.18-1.818,1.721l0,0l-0.842,0.834l-1.153-0.055c-1.53-0.074-3.161-0.095-4.749-0.111
			c-1.599-0.008-3.197,0.008-4.798,0.041c-1.601,0.05-3.198,0.083-4.796,0.178c-1.598,0.07-3.192,0.186-4.786,0.307
			c-1.594,0.111-3.178,0.297-4.768,0.445c-1.578,0.212-3.167,0.37-4.735,0.624c-1.568,0.253-3.145,0.474-4.692,0.804l-2.331,0.457
			l-2.299,0.553c-1.56,0.34-3.002,0.806-4.478,1.23c-0.725,0.189-1.496,0.482-2.26,0.758l-2.291,0.828l-2.065,0.899
			c-0.719,0.302-1.43,0.616-2.109,0.983l-2.064,1.057l-1.98,1.173c-0.675,0.373-1.266,0.848-1.905,1.265
			c-0.644,0.414-1.226,0.891-1.814,1.361c-0.606,0.454-1.161,0.955-1.703,1.466c-0.569,0.489-1.065,1.035-1.57,1.573
			c-0.53,0.521-0.937,1.122-1.416,1.675c-0.404,0.594-0.852,1.169-1.191,1.787c-0.188,0.302-0.366,0.606-0.513,0.92
			c-0.162,0.31-0.318,0.62-0.44,0.933c-0.271,0.596-0.491,1.309-0.569,1.723L116.931,135.614z"/>
	</g>
	<g>
		<path fill="#5C4782" d="M209.854,13.621c-0.272,0.1-0.699,0.302-1.049,0.504c-0.367,0.209-0.721,0.447-1.062,0.7
			c-0.685,0.515-1.315,1.1-1.864,1.761c-1.104,1.315-1.9,2.887-2.361,4.589c-0.129,0.421-0.207,0.86-0.304,1.294
			c-0.062,0.443-0.151,0.88-0.185,1.333c-0.049,0.448-0.074,0.9-0.084,1.356c-0.026,0.453,0.006,0.914,0.009,1.372
			c0.032,0.919,0.132,1.843,0.263,2.766c0.146,0.924,0.331,1.845,0.543,2.765l0.354,1.523l-1.508,0.532l0,0
			c-0.656,0.25-1.463,0.66-2.172,1.046c-0.729,0.401-1.427,0.851-2.08,1.346c-1.299,1-2.47,2.135-3.336,3.447
			c-0.429,0.659-0.824,1.335-1.109,2.061c-0.279,0.726-0.526,1.471-0.641,2.252c-0.152,0.773-0.209,1.572-0.201,2.38
			c0.021,0.809,0.084,1.629,0.242,2.447c0.065,0.41,0.143,0.821,0.252,1.23c0.096,0.423,0.188,0.797,0.326,1.249
			c0.239,0.799,0.53,1.613,0.862,2.414c0.334,0.8,0.706,1.595,1.087,2.406c0.383,0.812,0.811,1.625,1.186,2.495
			c0.375,0.865,0.731,1.78,0.977,2.741c0.229,0.966,0.352,1.972,0.302,2.957c-0.104,1.979-0.788,3.785-1.702,5.385
			c0.311-1.822,0.483-3.634,0.209-5.311c-0.271-1.68-1.007-3.162-1.93-4.663l-1.422-2.313c-0.486-0.791-0.951-1.617-1.375-2.475
			c-0.426-0.856-0.814-1.737-1.163-2.663c-0.159-0.41-0.325-0.91-0.46-1.369c-0.154-0.465-0.286-0.939-0.387-1.427
			c-0.231-0.962-0.362-1.962-0.434-2.972c-0.059-1.012-0.035-2.042,0.114-3.068c0.13-1.028,0.423-2.037,0.774-3.017
			c0.365-0.979,0.854-1.909,1.418-2.777c1.144-1.734,2.613-3.193,4.242-4.356c0.814-0.585,1.666-1.104,2.545-1.563
			c0.898-0.471,1.748-0.836,2.816-1.179l0,0l-1.156,2.055c-0.231-1.011-0.438-2.03-0.602-3.064
			c-0.148-1.038-0.258-2.085-0.299-3.146c-0.006-0.533-0.038-1.062-0.008-1.598c0.01-0.535,0.043-1.071,0.102-1.608
			c0.036-0.537,0.143-1.074,0.221-1.61c0.112-0.535,0.215-1.07,0.373-1.599c0.574-2.118,1.6-4.167,3.047-5.887
			c0.717-0.864,1.545-1.634,2.445-2.311c0.453-0.335,0.922-0.649,1.417-0.932c0.511-0.286,0.976-0.527,1.632-0.769L209.854,13.621z"
			/>
	</g>
	<g>
		<path fill="#5C4782" d="M233.34,16.687c0,0,0.021,0.013,0.064,0.037c0.082,0.049,0.203,0.122,0.361,0.218
			c0.282,0.191,0.611,0.444,1.012,0.839c0.781,0.756,1.736,2.214,1.957,4.128c0.244,1.905-0.229,4.005-1.125,6.017
			c-0.903,2.025-2.262,3.965-3.795,5.997c-0.832,0.956-1.611,1.999-2.578,2.984c-0.449,0.479-0.906,0.965-1.37,1.459
			c-0.513,0.494-1.034,0.996-1.562,1.505c-1.068,0.996-2.203,1.947-3.402,2.874c-1.18,0.917-2.457,1.79-3.363,2.667
			c-0.896,0.855-1.373,1.914-1.715,3.307l-0.221,1.058c-0.069,0.358-0.104,0.743-0.158,1.115c-0.113,0.742-0.182,1.517-0.241,2.298
			c-0.147,1.549-0.202,3.156-0.286,4.753l-0.09,2.415l-0.059,1.267l-0.071,1.215c-0.187,1.75-0.478,3.515-1.142,5.182
			c-0.656,1.673-1.658,3.248-2.897,4.527c-2.511,2.582-5.525,3.976-7.998,5.546c-2.535,1.515-4.567,3.314-6.013,5.396
			c-1.477,2.06-2.312,4.393-2.891,6.595c-0.588,2.212-0.761,4.361-0.92,6.247c-0.051,0.951-0.062,1.848-0.097,2.672
			c-0.015,0.828,0.021,1.594,0.021,2.283c-0.01,1.375,0.133,2.469,0.16,3.207c0.049,0.74,0.075,1.135,0.075,1.135l-4.321,0.229
			c0,0,0-0.417-0.003-1.197c0.013-0.783-0.038-1.918,0.029-3.384c0.028-0.731,0.036-1.538,0.091-2.42
			c0.075-0.884,0.137-1.838,0.24-2.858c0.266-2.042,0.583-4.35,1.297-6.838c0.725-2.467,1.771-5.171,3.623-7.616
			c1.796-2.48,4.391-4.507,7.076-6.104c2.671-1.63,5.472-2.962,7.453-4.995c0.99-1.008,1.76-2.191,2.302-3.521
			c0.551-1.342,0.805-2.808,0.985-4.274l0.082-1.214l0.035-0.553l0.016-0.611l0.065-2.441c0.067-1.632,0.104-3.247,0.243-4.881
			c0.057-0.812,0.117-1.624,0.232-2.45c0.057-0.412,0.09-0.815,0.162-1.231l0.248-1.251c0.062-0.41,0.23-0.847,0.355-1.268
			c0.07-0.212,0.129-0.423,0.211-0.635l0.303-0.633c0.104-0.209,0.203-0.421,0.315-0.625l0.409-0.582
			c0.263-0.405,0.576-0.729,0.893-1.047c1.277-1.245,2.502-2.049,3.611-2.955c1.091-0.896,2.126-1.822,3.07-2.759
			c0.463-0.473,0.918-0.939,1.369-1.399c0.448-0.508,0.891-1.008,1.323-1.5c0.849-0.915,1.56-1.933,2.302-2.834
			c1.35-1.884,2.479-3.683,3.096-5.325c0.63-1.631,0.789-3.034,0.611-3.95c-0.158-0.928-0.596-1.4-0.906-1.67
			c-0.154-0.128-0.297-0.22-0.344-0.243c-0.015,0,0.008,0.005-0.021-0.01c-0.045-0.021-0.068-0.032-0.068-0.032L233.34,16.687z"/>
	</g>
	<path fill="none" stroke="#5C4782" stroke-width="4.3274" stroke-miterlimit="10" d="M145.242,12.562
		c0,0-21.348,17.31-2.309,38.369"/>
	<path fill="none" stroke="#5C4782" stroke-width="4.3274" stroke-miterlimit="10" d="M201.064,27.853
		c0,0-20.338-20.772-45.874-16.444"/>
	<g>
		<path fill="#5C4782" d="M193.104,53.398c-0.408,0.192-0.771,0.387-1.19,0.617c-0.403,0.227-0.808,0.458-1.201,0.707
			c-0.399,0.237-0.785,0.504-1.174,0.762c-0.396,0.25-0.761,0.543-1.142,0.813c-0.383,0.266-0.729,0.576-1.098,0.863
			c-0.369,0.284-0.708,0.6-1.052,0.91c-0.349,0.306-0.688,0.62-1.001,0.956c-0.312,0.335-0.663,0.644-0.948,0.999l-0.887,1.043
			l-0.798,1.098c-0.282,0.357-0.496,0.751-0.725,1.136c-0.219,0.39-0.488,0.757-0.65,1.17l-0.562,1.208
			c-0.169,0.409-0.285,0.834-0.433,1.249l-0.214,0.626l-0.135,0.645l-0.272,1.289l-0.595,2.818l-2.506-1.19l0,0
			c-1.072-0.457-2.39-0.881-3.613-1.244c-1.25-0.366-2.52-0.652-3.79-0.895c-1.271-0.235-2.55-0.404-3.823-0.472
			c-1.271-0.08-2.541-0.099-3.789,0.004c-1.246,0.111-2.479,0.292-3.672,0.59c-1.187,0.313-2.362,0.679-3.454,1.221
			c-0.567,0.229-1.075,0.571-1.618,0.849c-0.498,0.353-1.043,0.633-1.52,1.022c-0.494,0.363-0.981,0.737-1.43,1.163
			c-0.477,0.393-0.897,0.854-1.33,1.301c-0.855,0.908-1.616,1.919-2.336,2.968l-1.227,1.736c-0.481,0.598-0.938,1.225-1.444,1.789
			c-0.982,1.138-2.104,2.211-3.38,3.159c-1.283,0.934-2.812,1.723-4.514,2.05c-1.701,0.336-3.505,0.115-5.019-0.491
			c-1.538-0.583-2.813-1.491-3.911-2.489c-1.117-0.98-2.035-2.098-2.904-3.203l-1.262-1.664c-0.208-0.273-0.425-0.534-0.654-0.783
			c-0.234-0.226-0.466-0.5-0.823-0.546c0.361-0.132,0.741,0.048,1.082,0.171c0.336,0.152,0.65,0.337,0.96,0.523
			c0.622,0.371,1.181,0.795,1.761,1.185c1.131,0.809,2.257,1.571,3.377,2.226c1.132,0.632,2.268,1.169,3.383,1.406
			c1.119,0.231,2.17,0.229,3.177-0.051c1-0.3,1.985-0.82,2.894-1.574c0.903-0.76,1.755-1.65,2.528-2.655
			c0.394-0.489,0.722-1.007,1.089-1.502l1.083-1.717c0.803-1.263,1.671-2.5,2.677-3.644c0.509-0.567,1.009-1.143,1.583-1.658
			c0.542-0.543,1.134-1.037,1.742-1.515c0.588-0.501,1.257-0.902,1.893-1.342c0.68-0.371,1.332-0.801,2.044-1.109
			c1.386-0.702,2.862-1.191,4.345-1.598c1.488-0.403,3.009-0.6,4.521-0.723c3.028-0.209,6.03,0.062,8.913,0.697
			c1.445,0.305,2.858,0.718,4.249,1.192c1.41,0.483,2.698,1.021,4.133,1.745v0.001l-3.101,1.627l0.339-1.641l0.178-0.818
			l0.266-0.792c0.186-0.525,0.34-1.063,0.551-1.575l0.698-1.507c0.215-0.515,0.528-0.964,0.8-1.444
			c0.281-0.473,0.553-0.954,0.887-1.384c0.317-0.441,0.633-0.89,0.963-1.321l1.051-1.238c0.343-0.42,0.74-0.779,1.111-1.171
			c0.366-0.393,0.762-0.756,1.16-1.109c0.396-0.358,0.79-0.722,1.211-1.048c0.42-0.33,0.819-0.682,1.256-0.986
			c0.432-0.308,0.85-0.639,1.297-0.925c0.439-0.294,0.877-0.595,1.336-0.867c0.449-0.283,0.91-0.549,1.377-0.811
			c0.455-0.251,0.972-0.523,1.467-0.755L193.104,53.398z"/>
	</g>
	<g>
		<path fill="#5C4782" d="M158.223,47.758c-0.297,0.271-0.719,0.301-1.068,0.416c-0.365,0.103-0.727,0.176-1.084,0.266l-2.113,0.5
			c-1.388,0.335-2.733,0.693-4.046,1.1c-1.312,0.399-2.6,0.837-3.821,1.41c-1.224,0.565-2.383,1.239-3.494,1.971
			c-1.107,0.741-2.126,1.596-3.103,2.492c-0.975,0.902-1.854,1.903-2.694,2.94c-0.419,0.52-0.815,1.061-1.195,1.614
			c-0.382,0.553-0.762,1.109-1.109,1.69c-0.352,0.577-0.697,1.163-1.027,1.759c-0.322,0.6-0.655,1.2-0.962,1.814l-0.001,0.004
			l-1.107,2.849l-2.503-2.313c-0.594-0.549-1.387-1.212-2.13-1.733c-0.751-0.553-1.545-1.009-2.327-1.392
			c-0.787-0.375-1.581-0.641-2.337-0.767c-0.76-0.129-1.477-0.091-2.17,0.059c-0.693,0.157-1.371,0.478-2.023,0.948
			c-0.66,0.455-1.3,1.05-1.876,1.758c-0.302,0.334-0.566,0.725-0.843,1.104l-0.104,0.142l-0.013,0.018l-0.006,0.009
			c-0.042,0.071,0.05-0.087,0.038-0.067l-0.026,0.042l-0.053,0.084l-0.212,0.337l-0.425,0.674c-0.625,0.926-1.004,1.741-1.453,2.583
			c-0.232,0.413-0.381,0.891-0.579,1.335c-0.191,0.451-0.383,0.903-0.512,1.371c-0.138,0.465-0.316,0.927-0.426,1.4l-0.304,1.431
			c-0.13,0.964-0.252,1.94-0.246,2.928c-0.032,0.495,0.006,0.989,0.043,1.485c0.021,0.499,0.07,0.997,0.163,1.491
			c0.279,1.995,0.877,3.975,1.628,5.927c0.38,0.976,0.807,1.939,1.26,2.898l1.422,2.86c-0.688-0.816-1.367-1.645-2.004-2.508
			c-0.634-0.865-1.25-1.75-1.83-2.669c-0.576-0.921-1.107-1.877-1.568-2.88c-0.256-0.489-0.438-1.013-0.652-1.527
			c-0.225-0.51-0.381-1.047-0.541-1.585c-0.178-0.534-0.312-1.081-0.416-1.637c-0.122-0.554-0.241-1.11-0.288-1.679
			c-0.174-1.131-0.167-2.28-0.145-3.431l0.155-1.72c0.065-0.573,0.201-1.13,0.301-1.699c0.089-0.574,0.25-1.123,0.423-1.669
			c0.18-0.547,0.303-1.104,0.535-1.646c0.438-1.087,0.889-2.229,1.376-3.118l0.358-0.712l0.179-0.356l0.045-0.089l0.022-0.045
			l0.074-0.123l0.117-0.189c0.313-0.504,0.614-1.013,0.987-1.5c0.703-0.984,1.546-1.937,2.586-2.755
			c1.036-0.811,2.277-1.487,3.642-1.856c1.362-0.384,2.811-0.401,4.144-0.19c1.344,0.205,2.568,0.677,3.68,1.243
			c1.118,0.564,2.12,1.258,3.042,2.011c0.936,0.779,1.723,1.545,2.558,2.566l-3.61,0.536l0.002-0.004
			c1.134-2.843,2.692-5.575,4.697-7.991c1.988-2.424,4.439-4.517,7.187-6.063c1.368-0.782,2.812-1.42,4.294-1.911
			c1.481-0.489,2.988-0.881,4.516-1.085c1.528-0.195,3.069-0.219,4.581-0.06c0.755,0.072,1.505,0.205,2.241,0.371
			c0.368,0.089,0.732,0.172,1.093,0.284l0.539,0.159C157.875,47.708,158.071,47.818,158.223,47.758z"/>
	</g>
	<path fill="#5C4782" d="M184.044,54.97c0,0-6.058-12.404-17.743-16.876c-11.684-4.472-11.539-3.174-11.539-3.174
		s6.779-1.442,9.809-0.288c0,0-1.155-5.626,1.587-7.646c0,0-1.443,6.06,2.019,9.375c3.461,3.318,20.625,16.013,20.625,16.013
		L184.044,54.97z"/>
	<g>
		<path fill="#5C4782" d="M113.591,65.471c0,0-0.101-0.115-0.291-0.329c-0.177-0.207-0.416-0.502-0.704-0.886
			c-0.57-0.766-1.331-1.879-2.07-3.309c-0.374-0.711-0.736-1.505-1.065-2.365c-0.341-0.854-0.611-1.793-0.851-2.766
			c-0.44-1.958-0.621-4.125-0.327-6.227c0.116-1.053,0.383-2.077,0.684-3.057c0.155-0.489,0.356-0.958,0.529-1.425
			c0.212-0.45,0.422-0.895,0.628-1.332c0.238-0.417,0.472-0.826,0.701-1.227c0.255-0.381,0.504-0.754,0.748-1.118
			c0.517-0.7,1.006-1.358,1.518-1.911c0.499-0.564,0.963-1.07,1.41-1.484c0.433-0.427,0.811-0.794,1.148-1.071
			c0.657-0.567,1.032-0.891,1.032-0.891s-0.327,0.372-0.899,1.021c-0.294,0.316-0.617,0.73-0.982,1.206
			c-0.38,0.463-0.765,1.018-1.171,1.629c-0.42,0.6-0.802,1.297-1.2,2.025c-0.182,0.372-0.368,0.755-0.558,1.146
			c-0.161,0.401-0.326,0.81-0.494,1.227c-0.133,0.425-0.269,0.857-0.406,1.294c-0.097,0.447-0.221,0.89-0.298,1.345
			c-0.146,0.911-0.258,1.836-0.23,2.761c-0.003,1.847,0.409,3.651,1.003,5.245c0.318,0.793,0.648,1.546,1.038,2.227
			c0.377,0.685,0.773,1.31,1.17,1.864c0.786,1.115,1.552,1.957,2.097,2.51c0.273,0.275,0.493,0.481,0.638,0.608
			c0.135,0.115,0.208,0.176,0.208,0.176L113.591,65.471z"/>
	</g>
	<path fill="#5C4782" d="M133.269,30.017c0,0-3.606,14.856-14.279,17.885c0,0,3.461,0.145,7.356-2.019c0,0-0.722,3.317,1.442,6.202
		c0,0-0.865-9.664,6.201-16.01L133.269,30.017z"/>
	<path fill="#5C4782" d="M108.891,46.892c0,0-7.138,1.082-9.952,6.491c0,0,5.409-3.895,10.167-2.38L108.891,46.892z"/>
	<g>
		<path fill="#5C4782" d="M297.775,62.397c-0.051,0.733-0.146,1.341-0.266,1.994c-0.115,0.64-0.269,1.271-0.445,1.897
			c-0.375,1.246-0.861,2.468-1.483,3.64c-0.313,0.584-0.663,1.154-1.039,1.71c-0.386,0.55-0.804,1.082-1.252,1.592
			c-0.46,0.501-0.942,0.983-1.466,1.429c-0.527,0.437-1.068,0.864-1.657,1.219c-2.332,1.473-5.033,2.223-7.649,2.424
			c-0.66,0.075-1.31,0.056-1.963,0.065c-0.652,0.003-1.291-0.063-1.937-0.094l-1.902-0.229l-1.866-0.343l-1.074-0.197l-0.428-1.069
			c-0.305-0.763-0.652-1.572-0.994-2.356c-0.341-0.791-0.69-1.579-1.055-2.36c-0.725-1.562-1.488-3.104-2.303-4.604
			c-0.82-1.497-1.682-2.964-2.611-4.343c-0.929-1.369-1.958-2.677-3.07-3.623c-0.549-0.471-1.127-0.813-1.588-0.943
			c-0.229-0.065-0.423-0.081-0.601-0.06c-0.188,0.023-0.285,0.061-0.785,0.275c-0.591,0.261-1.269,0.674-1.862,1.146
			c-0.602,0.48-1.207,1-1.76,1.596c-0.549,0.596-1.086,1.229-1.604,1.893c-0.504,0.671-0.991,1.371-1.471,2.086
			c-0.936,1.448-1.824,2.96-2.674,4.544c0.104-1.804,0.5-3.583,1.079-5.312c0.285-0.869,0.636-1.721,1.044-2.552
			c0.402-0.837,0.865-1.657,1.418-2.433c0.553-0.775,1.15-1.546,1.878-2.222c0.729-0.683,1.507-1.288,2.481-1.827l0.292-0.155
			l0.146-0.078l0.072-0.039l0.176-0.073c0.312-0.131,0.649-0.233,0.994-0.293c0.689-0.125,1.396-0.081,2.018,0.066
			c1.252,0.305,2.207,0.914,3.021,1.542c1.62,1.285,2.812,2.753,3.924,4.245c1.104,1.494,2.064,3.045,2.96,4.621
			c0.896,1.575,1.729,3.172,2.517,4.788c0.395,0.808,0.776,1.62,1.146,2.438c0.37,0.826,0.719,1.634,1.068,2.503l-1.502-1.267
			l1.639,0.296l1.636,0.193c0.539,0.021,1.087,0.08,1.621,0.073c0.532-0.011,1.072,0.004,1.597-0.054
			c2.107-0.134,4.121-0.687,5.828-1.732c0.434-0.251,0.842-0.542,1.238-0.848c0.396-0.312,0.766-0.655,1.122-1.015
			c0.351-0.37,0.683-0.76,0.993-1.171c0.306-0.418,0.592-0.851,0.855-1.303c0.527-0.908,0.959-1.888,1.31-2.903
			c0.179-0.506,0.341-1.022,0.473-1.543c0.132-0.508,0.247-1.071,0.31-1.521L297.775,62.397z"/>
	</g>
	<g>
		<path fill="#5C4782" d="M277,75.839c0,0-0.003,0.054-0.01,0.158c-0.014,0.128-0.033,0.318-0.061,0.566
			c-0.062,0.451-0.156,1.106-0.369,1.909c-0.221,0.801-0.506,1.771-0.984,2.832c-0.119,0.266-0.241,0.54-0.368,0.822
			c-0.151,0.271-0.31,0.549-0.47,0.835c-0.305,0.583-0.723,1.138-1.146,1.729c-0.404,0.6-0.963,1.128-1.479,1.715
			c-0.584,0.522-1.184,1.079-1.854,1.572c-1.356,0.962-2.918,1.808-4.61,2.349c-0.424,0.137-0.853,0.274-1.28,0.413
			c-0.431,0.134-0.878,0.176-1.321,0.267c-0.888,0.166-1.783,0.334-2.689,0.348L259,91.432l-0.341,0.019l-0.171,0.009l-0.109,0.003
			l-0.04-0.002l-0.08-0.004l-0.64-0.03l-0.643-0.03l-0.724-0.081c-0.485-0.058-0.978-0.11-1.427-0.217
			c-1.842-0.355-3.631-0.984-5.229-1.865c-1.604-0.873-3.031-1.948-4.267-3.11c-2.461-2.347-4.167-4.975-5.379-7.299
			c-1.206-2.338-1.919-4.396-2.38-5.835c-0.442-1.449-0.598-2.299-0.598-2.299s0.314,0.804,0.984,2.146
			c0.658,1.342,1.684,3.225,3.143,5.293c1.455,2.061,3.352,4.337,5.773,6.197c2.396,1.885,5.359,3.239,8.455,3.593
			c0.393,0.065,0.757,0.07,1.125,0.09l0.559,0.028l0.643-0.016l0.64-0.016c0.08-0.002,0.362-0.039,0.532-0.057l1.175-0.13
			c0.79-0.046,1.531-0.236,2.265-0.411c0.748-0.135,1.434-0.394,2.105-0.639c1.365-0.461,2.525-1.189,3.577-1.914
			c0.513-0.381,0.963-0.813,1.415-1.208c0.383-0.465,0.824-0.85,1.146-1.312c0.329-0.454,0.672-0.873,0.916-1.331
			c0.135-0.221,0.266-0.437,0.393-0.646c0.111-0.22,0.22-0.434,0.322-0.641c0.426-0.824,0.696-1.598,0.907-2.234
			c0.194-0.642,0.324-1.146,0.402-1.487c0.03-0.15,0.055-0.265,0.069-0.342c0.018-0.103,0.022-0.155,0.022-0.155L277,75.839z"/>
	</g>
	<g>
		<path fill="#5C4782" d="M255.596,58.44c0,0-0.019-0.118-0.054-0.34c-0.041-0.245-0.125-0.615-0.245-1.085
			c-0.242-0.936-0.716-2.272-1.609-3.607c-0.444-0.665-1.004-1.324-1.699-1.894c-0.695-0.567-1.53-1.037-2.477-1.388
			c-0.943-0.359-2.008-0.573-3.13-0.646c-1.079-0.072-2.44-0.025-3.633,0.005c-2.462,0.101-4.935,0.294-6.97,0.997
			c-1.021,0.343-1.879,0.861-2.588,1.515c-0.707,0.659-1.236,1.477-1.699,2.273c-0.461,0.798-0.833,1.585-1.189,2.272
			c-0.353,0.692-0.66,1.296-0.912,1.793c-0.514,0.992-0.849,1.537-0.849,1.537s0.176-0.612,0.483-1.682
			c0.33-1.066,0.662-2.604,1.342-4.447c0.338-0.921,0.816-1.928,1.576-2.886c0.759-0.959,1.846-1.756,3.021-2.315
			c1.179-0.569,2.45-0.928,3.724-1.206c1.275-0.281,2.574-0.457,3.863-0.591c1.336-0.126,2.506-0.251,3.922-0.284
			c1.369,0,2.756,0.173,4.065,0.574c1.31,0.399,2.519,1.042,3.541,1.81c1.021,0.775,1.838,1.677,2.481,2.566
			c0.651,0.887,1.082,1.792,1.424,2.592c0.336,0.806,0.56,1.529,0.716,2.132c0.157,0.604,0.229,1.091,0.28,1.433
			c0.021,0.177,0.037,0.313,0.049,0.405c0.009,0.104,0.014,0.158,0.014,0.158L255.596,58.44z"/>
	</g>
	<path fill="#5C4782" d="M245.204,84.252c0,0-12.118-4.182-16.877,2.02c-4.761,6.203,0.144,14.712,0.144,14.712l6.059,1.011
		c0,0-11.252,3.751-15.723,0.865c0,0,5.049-0.289,6.346-1.587c0,0-5.623-10.388,0.867-17.742c6.49-7.356,15.434-3.751,15.434-3.751
		L245.204,84.252z"/>
	<g>
		<path fill="#5C4782" d="M244.339,114.776c0,0-0.371,0.092-1.065,0.264c-0.703,0.178-1.729,0.47-3.032,0.863
			c-2.607,0.78-6.302,2.06-10.539,3.959c-2.104,0.983-4.332,2.14-6.54,3.543c-2.188,1.408-4.421,3.07-6.039,5.188
			c-0.814,1.053-1.413,2.19-1.749,3.392c-0.231,0.782-0.362,1.357-0.494,2.061c-0.144,0.687-0.226,1.388-0.291,2.091
			c-0.118,1.412-0.114,2.851-0.049,4.338c0.043,1.501,0.214,3.021,0.194,4.82c-0.021,0.901-0.07,1.92-0.479,3.092
			c-0.188,0.576-0.533,1.188-0.951,1.729c-0.443,0.521-0.971,0.986-1.505,1.291c-1.079,0.639-2.099,0.889-3.038,1.057
			c-0.471,0.076-0.928,0.129-1.369,0.156l-0.404,0.027l-0.293,0.01l-0.582,0.014c-0.738,0.037-1.629,0.004-2.491-0.025
			c-0.845-0.055-1.654-0.11-2.458-0.219c-1.607-0.211-3.146-0.543-4.588-0.84c-2.91-0.604-5.361-1.119-7.4-0.398
			c-0.51,0.193-1.023,0.371-1.503,0.677l-0.362,0.202c-0.041,0.021-0.162,0.097-0.144,0.074l-0.202,0.14
			c-0.27,0.185-0.533,0.364-0.798,0.547c-0.949,0.688-1.854,1.42-2.748,2.194c-1.786,1.504-3.431,3.013-5.119,4.14
			c-1.661,1.142-3.392,1.894-4.885,2.033c-0.738,0.116-1.407,0.006-1.961-0.037c-0.548-0.154-1.017-0.224-1.363-0.39
			c-0.681-0.323-1.043-0.498-1.043-0.498s0.39,0.068,1.121,0.195c0.358,0.062,0.815,0.033,1.324,0.059
			c0.513-0.079,1.097-0.108,1.698-0.358c1.225-0.418,2.527-1.293,3.855-2.569c1.334-1.269,2.708-2.906,4.335-4.688
			c0.806-0.879,1.731-1.807,2.765-2.729c0.244-0.209,0.49-0.418,0.738-0.627l0.188-0.158l0.271-0.192l0.471-0.321
			c0.606-0.449,1.336-0.802,2.069-1.136c1.505-0.651,3.237-0.896,4.847-0.869c1.621,0.015,3.143,0.267,4.609,0.486
			c1.475,0.225,2.902,0.45,4.327,0.559c0.709,0.08,1.435,0.111,2.127,0.142c0.681,0.006,1.338,0.028,2.151-0.027l0.582-0.027
			l0.293-0.014c-0.131,0.006-0.02,0-0.038,0l0.028-0.004l0.062-0.008l0.124-0.014c0.338-0.027,0.657-0.074,0.958-0.133
			c0.598-0.109,1.121-0.275,1.395-0.451c0.279-0.185,0.334-0.242,0.459-0.572c0.119-0.32,0.195-0.902,0.199-1.578
			c0.002-1.361-0.123-2.996-0.141-4.644c-0.002-1.656,0.096-3.367,0.412-5.037c0.154-0.834,0.332-1.664,0.572-2.473
			c0.219-0.797,0.537-1.692,0.806-2.35c0.657-1.689,1.666-3.156,2.739-4.378c2.178-2.456,4.64-4.215,7.021-5.714
			c2.396-1.479,4.764-2.646,6.965-3.646c4.398-2.021,8.195-3.316,10.852-4.231c1.332-0.448,2.39-0.767,3.111-0.995
			c0.732-0.219,1.125-0.335,1.125-0.335L244.339,114.776z"/>
	</g>
	<g>
		<path fill="#5C4782" d="M250.829,97.954c0,0-0.279,0.999-0.815,2.689c-0.537,1.67-1.301,4.055-2.219,6.917
			c-0.439,1.421-0.927,2.946-1.359,4.568c-0.438,1.615-0.842,3.334-1.058,5.091c-0.206,1.742-0.29,3.573,0.067,5.157
			c0.156,0.797,0.421,1.522,0.808,2.087c0.08,0.157,0.19,0.282,0.302,0.405l0.157,0.192l0.021,0.024l0.011,0.012
			c-0.031-0.032,0.084,0.089-0.068-0.068l0.069,0.064l0.137,0.129l1.1,1.038l1.098,1.038l1.053,0.764
			c0.357,0.245,0.668,0.536,1.046,0.756l1.138,0.646c0.19,0.104,0.373,0.225,0.565,0.316l0.597,0.242
			c0.4,0.155,0.777,0.34,1.188,0.475c0.833,0.242,1.642,0.496,2.542,0.673c0.455,0.103,0.902,0.204,1.354,0.304
			c0.473,0.112,0.903,0.186,1.396,0.326c0.482,0.134,0.965,0.267,1.438,0.398l0.088,0.024l0.045,0.012
			c0.125,0.05-0.25-0.102,0.285,0.113l0.021,0.008l0.148,0.068l0.304,0.135c0.116,0.06,0.155,0.058,0.342,0.167
			c0.222,0.137,0.438,0.288,0.646,0.451c0.205,0.163,0.401,0.338,0.582,0.518c0.133,0.168,0.26,0.342,0.381,0.521
			c0.121,0.178,0.234,0.358,0.34,0.541l0.207,0.508l0.183,0.515c0.042,0.153,0.065,0.288,0.099,0.434
			c0.062,0.279,0.123,0.59,0.142,0.805c0.118,0.996,0.149,1.643,0.255,2.252c0.194,1.148,0.583,1.867,1.137,2.527
			c0.145,0.158,0.284,0.312,0.42,0.463c0.172,0.138,0.338,0.271,0.494,0.396c0.29,0.271,0.646,0.475,0.956,0.668
			c0.585,0.418,1.177,0.651,1.537,0.842c0.372,0.188,0.568,0.285,0.568,0.285l-1.819,4.37c0,0-0.257-0.116-0.738-0.336
			c-0.48-0.229-1.191-0.495-2.076-1.062c-0.445-0.26-0.935-0.551-1.438-0.985c-0.253-0.209-0.519-0.427-0.791-0.648
			c-0.255-0.271-0.517-0.555-0.788-0.844c-0.281-0.275-0.512-0.644-0.756-1.004c-0.12-0.183-0.241-0.367-0.363-0.558
			c-0.1-0.202-0.197-0.409-0.299-0.62c-0.217-0.418-0.374-0.857-0.504-1.314c-0.161-0.463-0.229-0.904-0.322-1.369
			c-0.15-0.879-0.207-1.807-0.289-2.426c-0.016-0.193-0.05-0.283-0.068-0.41l-0.026-0.176c-0.017-0.023-0.024-0.049-0.035-0.074
			c-0.008-0.026-0.013-0.057-0.016-0.086c-0.011,0.004-0.015,0.012-0.013,0.012s0.011-0.002,0.021-0.012
			c0.018,0.039,0.048,0.076,0.088,0.101c0.594,0.215-0.714-0.379-0.428-0.242c-0.379-0.113-0.764-0.226-1.153-0.34
			c-0.378-0.121-0.851-0.213-1.278-0.322c-0.455-0.112-0.916-0.229-1.381-0.344c-0.945-0.22-1.965-0.562-2.983-0.906
			c-0.507-0.187-1.009-0.438-1.515-0.66l-0.768-0.347c-0.246-0.128-0.479-0.284-0.717-0.426c-0.475-0.292-0.949-0.586-1.426-0.881
			c-0.475-0.303-0.901-0.698-1.35-1.053l-1.314-1.1l-1.045-1.091l-1.045-1.091l-0.129-0.137l-0.066-0.067
			c-0.161-0.171-0.055-0.062-0.096-0.106l-0.021-0.025l-0.039-0.049l-0.309-0.402c-0.207-0.268-0.401-0.54-0.549-0.833
			c-0.674-1.144-1.019-2.363-1.188-3.515c-0.356-2.332-0.062-4.453,0.291-6.429c0.378-1.974,0.935-3.791,1.515-5.479
			c0.598-1.683,1.243-3.229,1.924-4.615c0.67-1.389,1.36-2.62,2.008-3.688c0.658-1.063,1.256-1.971,1.791-2.695
			C250.111,98.707,250.829,97.954,250.829,97.954z"/>
	</g>
	<path fill="#5C4782" d="M214.262,136.034c0,0-3.461,21.854,19.475,14.065l-8.873,5.84c0,0-14.277,0.435-12.979-16.659
		L214.262,136.034z"/>
	<path fill="#5C4782" d="M216.499,125.073c0,0-13.126,9.664-16.877,3.174c0,0,5.627-15.146,8.224-16.156
		c0,0-4.328,1.732-9.666,12.693c-5.337,10.963-18.174,16.877-26.685,13.992c-8.51-2.886-2.452-14.856-2.452-14.856
		s-3.462,5.335-6.059,5.481c-2.597,0.143-17.166-1.875-21.638,2.738c0,0,10.387-2.884,18.032-0.863
		c7.644,2.018,3.895,7.646,13.414,9.52c9.522,1.875,15.437-2.74,21.205-6.203c5.771-3.461,8.653,1.73,17.599-1.586L216.499,125.073z
		"/>
	<path fill="#5C4782" d="M247.367,128.678c0,0-8.364,1.3-12.838,3.03c-4.471,1.73-8.799,0.865-8.799,0.865s0.146,3.317,7.646,1.588
		c0,0-1.731,1.875-1.153,5.481c0,0,2.307-5.771,7.354-7.213c5.049-1.44,14.569,2.885,14.569,2.885L247.367,128.678z"/>
	<g>
		<path fill="#5C4782" d="M125.397,129.956c0,0-0.021,0.035-0.061,0.102c-0.024,0.036-0.078,0.135-0.152,0.273
			c-0.141,0.275-0.353,0.703-0.571,1.274c-0.419,1.136-0.935,2.874-0.748,4.884c0.09,1,0.36,2.059,0.886,3.102
			c0.51,1.049,1.324,2.054,2.348,2.959c0.484,0.482,1.093,0.865,1.668,1.304c0.635,0.362,1.242,0.793,1.938,1.11
			c0.683,0.336,1.372,0.685,2.111,0.949l1.095,0.438l1.134,0.362l1.138,0.361l1.161,0.297c0.773,0.203,1.545,0.399,2.329,0.539
			c1.552,0.342,3.108,0.562,4.616,0.782c1.511,0.192,2.981,0.354,4.379,0.479c1.4,0.093,2.725,0.216,3.952,0.263
			c1.228,0.045,2.354,0.086,3.353,0.123c1,0.01,1.871,0.017,2.589,0.021c1.438,0.009,2.259,0.013,2.259,0.013
			s-0.818,0.073-2.25,0.203c-0.717,0.062-1.587,0.14-2.586,0.228c-1.002,0.06-2.132,0.125-3.365,0.199
			c-1.234,0.068-2.575,0.073-3.995,0.118c-1.42,0.011-2.92-0.013-4.475-0.062c-1.554-0.09-3.163-0.178-4.797-0.387
			c-0.819-0.072-1.641-0.207-2.466-0.349l-1.243-0.205l-1.238-0.276l-1.241-0.281l-1.227-0.367c-0.823-0.219-1.623-0.534-2.42-0.846
			c-0.804-0.287-1.561-0.717-2.33-1.08c-0.734-0.451-1.489-0.853-2.158-1.396c-1.372-1.014-2.593-2.254-3.458-3.674
			c-0.881-1.406-1.425-2.934-1.684-4.363c-0.52-2.896-0.016-5.275,0.407-6.854c0.224-0.795,0.459-1.406,0.631-1.832
			c0.089-0.211,0.161-0.377,0.23-0.519c0.052-0.108,0.079-0.165,0.079-0.165L125.397,129.956z"/>
	</g>
	<path fill="#5C4782" d="M189.381,108.124c0,0-15.795,6.707-19.474-21.204c0,0-1.514,3.678-0.432,11.467
		c1.081,7.79,1.516,9.953-5.843,12.333C163.632,110.72,187.001,112.884,189.381,108.124z"/>
	<path fill="#5C4782" d="M153.463,70.26c0,0-13.415,6.274-7.356,28.777c0,0-6.924-11.9-2.813-21.42S153.463,70.26,153.463,70.26z"/>
	<path fill="#5C4782" d="M165.58,67.014c0,0,17.311,2.164,20.771,18.607C186.352,85.622,188.083,63.553,165.58,67.014z"/>
	<g>
		<path fill="#5C4782" d="M144.173,85.838c0,0-0.042,0.001-0.123,0.003c-0.061,0.004-0.15,0.009-0.268,0.017
			c-0.244,0.021-0.658,0.053-1.171,0.134c-0.515,0.077-1.151,0.17-1.865,0.35c-0.361,0.074-0.738,0.18-1.133,0.305
			c-0.399,0.108-0.811,0.246-1.23,0.417c-0.428,0.15-0.865,0.326-1.3,0.544c-0.447,0.193-0.906,0.402-1.347,0.67
			c-0.453,0.248-0.922,0.5-1.355,0.825c-0.444,0.31-0.917,0.603-1.334,0.981c-0.892,0.691-1.712,1.53-2.492,2.434
			c-0.359,0.479-0.754,0.938-1.115,1.43l-0.981,1.562c-0.327,0.525-0.554,1.112-0.839,1.664l-0.391,0.799l-0.366,0.927
			c-0.232,0.609-0.515,1.241-0.699,1.815c-0.195,0.58-0.387,1.153-0.576,1.717c-0.156,0.581-0.31,1.153-0.459,1.712
			c-0.143,0.562-0.232,1.113-0.359,1.651c-0.196,1.076-0.332,2.097-0.403,3.045c-0.016,0.474-0.031,0.928-0.045,1.359
			c0.031,0.424,0.035,0.842,0.076,1.225c0.048,0.38,0.079,0.75,0.165,1.07c0.054,0.338,0.139,0.635,0.223,0.906
			c0.326,1.092,0.769,1.646,0.769,1.646s-0.161-0.068-0.426-0.265c-0.272-0.19-0.635-0.522-1.02-1.021
			c-0.393-0.493-0.776-1.163-1.107-1.98c-0.183-0.406-0.284-0.856-0.438-1.332c-0.095-0.479-0.229-0.987-0.29-1.521
			c-0.042-0.531-0.129-1.096-0.135-1.669c0.008-0.572-0.016-1.177,0.041-1.78c0.06-1.222,0.286-2.475,0.522-3.773
			c0.154-0.648,0.31-1.308,0.468-1.976c0.157-0.677,0.362-1.268,0.544-1.915l0.284-0.956l0.405-1.039
			c0.278-0.661,0.5-1.35,0.834-1.995c0.342-0.643,0.685-1.287,1.026-1.928c0.384-0.618,0.812-1.211,1.226-1.807
			c0.883-1.147,1.84-2.229,2.892-3.144c0.496-0.494,1.059-0.886,1.598-1.286c0.529-0.417,1.092-0.753,1.641-1.079
			c0.539-0.347,1.092-0.626,1.634-0.884c0.535-0.274,1.07-0.493,1.592-0.685c0.514-0.211,1.017-0.385,1.503-0.523
			c0.481-0.156,0.942-0.288,1.382-0.385c0.874-0.223,1.65-0.357,2.299-0.443c0.651-0.085,1.16-0.117,1.544-0.137
			c0.375-0.009,0.575-0.014,0.575-0.014L144.173,85.838z"/>
	</g>
	<g>
		<path fill="#5C4782" d="M76.633,77.699c0,0-0.007,0.13-0.021,0.375c-0.006,0.275-0.015,0.696,0.021,1.245
			c0.058,1.093,0.273,2.683,0.875,4.481c0.319,0.892,0.731,1.831,1.251,2.783c0.541,0.942,1.222,1.869,1.992,2.786
			c0.811,0.883,1.699,1.768,2.737,2.536c0.499,0.406,1.066,0.743,1.595,1.134c0.576,0.33,1.129,0.7,1.728,1.008
			c1.188,0.63,2.431,1.182,3.693,1.662c1.255,0.499,2.542,0.887,3.795,1.253c1.267,0.325,2.499,0.625,3.69,0.853
			c1.181,0.266,2.316,0.467,3.362,0.697c1.056,0.215,2.024,0.412,2.882,0.587c0.861,0.209,1.621,0.344,2.247,0.496
			c1.253,0.288,1.978,0.524,1.978,0.524s-0.721,0.209-2,0.448c-0.64,0.122-1.418,0.261-2.317,0.337
			c-0.449,0.051-0.927,0.072-1.433,0.113c-0.506,0.043-1.039,0.078-1.594,0.059c-1.111-0.007-2.322,0.012-3.593-0.146
			c-1.277-0.096-2.612-0.336-4.001-0.565c-1.382-0.282-2.813-0.589-4.25-1.026c-1.439-0.422-2.875-0.98-4.286-1.622
			c-0.708-0.314-1.389-0.705-2.083-1.057c-0.663-0.418-1.35-0.791-1.974-1.264c-1.286-0.886-2.44-1.938-3.496-3.021
			c-1.024-1.12-1.894-2.317-2.613-3.522c-0.701-1.215-1.238-2.435-1.628-3.595c-0.774-2.328-0.974-4.372-0.994-5.803
			c-0.007-0.718,0.035-1.292,0.069-1.693c0.036-0.391,0.086-0.704,0.081-0.66L76.633,77.699z"/>
	</g>
	<path fill="#5C4782" d="M86.824,49.922c0,0-5.843,11.9,3.893,16.228c0,0-4.543,2.595-7.14-0.649
		c-2.595-3.246-7.14,6.491-7.14,6.491S80.331,54.249,86.824,49.922z"/>
	<path fill="#5C4782" d="M109.975,79.347c0,0-6.274,8.005-19.042,3.679c0,0,10.169,7.356,19.042-0.216V79.347z"/>
	<path fill="#5C4782" d="M299.584,127.67c0,0-0.866-12.116-12.116-8.943c-11.251,3.175-6.059,12.116-6.059,12.116
		s-6.06-3.46-3.175-10.096c0,0-7.211-9.521-21.637-2.598c0,0,10.676-10.098,24.521-0.289c0,0,9.521-6.346,15.002-4.037
		c5.479,2.308,6.922,7.211,8.078,8.653C305.354,123.92,299.584,127.67,299.584,127.67z"/>
	<g>
		<path fill="#5C4782" d="M289.143,114.835c-0.002,0.016,0.01-0.146,0-0.262c-0.006-0.156-0.015-0.385-0.023-0.676
			c-0.026-0.634-0.119-1.566-0.33-2.678c-0.081-0.561-0.264-1.146-0.396-1.785c-0.101-0.311-0.201-0.628-0.307-0.953
			c-0.094-0.33-0.201-0.664-0.35-0.988c-0.133-0.332-0.271-0.67-0.405-1.012c-0.167-0.33-0.335-0.663-0.505-0.999
			c-0.303-0.704-0.786-1.306-1.18-1.985c-0.436-0.648-0.953-1.242-1.426-1.869c-0.551-0.57-1.091-1.131-1.611-1.674
			c-0.588-0.479-1.146-0.975-1.688-1.438c-0.556-0.444-1.13-0.804-1.641-1.178c-0.519-0.364-0.988-0.723-1.446-0.962
			c-0.45-0.263-0.845-0.493-1.169-0.682c-0.649-0.386-1.024-0.624-1.024-0.624s0.426,0.065,1.178,0.208
			c0.375,0.076,0.834,0.168,1.359,0.273c0.535,0.085,1.112,0.264,1.737,0.487c0.623,0.226,1.334,0.417,2.033,0.739
			c0.688,0.339,1.433,0.69,2.19,1.087c0.717,0.458,1.457,0.953,2.211,1.468c0.68,0.599,1.414,1.184,2.071,1.85
			c0.618,0.701,1.298,1.373,1.808,2.153c0.271,0.381,0.55,0.754,0.8,1.14c0.223,0.401,0.442,0.798,0.659,1.188
			c0.459,0.772,0.742,1.594,1.063,2.351c0.257,0.779,0.521,1.516,0.661,2.223c0.186,0.695,0.275,1.353,0.354,1.935
			c0.068,0.586,0.109,1.098,0.129,1.53c0.021,0.425,0.013,0.78-0.002,1.062c-0.016,0.23-0.021,0.354-0.021,0.354L289.143,114.835z"
			/>
	</g>
</g>
<g>
	<g>
		<path fill="none" stroke="#5C4782" stroke-width="4.9329" stroke-miterlimit="10" d="M162.099,229.155
			c0.187,0.188,1.453,3.866,2.814,8.18l8.81,27.92c1.36,4.312-1.055,6.728-5.367,5.365l-27.92-8.81
			c-4.312-1.36-7.993-2.627-8.179-2.813c-0.187-0.187-2.955-2.955-6.152-6.151l-89.722-89.72c-3.197-3.196-3.197-8.433,0-11.629
			l18.216-18.217c3.197-3.196,8.43-3.196,11.627,0l89.721,89.723C159.143,226.198,161.912,228.968,162.099,229.155z"/>
	</g>
	<g>
		<path fill="none" stroke="#5C4782" stroke-width="3.2886" stroke-miterlimit="10" d="M132.208,258.948l-1.695-9.568
			c-0.222-1.256,0.623-2.103,1.878-1.879l7.287,1.291c1.255,0.224,2.101-0.623,1.879-1.879l-1.29-7.287
			c-0.222-1.256,0.624-2.103,1.879-1.879l7.286,1.291c1.255,0.223,2.101-0.623,1.878-1.879l-1.29-7.287
			c-0.223-1.254,0.623-2.101,1.878-1.877l9.569,1.694"/>
	</g>
	<path fill="#5C4782" d="M167.961,254.009l-10.61,10.609c0,0,14.946,8.549,15.82,5.063
		C174.047,266.196,167.961,254.009,167.961,254.009z"/>
	
		<rect x="35.107" y="152.228" transform="matrix(0.7071 -0.7071 0.7071 0.7071 -92.3997 86.3137)" fill="#5C4782" width="45.767" height="4.93"/>
	
		<rect x="42.86" y="159.977" transform="matrix(0.7071 -0.7071 0.7071 0.7071 -95.6093 94.0663)" fill="#5C4782" width="45.766" height="4.934"/>
	
		<line fill="none" stroke="#5C4782" stroke-width="2.4665" stroke-miterlimit="10" x1="131.724" y1="247.223" x2="55.955" y2="171.454"/>
	
		<line fill="none" stroke="#5C4782" stroke-width="2.4665" stroke-miterlimit="10" x1="141.122" y1="237.825" x2="65.353" y2="162.055"/>
	
		<line fill="none" stroke="#5C4782" stroke-width="2.4665" stroke-miterlimit="10" x1="150.521" y1="228.43" x2="74.751" y2="152.657"/>
</g>
</svg>
