<?xml version="1.0" encoding="utf-8"?>
<!-- Generator: Adobe Illustrator 16.0.0, SVG Export Plug-In . SVG Version: 6.00 Build 0)  -->
<!DOCTYPE svg PUBLIC "-//W3C//DTD SVG 1.1//EN" "http://www.w3.org/Graphics/SVG/1.1/DTD/svg11.dtd">
<svg version="1.1" id="Layer_1" xmlns="http://www.w3.org/2000/svg" xmlns:xlink="http://www.w3.org/1999/xlink" x="0px" y="0px"
	 width="344.688px" height="285px" viewBox="0 -13.75 344.688 285" enable-background="new 0 -13.75 344.688 285"
	 xml:space="preserve">
<line fill="none" stroke="#5C4782" stroke-width="3" stroke-miterlimit="10" x1="85.534" y1="152.496" x2="90.868" y2="164.496"/>
<line fill="none" stroke="#5C4782" stroke-width="3" stroke-miterlimit="10" x1="74.868" y1="163.496" x2="87.868" y2="172.498"/>
<line fill="none" stroke="#5C4782" stroke-width="3" stroke-miterlimit="10" x1="69.201" y1="179.164" x2="85.201" y2="184.83"/>
<line fill="none" stroke="#5C4782" stroke-width="3" stroke-miterlimit="10" x1="81.868" y1="200.498" x2="67.201" y2="193.164"/>
<line fill="none" stroke="#5C4782" stroke-width="3" stroke-miterlimit="10" x1="68.201" y1="213.83" x2="59.534" y2="198.83"/>
<polygon fill="#5C4782" points="63.417,235.207 73.297,222.302 57.834,192.023 41.589,192.458 "/>
<g>
	<path fill="none" stroke="#5C4782" stroke-width="8" stroke-miterlimit="10" d="M101.867,80.93c0-9.812,8.028-17.841,17.84-17.841
		h90.986c9.812,0,17.841,8.028,17.841,17.841v7.73c0,9.812,0,25.869,0,35.682v46.389c0,9.812-8.028,17.844-17.841,17.844h-90.986
		c-9.812,0-17.84-8.029-17.84-17.844V80.93z"/>
</g>
<g>
	<path fill="none" stroke="#5C4782" stroke-width="3" stroke-miterlimit="10" d="M115.951,87.04c0-5.5,4.5-10,10-10h78.5
		c5.5,0,10,4.5,10,10v13.76c0,5.5,0,14.5,0,20v43.819c0,5.5-4.5,10-10,10h-78.5c-5.5,0-10-4.5-10-10V87.04z"/>
</g>
<g>
	<path fill="#5C4782" d="M157.504,139.725c-0.125-0.615-0.217-1.229-0.278-1.851c-0.062-0.615-0.092-1.263-0.092-1.94
		c0-2.463,0.554-4.816,1.664-7.066c1.108-2.25,2.987-4.36,5.638-6.333l4.437-3.326c2.648-1.97,3.975-4.405,3.975-7.302
		c0-1.047-0.185-2.08-0.555-3.096c-0.37-1.019-0.941-1.91-1.71-2.681c-0.77-0.771-1.741-1.389-2.911-1.851
		c-1.171-0.463-2.528-0.694-4.067-0.694c-1.664,0-3.083,0.312-4.252,0.926c-1.171,0.615-2.142,1.402-2.912,2.357
		c-0.771,0.957-1.34,2.063-1.71,3.327c-0.369,1.263-0.555,2.541-0.555,3.837c0,1.229,0.123,2.217,0.37,2.956l-11.646-0.461
		c-0.185-0.68-0.309-1.373-0.37-2.08c-0.064-0.706-0.093-1.401-0.093-2.079c0-2.466,0.463-4.884,1.387-7.257
		c0.924-2.373,2.279-4.467,4.067-6.286c1.787-1.816,3.989-3.279,6.609-4.392c2.619-1.108,5.652-1.664,9.104-1.664
		c3.573,0,6.716,0.525,9.427,1.572c2.711,1.047,4.992,2.42,6.84,4.113c1.85,1.695,3.234,3.65,4.158,5.869
		c0.925,2.217,1.388,4.5,1.388,6.84c0,3.699-0.832,6.855-2.496,9.477c-1.664,2.616-3.882,4.911-6.655,6.885l-3.789,2.682
		c-1.604,1.17-2.833,2.48-3.698,3.926c-0.863,1.449-1.294,3.129-1.294,5.037v0.56h-9.981V139.725z M155.378,153.126
		c0-2.035,0.708-3.774,2.126-5.224c1.416-1.448,3.143-2.17,5.176-2.17c2.033,0,3.774,0.722,5.223,2.17
		c1.447,1.447,2.171,3.188,2.171,5.224c0,2.031-0.725,3.76-2.171,5.174c-1.449,1.418-3.189,2.13-5.223,2.13
		c-2.034,0-3.76-0.712-5.176-2.13C156.086,156.886,155.378,155.158,155.378,153.126z"/>
</g>
<line fill="none" stroke="#5C4782" stroke-width="3" stroke-miterlimit="10" x1="160.284" y1="200.164" x2="145.034" y2="200.164"/>
<line fill="none" stroke="#5C4782" stroke-width="3" stroke-miterlimit="10" x1="160.284" y1="211.164" x2="145.034" y2="211.164"/>
<line fill="none" stroke="#5C4782" stroke-width="3" stroke-miterlimit="10" x1="160.284" y1="222.164" x2="145.034" y2="222.164"/>
<line fill="none" stroke="#5C4782" stroke-width="3" stroke-miterlimit="10" x1="89.534" y1="111.163" x2="89.534" y2="126.496"/>
<line fill="none" stroke="#5C4782" stroke-width="3" stroke-miterlimit="10" x1="77.534" y1="111.163" x2="77.534" y2="126.496"/>
<line fill="none" stroke="#5C4782" stroke-width="3" stroke-miterlimit="10" x1="65.534" y1="111.163" x2="65.534" y2="126.496"/>
<polygon fill="#5C4782" points="35.201,142.496 49.868,135.496 49.868,101.497 35.201,94.497 "/>
<polygon fill="#5C4782" points="58.367,64.495 73.034,57.495 73.034,23.495 58.367,16.495 "/>
<polygon fill="#5C4782" points="265.035,199.498 250.367,206.498 250.367,240.498 265.035,247.498 "/>
<polygon fill="#5C4782" points="296.201,63.161 281.533,70.161 281.533,104.163 296.201,111.163 "/>
<polygon fill="#5C4782" points="177.034,251.832 170.034,237.164 136.034,237.164 129.034,251.832 "/>
<polygon fill="#5C4782" points="162.7,8.16 169.7,22.829 203.7,22.829 210.7,8.16 "/>
<polygon fill="#5C4782" points="292.396,129.958 291.943,146.205 322.209,161.697 335.124,151.832 "/>
<line fill="none" stroke="#5C4782" stroke-width="3" stroke-miterlimit="10" x1="192.534" y1="49.661" x2="178.034" y2="49.661"/>
<line fill="none" stroke="#5C4782" stroke-width="3" stroke-miterlimit="10" x1="193.034" y1="37.161" x2="178.534" y2="37.161"/>
<line fill="none" stroke="#5C4782" stroke-width="3" stroke-miterlimit="10" x1="152.284" y1="49.411" x2="138.784" y2="50.911"/>
<line fill="none" stroke="#5C4782" stroke-width="3" stroke-miterlimit="10" x1="141.534" y1="35.661" x2="133.784" y2="46.411"/>
<line fill="none" stroke="#5C4782" stroke-width="3" stroke-miterlimit="10" x1="83.784" y1="33.411" x2="83.784" y2="45.911"/>
<line fill="none" stroke="#5C4782" stroke-width="3" stroke-miterlimit="10" x1="97.034" y1="33.411" x2="97.034" y2="45.911"/>
<line fill="none" stroke="#5C4782" stroke-width="3" stroke-miterlimit="10" x1="111.284" y1="33.411" x2="111.284" y2="45.911"/>
<line fill="none" stroke="#5C4782" stroke-width="3" stroke-miterlimit="10" x1="125.534" y1="33.411" x2="125.534" y2="45.911"/>
<line fill="none" stroke="#5C4782" stroke-width="3" stroke-miterlimit="10" x1="241.868" y1="109.163" x2="247.868" y2="119.828"/>
<line fill="none" stroke="#5C4782" stroke-width="3" stroke-miterlimit="10" x1="251.868" y1="96.495" x2="264.288" y2="105.743"/>
<line fill="none" stroke="#5C4782" stroke-width="3" stroke-miterlimit="10" x1="265.868" y1="83.161" x2="273.201" y2="96.829"/>
<line fill="none" stroke="#5C4782" stroke-width="3" stroke-miterlimit="10" x1="246.868" y1="145.494" x2="240.534" y2="156.828"/>
<line fill="none" stroke="#5C4782" stroke-width="3" stroke-miterlimit="10" x1="258.534" y1="155.162" x2="249.201" y2="166.162"/>
<line fill="none" stroke="#5C4782" stroke-width="3" stroke-miterlimit="10" x1="269.201" y1="164.494" x2="265.534" y2="177.164"/>
<line fill="none" stroke="#5C4782" stroke-width="3" stroke-miterlimit="10" x1="282.534" y1="164.828" x2="288.534" y2="178.164"/>
<line fill="none" stroke="#5C4782" stroke-width="3" stroke-miterlimit="10" x1="292.534" y1="159.494" x2="303.201" y2="168.162"/>
<line fill="none" stroke="#5C4782" stroke-width="3" stroke-miterlimit="10" x1="198.201" y1="200.164" x2="184.201" y2="203.496"/>
<line fill="none" stroke="#5C4782" stroke-width="3" stroke-miterlimit="10" x1="203.868" y1="209.83" x2="193.201" y2="219.83"/>
<line fill="none" stroke="#5C4782" stroke-width="3" stroke-miterlimit="10" x1="213.868" y1="215.164" x2="209.201" y2="230.496"/>
<line fill="none" stroke="#5C4782" stroke-width="3" stroke-miterlimit="10" x1="227.868" y1="216.164" x2="227.868" y2="230.496"/>
<line fill="none" stroke="#5C4782" stroke-width="3" stroke-miterlimit="10" x1="245.201" y1="217.164" x2="245.201" y2="230.83"/>
<path fill="#5C4782" d="M287.926,75.544c-1.599-0.278-3.354-0.42-5.218-0.42c-5.599,0-24.685,1.571-35.274,21.792
	c-4.031,7.698-10.705,9.314-15.594,9.314c-0.979,0-1.854-0.066-2.604-0.153l-0.033,5.463c0.796,0.075,1.682,0.126,2.638,0.126
	c9.032,0,16.28-4.343,20.409-12.229c9.174-17.518,25.633-18.878,30.459-18.878c0.534,0,1.061,0.015,1.576,0.043l-1.891,10.828
	c-4.188,0.016-14.381,1.344-20.517,13.051c-8.219,15.688-22.542,18.031-30.349,18.031c-0.904,0-1.69,0.039-2.396,0.088l-0.03,5.45
	c0.726-0.057,1.502-0.103,2.43-0.103c7.273,0,25.26-2.041,35.164-20.944c4.621-8.819,11.867-10.138,15.775-10.138
	c0.965,0,1.605,0.084,1.779,0.109l2.622,0.391l3.729-21.354L287.926,75.544z"/>
<path fill="#5C4782" d="M299.464,144.544l-1.321,2.375c-5.8,10.427-11.971,15.983-18.345,16.521
	c-7.782,0.649-16.106-6.142-21.178-12.474c-9.567-11.952-19.581-14.461-26.298-14.461c-1.176,0-2.342,0.104-3.494,0.261v5.481
	c1.037-0.181,2.197-0.308,3.494-0.308c5.525,0,13.834,2.152,22.055,12.422c2.732,3.414,12.57,14.556,24.379,14.556
	c0.501,0,1.002-0.021,1.5-0.062c7.732-0.648,14.882-6.349,21.275-16.939l8.006,4.453c-8.038,13.432-17.623,20.697-28.516,21.611
	c-11.369,0.965-24.172-5.877-33.791-17.896c-5.315-6.643-12.152-8.033-16.951-8.033c-0.504,0-0.983,0.021-1.451,0.051v5.443
	c0.456-0.034,0.936-0.061,1.451-0.061c5.248,0,9.521,2.018,12.707,5.994c10.186,12.729,23.259,20.022,35.865,20.022
	c0.875,0,1.758-0.035,2.623-0.106c13.43-1.127,24.927-10.125,34.167-26.74l1.321-2.375L299.464,144.544z"/>
<path fill="#5C4782" d="M255.538,215.386l-2.462,0.33l-0.286-2.696c-0.024,0.002-6.513,0.521-36.856-1.039
	c-5.707-0.289-9.646-1.953-12.045-5.086c-3.822-4.992-3.891-13.42-3.365-18.521l-5.438-0.062
	c-0.523,5.562-0.544,15.312,4.488,21.886c3.426,4.475,8.688,6.834,16.083,7.211c21.143,1.084,30.714,1.18,34.819,1.123l1.387,10.338
	c-0.836,0.021-1.902,0.037-3.262,0.037c-5.082,0-15.016-0.199-33.477-1.146c-13.087-0.672-20.188-6.532-23.836-11.331
	c-7.516-9.875-7.62-21.828-6.979-28.23l-5.443-0.062c-0.648,7.377-0.291,20.557,8.099,31.584
	c4.349,5.715,12.716,12.69,27.886,13.471c18.574,0.951,28.605,1.149,33.752,1.149c3.315,0,5.514-0.077,6.711-0.239l2.688-0.365
	L255.538,215.386z"/>
<polygon fill="#5C4782" points="157.757,189.253 157.757,235.746 147.392,235.746 147.392,189.253 141.957,189.253 141.957,241.182 
	163.193,241.182 163.193,189.253 "/>
<g>
	<path fill="#5C4782" d="M102.579,161.166c-3.772,0.068-9.942,0.725-13.858,3.932c-3.235,2.648-4.872,6.734-5.002,12.484
		c-0.331,14.582-4.534,24.771-12.848,31.146c-3.066,2.351-6.648,4.179-10.917,5.537l2.299,4.963
		c4.592-1.526,8.511-3.567,11.926-6.188c9.706-7.438,14.604-19,14.975-35.336c0.093-4.065,1.078-6.815,3.012-8.404
		c1.964-1.606,5.828-2.59,10.414-2.688L102.579,161.166L102.579,161.166z"/>
	<path fill="#5C4782" d="M72.849,177.335c0.256-11.256,5.074-17.481,9.071-20.724c6.584-5.34,14.979-6.288,20.658-6.198v-5.437
		c-0.219-0.002-0.428-0.012-0.654-0.012c-6.512,0-15.863,1.287-23.428,7.424c-4.888,3.965-10.779,11.486-11.082,24.82
		c-0.299,13.145-3.751,19.449-14.371,22.137l2.282,4.926C67.741,200.757,72.5,192.675,72.849,177.335z"/>
</g>
<polygon fill="#5C4782" points="101.245,124.309 52.312,124.309 52.312,113.436 101.245,113.436 101.245,108 46.876,108 
	46.876,129.744 101.245,129.744 "/>
<path fill="#5C4782" d="M134.868,51.337c1.778,2.224,2.074,7.944,1.869,12.416h5.425c0.242-5.192-0.126-12.156-3.047-15.81
	c-2.003-2.508-5.108-3.727-9.492-3.727H77.377v-9.291h52.246c9.107,0,14.156,3.95,16.787,7.264
	c5.224,6.579,5.429,15.743,4.883,21.563h5.438c0.546-6.757,0.106-17.173-6.064-24.944c-3.375-4.251-9.766-9.318-21.043-9.318H71.941
	v20.162h57.681C133.523,49.652,134.5,50.876,134.868,51.337z"/>
<polygon fill="#5C4782" points="181.753,62.669 181.753,27.84 191.043,27.84 191.043,62.669 196.479,62.669 196.479,22.404 
	176.316,22.404 176.316,62.669 "/>
</svg>
