<?xml version="1.0" encoding="utf-8"?>
<!-- Generator: Adobe Illustrator 16.0.0, SVG Export Plug-In . SVG Version: 6.00 Build 0)  -->
<!DOCTYPE svg PUBLIC "-//W3C//DTD SVG 1.1//EN" "http://www.w3.org/Graphics/SVG/1.1/DTD/svg11.dtd">
<svg version="1.1" id="Layer_1" xmlns="http://www.w3.org/2000/svg" xmlns:xlink="http://www.w3.org/1999/xlink" x="0px" y="0px"
	 width="320.844px" height="323.61px" viewBox="0 0 320.844 323.61" enable-background="new 0 0 320.844 323.61"
	 xml:space="preserve">
<g>
	<path fill="#5D4883" d="M285.992,159.757c0,0-0.844-0.229-2.426-0.656c-1.59-0.41-3.918-1.018-6.893-1.742
		c-2.976-0.714-6.598-1.546-10.771-2.357c-4.164-0.838-8.881-1.694-14.03-2.288c-2.573-0.297-5.256-0.51-8.002-0.572
		c-2.739-0.046-5.569,0.04-8.265,0.525c-1.301,0.297-2.651,0.606-3.691,1.188c-0.301,0.11-0.493,0.3-0.74,0.443l-0.178,0.113
		l-0.089,0.056l-0.046,0.028c-0.094,0.07,0.08-0.067,0.041-0.034l-0.451,0.375l-0.906,0.752c-0.297,0.25-0.637,0.509-0.837,0.744
		c-0.927,0.921-1.901,1.961-2.64,3.111c-0.808,1.116-1.303,2.357-1.683,3.612c-0.714,2.549-0.393,5.269,0.554,8.241l0.377,1.182
		l0.203,0.645c-0.043-0.123,0.135,0.389-0.092-0.256l0.032,0.073l0.063,0.146l0.129,0.293c0.039,0.074,0.098,0.248,0.119,0.238
		c0.02-0.013,0.032-0.025,0.041-0.035c0.035-0.008-0.035-0.056,0.033,0.01c0.092,0.076,0.182,0.156,0.266,0.24
		c0.076,0.082,0.17,0.168,0.31,0.254c0.937,0.705,2.312,1.396,3.781,1.945c2.931,1.141,6.217,1.98,9.532,2.703
		c3.33,0.71,6.726,1.322,10.14,1.889c3.438,0.56,6.813,1.017,10.335,1.514c3.562,0.509,7.068,1.186,10.473,1.93
		c3.411,0.73,6.747,1.508,9.976,2.146c3.215,0.627,6.37,1.131,9.109,1.076c1.364-0.031,2.589-0.232,3.563-0.625
		c0.979-0.392,1.737-0.951,2.406-1.76c1.349-1.609,2.169-4.236,2.607-6.906l0.154-0.896l0.129-1.11
		c0.114-0.795,0.109-1.346,0.144-1.949c0.054-0.582-0.012-1.254-0.007-1.871c-0.037-0.625-0.101-1.24-0.166-1.85
		c-0.35-2.424-1.04-4.689-2.043-6.73c-1.026-2.022-2.32-3.834-3.806-5.355c-1.487-1.518-3.128-2.77-4.801-3.755
		c-3.364-1.978-6.794-2.812-9.638-3.15c-2.867-0.355-5.209-0.136-6.822,0.082c-0.405,0.063-0.764,0.12-1.073,0.167
		c-0.31,0.066-0.567,0.122-0.776,0.167c-0.429,0.085-0.65,0.129-0.65,0.129s0.18-0.137,0.525-0.401
		c0.346-0.277,0.879-0.65,1.631-1.063c1.486-0.827,3.894-1.866,7.187-2.144c3.274-0.326,7.388,0.164,11.71,1.991
		c2.164,0.9,4.36,2.178,6.417,3.897c2.052,1.711,4.023,3.829,5.555,6.411c1.526,2.574,2.665,5.56,3.195,8.744
		c0.116,0.795,0.222,1.603,0.294,2.415c0.028,0.824,0.123,1.605,0.086,2.486c-0.017,0.861-0.029,1.789-0.109,2.471l-0.096,1.115
		l-0.03,0.261l-0.023,0.151l-0.047,0.306l-0.096,0.61c-0.235,1.629-0.64,3.319-1.209,5.043c-0.584,1.72-1.45,3.517-2.77,5.176
		c-1.307,1.662-3.182,3.089-5.203,3.902c-2.021,0.832-4.076,1.127-5.991,1.203c-3.85,0.127-7.34-0.506-10.758-1.172
		c-3.413-0.686-6.75-1.473-10.092-2.197c-3.348-0.72-6.674-1.406-10.021-1.961c-3.391-0.545-6.959-1.097-10.438-1.729
		c-3.501-0.634-6.998-1.358-10.479-2.222c-3.484-0.873-6.949-1.846-10.42-3.312c-1.73-0.729-3.479-1.58-5.242-2.983
		c-0.433-0.306-0.883-0.826-1.304-1.246c-0.224-0.244-0.508-0.666-0.729-1.014c-0.114-0.184-0.225-0.369-0.328-0.557
		c-0.102-0.184-0.098-0.221-0.15-0.338l-0.119-0.297l-0.061-0.146l-0.03-0.074c-0.241-0.695-0.079-0.234-0.138-0.408l-0.16-0.576
		l-0.35-1.256c-0.989-3.474-1.438-7.693-0.186-11.489c0.62-1.865,1.475-3.648,2.608-5.124c1.073-1.528,2.349-2.796,3.745-4.019
		c0.353-0.335,0.656-0.539,0.972-0.782l0.94-0.709l0.468-0.354c-0.005,0.003,0.216-0.158,0.161-0.114l0.08-0.048l0.16-0.097
		l0.321-0.191c0.429-0.239,0.856-0.534,1.291-0.686l1.294-0.527l1.276-0.365c0.85-0.25,1.674-0.35,2.5-0.506
		c3.271-0.438,6.342-0.352,9.264-0.117c2.919,0.242,5.693,0.634,8.327,1.1c10.531,1.876,18.951,4.531,24.822,6.422
		c2.935,0.95,5.218,1.758,6.769,2.33c1.55,0.579,2.376,0.888,2.376,0.888L285.992,159.757z"/>
</g>
<g>
	<path fill="#5D4883" d="M292.371,191.731c-0.01,0.001-0.037,0.041-0.125,0.131c-0.084,0.089-0.209,0.22-0.375,0.394
		c-0.32,0.34-0.771,0.822-1.249,1.422c-0.958,1.234-2.067,2.693-3.063,5.229c-0.494,1.266-0.951,2.834-1.056,4.651
		c-0.015,0.467-0.028,0.897-0.01,1.422c0.017,0.519,0.032,1.046,0.05,1.584c0.031,1.085,0.062,2.209,0.098,3.371
		c0.051,2.342,0.062,4.868-0.104,7.599c-0.184,2.721-0.546,5.676-1.604,8.742c-1.037,3.038-2.863,6.243-5.66,8.669
		c-1.375,1.22-2.938,2.247-4.59,3.056c-0.41,0.217-0.828,0.399-1.252,0.578c-0.421,0.185-0.846,0.362-1.275,0.508l-0.646,0.233
		l-0.162,0.058l-0.08,0.029c-0.093,0.028,0.09-0.021-0.228,0.071l-0.292,0.079c-0.294,0.096-0.996,0.238-1.607,0.339
		c-4.266,0.526-7.844-0.511-11.312-1.614c-3.448-1.181-6.743-2.671-10.033-4.238c-13.113-6.314-25.928-14.627-38.505-23.17
		l-4.688-3.197l-2.305-1.543l-1.188-0.754l-0.148-0.096l-0.197-0.142l-0.396-0.288c-0.28-0.199-0.462-0.371-0.696-0.559
		c-1.74-1.496-3.102-3.229-4.191-5.104c-1.086-1.875-1.894-3.9-2.364-6.029c-0.468-2.125-0.597-4.359-0.276-6.558
		c0.303-2.2,1.083-4.33,2.18-6.214c0.574-0.924,1.185-1.823,1.891-2.615c0.337-0.415,0.71-0.783,1.076-1.16l0.138-0.141l0.19-0.186
		l0.252-0.228l0.504-0.452c0.387-0.324,0.842-0.699,1.261-1.011c0.431-0.3,0.842-0.614,1.301-0.882
		c0.882-0.572,1.856-1.028,2.839-1.438c2-0.76,4.153-1.148,6.209-1.086c2.059,0.042,4.017,0.417,5.824,0.973
		c3.625,1.119,6.74,2.823,9.607,4.603c2.871,1.782,5.48,3.696,7.957,5.586c1.23,0.951,2.428,1.897,3.588,2.841
		c0.57,0.463,1.136,0.922,1.695,1.376c0.563,0.445,1.135,0.917,1.67,1.308c2.16,1.646,4.367,3.127,6.519,4.354
		c2.164,1.219,4.281,2.234,6.329,3.062c4.104,1.633,7.934,2.545,11.168,3.547c3.24,0.984,5.75,2.234,7.266,3.307
		c0.77,0.523,1.318,0.977,1.674,1.295c0.353,0.322,0.533,0.489,0.533,0.489l-0.543,0.84c0,0-0.222-0.082-0.65-0.239
		c-0.422-0.166-1.053-0.396-1.873-0.662c-1.639-0.562-4.036-1.148-7.234-1.74c-3.18-0.627-7.289-1.262-11.828-2.918
		c-4.56-1.604-9.337-4.262-14.09-7.73c-2.338-1.729-4.625-3.562-7.07-5.311c-2.445-1.752-5.006-3.508-7.716-5.078
		c-2.702-1.567-5.565-2.988-8.5-3.832c-2.938-0.84-5.886-0.938-8.481,0.148c-0.646,0.295-1.291,0.598-1.901,1.021
		c-0.313,0.185-0.606,0.429-0.912,0.646c-0.294,0.231-0.53,0.434-0.833,0.689l-0.494,0.462l-0.248,0.231
		c-0.072,0.066,0.027-0.026,0,0.002l-0.049,0.051l-0.099,0.104c-0.261,0.275-0.536,0.543-0.767,0.838
		c-0.504,0.563-0.906,1.188-1.298,1.812c-1.485,2.54-1.893,5.604-1.188,8.636c0.674,3.005,2.425,6.001,4.701,7.937
		c3.045,2.043,6.104,4.093,9.162,6.143c6.267,4.212,12.569,8.326,18.891,12.15c6.322,3.808,12.638,7.397,18.938,10.268
		c3.147,1.423,6.314,2.623,9.391,3.484c1.533,0.441,3.046,0.781,4.482,0.979c1.434,0.231,2.792,0.276,3.897,0.154
		c0.188-0.044,0.292-0.017,0.772-0.156l0.293-0.075c-0.271,0.077-0.039,0.01-0.084,0.021l0.062-0.021l0.124-0.041l0.493-0.16
		c0.334-0.099,0.65-0.221,0.963-0.347c0.316-0.12,0.63-0.241,0.923-0.388c1.2-0.549,2.294-1.197,3.254-1.958
		c1.912-1.524,3.333-3.497,4.284-5.763c0.961-2.256,1.505-4.723,1.844-7.143c0.354-2.422,0.459-4.814,0.545-7.086
		c0.064-2.338,0.124-4.527,0.18-6.551c0.08-2.172,0.252-4.252,0.836-6.124c0.572-1.869,1.578-3.462,2.73-4.583
		c1.148-1.135,2.434-1.751,3.493-2.02c1.075-0.265,1.923-0.227,2.484-0.127c0.28,0.045,0.494,0.107,0.639,0.16
		c0.141,0.049,0.231,0.076,0.222,0.077L292.371,191.731z"/>
</g>
<g>
	<path fill="#5D4883" d="M200.021,204.533c0,0-0.103-0.017-0.301-0.049c-0.169-0.021-0.513-0.072-0.938-0.104
		c-0.86-0.065-2.171-0.117-3.757,0.086c-1.565,0.22-3.461,0.646-5.096,1.764c-0.201,0.141-0.406,0.284-0.615,0.43
		c-0.213,0.139-0.373,0.342-0.571,0.508c-0.41,0.32-0.724,0.762-1.075,1.184c-0.193,0.195-0.32,0.459-0.47,0.706l-0.226,0.374
		l-0.117,0.188l-0.059,0.094l-0.029,0.047l-0.016,0.023c-0.034,0.066,0.03-0.064,0.018-0.037c-0.172,0.354-0.347,0.713-0.521,1.076
		c-0.178,0.365-0.361,0.739-0.482,1.051c-0.586,1.287-1.088,2.769-1.434,4.199c-0.344,1.448-0.423,2.887-0.236,4.275
		c0.19,1.39,0.692,2.74,1.514,4.066c0.855,1.313,2.043,2.565,3.386,3.768c1.437,1.172,2.917,2.246,4.702,3.334
		c1.828,1.152,3.533,2.156,5.414,3.242c3.699,2.133,7.518,4.232,11.373,6.268c3.854,2.034,7.74,4.014,11.589,5.896
		c3.846,1.881,7.667,3.658,11.362,5.211c1.832,0.765,3.69,1.5,5.315,1.98l0.589,0.168l0.293,0.086
		c0.037,0.008-0.203-0.043-0.08-0.017l0.045,0.009l0.09,0.018l0.182,0.033l0.361,0.068c0.109,0.02,0.153,0.016,0.232,0.023
		c0.148,0.013,0.258,0.039,0.469,0.043c0.739,0.062,1.541,0.037,2.328-0.028c3.188-0.272,6.243-1.33,8.602-2.718
		c2.371-1.41,4.051-3.182,4.973-4.971c0.941-1.787,1.266-3.566,1.279-5.098c0.044-1.527-0.221-2.792-0.372-3.643
		c-0.21-0.857-0.323-1.315-0.323-1.315l6.667-1.87c0,0,0.147,0.609,0.426,1.753c0.212,1.169,0.569,2.894,0.511,5.22
		c-0.028,2.295-0.533,5.256-2.113,8.211c-1.551,2.97-4.245,5.688-7.549,7.627c-3.325,1.927-7.19,3.248-11.532,3.625
		c-1.093,0.086-2.211,0.123-3.403,0.027c-0.545-0.035-1.47-0.158-1.834-0.242l-0.486-0.097l-0.416-0.116l-0.838-0.236
		c-2.174-0.654-4.08-1.434-6.049-2.254c-3.896-1.649-7.791-3.476-11.711-5.403c-3.918-1.929-7.857-3.948-11.771-6.022
		c-3.912-2.078-7.789-4.222-11.58-6.42c-1.863-1.078-3.852-2.262-5.605-3.375c-1.835-1.121-3.763-2.494-5.503-3.943
		c-1.726-1.541-3.354-3.239-4.66-5.262c-1.28-2.039-2.171-4.392-2.479-6.744c-0.315-2.349-0.125-4.637,0.351-6.644
		c0.491-2.021,1.111-3.797,1.892-5.512c0.188-0.452,0.365-0.81,0.541-1.169c0.178-0.362,0.352-0.721,0.524-1.075l0.054-0.103
		l0.022-0.041l0.046-0.078l0.094-0.158l0.187-0.314l0.375-0.621c0.253-0.408,0.481-0.822,0.801-1.182
		c0.597-0.742,1.172-1.469,1.871-2.055c0.34-0.297,0.649-0.625,1.007-0.875s0.71-0.498,1.057-0.739
		c0.691-0.494,1.435-0.808,2.119-1.185c0.711-0.28,1.396-0.588,2.064-0.785c1.338-0.412,2.58-0.674,3.693-0.801
		c2.232-0.277,3.959-0.199,5.147-0.104c0.601,0.046,1.04,0.108,1.396,0.159c0.328,0.054,0.496,0.082,0.496,0.082L200.021,204.533z"
		/>
</g>
<g>
	<path fill="#5D4883" d="M225.016,250.492c0,0,0.017,0.121,0.051,0.354c0.024,0.214,0.062,0.532,0.109,0.948
		c0.088,0.817,0.176,2.004,0.229,3.521c0.044,1.519,0.037,3.373-0.221,5.547c-0.135,1.089-0.334,2.257-0.676,3.503
		c-0.348,1.239-0.808,2.577-1.609,3.93c-0.789,1.338-1.955,2.729-3.57,3.67l-0.301,0.176l-0.15,0.086l-0.186,0.094l-0.027,0.012
		l-0.057,0.024l-0.453,0.194c-0.307,0.132-0.618,0.264-0.932,0.396c-0.406,0.131-0.816,0.264-1.229,0.396
		c-0.42,0.137-0.832,0.254-1.204,0.316c-3.081,0.689-6.264,0.717-9.466,0.442c-6.392-0.61-12.991-2.716-18.72-6.498
		c-0.701-0.498-1.418-0.965-2.096-1.491c-0.642-0.5-1.263-0.939-1.922-1.494c-1.312-1.064-2.562-2.137-3.745-3.313
		c-2.36-2.33-4.526-4.958-5.929-8.071c-1.377-3.115-1.669-6.814-0.698-9.9c0.165-0.805,0.565-1.475,0.854-2.192
		c0.279-0.731,0.724-1.317,1.097-1.946c0.194-0.307,0.39-0.611,0.582-0.912c0.22-0.273,0.438-0.541,0.653-0.809
		c0.217-0.266,0.432-0.53,0.645-0.791l0.319-0.389l0.079-0.096l0.021-0.025c0.045-0.047-0.073,0.072,0.106-0.111l0.041-0.04
		l0.162-0.159c0.215-0.21,0.428-0.419,0.638-0.625c0.228-0.211,0.375-0.398,0.688-0.629c0.559-0.424,1.104-0.904,1.662-1.229
		c1.088-0.689,2.213-1.237,3.338-1.572c2.25-0.703,4.346-0.697,5.977-0.473c1.641,0.232,2.869,0.638,3.701,0.965
		c0.824,0.326,1.291,0.592,1.347,0.625L191.677,237c0.054,0.035-0.167-0.117-0.729-0.377c-0.554-0.248-1.421-0.602-2.56-0.793
		c-1.136-0.193-2.537-0.238-4.048,0.176c-0.759,0.193-1.53,0.543-2.313,0.998c-0.399,0.215-0.691,0.504-1.068,0.748
		c-0.168,0.092-0.4,0.354-0.607,0.541c-0.213,0.205-0.429,0.41-0.646,0.617l-0.164,0.157l-0.041,0.039
		c0.166-0.17,0.037-0.036,0.068-0.069l-0.016,0.021l-0.064,0.079l-0.264,0.318c-0.179,0.213-0.357,0.428-0.539,0.646
		c-0.183,0.217-0.367,0.436-0.553,0.656c-0.15,0.234-0.304,0.473-0.458,0.711c-0.29,0.486-0.673,0.951-0.864,1.484
		c-0.205,0.524-0.547,1.029-0.645,1.592c-0.139,0.551-0.357,1.102-0.366,1.682c-0.032,0.288-0.065,0.576-0.098,0.867
		c0.001,0.291,0.036,0.587,0.048,0.884c0.041,1.188,0.46,2.386,0.932,3.588c1.101,2.384,2.949,4.649,5.101,6.72
		c1.065,1.043,2.25,2.035,3.429,2.973c0.566,0.475,1.258,0.957,1.885,1.437c0.592,0.456,1.245,0.829,1.862,1.25
		c5.103,3.159,11.159,4.884,16.747,5.229c2.792,0.182,5.492-0.076,7.775-0.702c0.308-0.065,0.547-0.156,0.771-0.245
		c0.233-0.081,0.464-0.161,0.694-0.24c0.277-0.125,0.592-0.289,0.883-0.43l0.441-0.219l0.056-0.026l0.026-0.015
		c0.045-0.021-0.271,0.137-0.132,0.064l0.058-0.042l0.115-0.081c0.618-0.406,1.094-1.021,1.484-1.77
		c0.795-1.504,1.055-3.456,1.145-5.154c0.08-1.727-0.021-3.294-0.152-4.576c-0.129-1.285-0.317-2.291-0.444-2.963
		c-0.067-0.328-0.121-0.58-0.155-0.748c-0.037-0.15-0.055-0.227-0.055-0.227L225.016,250.492z"/>
</g>
<path fill="#5D4883" d="M275.402,123.453c0,0-9.84,4.592-20.881-0.438c0,0,12.899,1.093,18.912-3.061L275.402,123.453z"/>
<path fill="#5D4883" d="M269.863,123.016c0,0,1.529,4.373,0.875,11.37c-0.656,6.997,12.973,15.014,12.973,15.014l-5.686,0.729
	c0,0-11.588-8.309-10.494-15.306c1.093-6.997-2.188-11.37-2.188-11.37L269.863,123.016z"/>
<g>
	<path fill="#5D4883" d="M27.497,158.575c0,0,0.827-0.309,2.376-0.888c1.55-0.572,3.834-1.38,6.769-2.33
		c5.871-1.892,14.292-4.546,24.822-6.422c2.634-0.466,5.407-0.858,8.327-1.1c2.921-0.235,5.992-0.322,9.263,0.117
		c0.826,0.157,1.65,0.257,2.5,0.506l1.277,0.365l1.294,0.527c0.433,0.152,0.861,0.446,1.291,0.686l0.321,0.191l0.161,0.096
		l0.08,0.048c-0.054-0.044,0.166,0.118,0.162,0.115l0.468,0.353l0.94,0.709c0.316,0.243,0.62,0.447,0.971,0.782
		c1.397,1.222,2.672,2.491,3.746,4.019c1.135,1.476,1.989,3.259,2.608,5.124c1.251,3.796,0.804,8.017-0.185,11.489l-0.35,1.256
		l-0.16,0.578c-0.059,0.174,0.104-0.287-0.138,0.408l-0.03,0.073l-0.06,0.147l-0.12,0.297c-0.053,0.117-0.05,0.154-0.15,0.338
		c-0.104,0.188-0.213,0.373-0.329,0.557c-0.222,0.348-0.506,0.77-0.729,1.014c-0.42,0.42-0.871,0.94-1.304,1.246
		c-1.763,1.404-3.511,2.254-5.242,2.983c-3.471,1.466-6.935,2.438-10.419,3.312c-3.481,0.863-6.978,1.588-10.479,2.222
		c-3.478,0.633-7.047,1.187-10.438,1.729c-3.346,0.555-6.673,1.242-10.021,1.961c-3.341,0.725-6.679,1.512-10.092,2.197
		c-3.418,0.668-6.908,1.299-10.758,1.172c-1.916-0.076-3.97-0.371-5.992-1.203c-2.02-0.812-3.895-2.242-5.203-3.902
		c-1.318-1.66-2.185-3.457-2.77-5.176c-0.569-1.723-0.973-3.414-1.209-5.043L8.6,178.517l-0.047-0.305L8.53,178.06l-0.03-0.262
		l-0.096-1.114c-0.08-0.683-0.092-1.61-0.109-2.47c-0.036-0.881,0.059-1.662,0.086-2.487c0.072-0.812,0.178-1.619,0.294-2.415
		c0.53-3.184,1.669-6.169,3.195-8.744c1.532-2.581,3.502-4.7,5.555-6.411c2.057-1.719,4.253-2.997,6.417-3.897
		c4.322-1.827,8.436-2.317,11.71-1.991c3.292,0.278,5.699,1.317,7.186,2.144c0.752,0.413,1.287,0.787,1.631,1.063
		c0.346,0.265,0.525,0.401,0.525,0.401s-0.221-0.044-0.649-0.129c-0.209-0.045-0.469-0.101-0.777-0.167
		c-0.31-0.048-0.668-0.104-1.074-0.167c-1.612-0.218-3.955-0.438-6.821-0.082c-2.845,0.338-6.274,1.172-9.638,3.15
		c-1.673,0.985-3.314,2.237-4.801,3.754c-1.484,1.521-2.778,3.333-3.806,5.355c-1.002,2.041-1.692,4.307-2.042,6.729
		c-0.066,0.61-0.129,1.228-0.167,1.851c0.005,0.617-0.06,1.289-0.007,1.871c0.035,0.604,0.03,1.153,0.144,1.949l0.129,1.111
		L15.539,178c0.439,2.668,1.259,5.297,2.608,6.906c0.669,0.809,1.426,1.367,2.406,1.758c0.976,0.393,2.199,0.594,3.563,0.625
		c2.74,0.055,5.895-0.449,9.111-1.076c3.228-0.639,6.564-1.416,9.976-2.146c3.404-0.744,6.908-1.421,10.472-1.93
		c3.521-0.497,6.897-0.954,10.335-1.514c3.414-0.566,6.809-1.179,10.139-1.889c3.316-0.721,6.603-1.562,9.533-2.703
		c1.47-0.549,2.844-1.24,3.781-1.945c0.14-0.084,0.235-0.172,0.309-0.254c0.085-0.084,0.173-0.162,0.266-0.24
		c0.068-0.065-0.001-0.018,0.034-0.01c0.008,0.01,0.021,0.022,0.041,0.035c0.021,0.01,0.08-0.164,0.118-0.238l0.129-0.293
		l0.064-0.146l0.032-0.073c-0.226,0.645-0.048,0.133-0.092,0.256l0.204-0.645l0.377-1.182c0.945-2.973,1.267-5.692,0.553-8.241
		c-0.379-1.255-0.875-2.496-1.682-3.611c-0.739-1.151-1.713-2.191-2.64-3.111c-0.201-0.235-0.541-0.494-0.837-0.745l-0.906-0.752
		l-0.451-0.375c-0.04-0.033,0.135,0.104,0.04,0.034l-0.045-0.028l-0.089-0.056l-0.178-0.113c-0.247-0.144-0.439-0.333-0.74-0.443
		c-1.04-0.582-2.391-0.891-3.692-1.188c-2.695-0.485-5.524-0.571-8.264-0.525c-2.747,0.062-5.429,0.274-8.002,0.572
		c-5.15,0.594-9.867,1.45-14.031,2.288c-4.174,0.81-7.795,1.643-10.771,2.357c-2.974,0.724-5.303,1.332-6.892,1.742
		c-1.582,0.428-2.426,0.656-2.426,0.656L27.497,158.575z"/>
</g>
<g>
	<path fill="#5D4883" d="M21.631,190.738c-0.01-0.001,0.081-0.029,0.222-0.076c0.144-0.053,0.357-0.115,0.638-0.16
		c0.562-0.101,1.411-0.139,2.485,0.125c1.059,0.27,2.344,0.887,3.493,2.021c1.153,1.121,2.158,2.713,2.731,4.583
		c0.583,1.872,0.756,3.952,0.836,6.124c0.055,2.024,0.115,4.212,0.179,6.552c0.086,2.271,0.191,4.663,0.545,7.086
		c0.339,2.418,0.882,4.885,1.844,7.141c0.951,2.268,2.373,4.24,4.284,5.764c0.96,0.762,2.053,1.409,3.254,1.958
		c0.293,0.146,0.607,0.269,0.923,0.388c0.312,0.127,0.628,0.25,0.962,0.348l0.494,0.16l0.124,0.041l0.062,0.021
		c-0.044-0.013,0.187,0.056-0.083-0.022l0.293,0.076c0.481,0.139,0.583,0.112,0.772,0.156c1.105,0.122,2.463,0.077,3.897-0.154
		c1.437-0.197,2.949-0.537,4.482-0.979c3.077-0.862,6.243-2.062,9.39-3.485c6.3-2.87,12.616-6.46,18.938-10.269
		c6.321-3.823,12.624-7.938,18.89-12.149c3.059-2.05,6.117-4.101,9.163-6.142c2.276-1.936,4.027-4.932,4.702-7.938
		c0.704-3.031,0.297-6.096-1.189-8.635c-0.392-0.625-0.794-1.249-1.298-1.812c-0.231-0.295-0.505-0.562-0.767-0.838l-0.098-0.103
		l-0.049-0.052c-0.027-0.027,0.073,0.066,0-0.002l-0.247-0.23l-0.494-0.462c-0.302-0.256-0.539-0.458-0.833-0.69
		c-0.305-0.217-0.598-0.461-0.912-0.646c-0.61-0.422-1.257-0.726-1.901-1.021c-2.597-1.086-5.544-0.988-8.482-0.148
		c-2.935,0.844-5.799,2.266-8.501,3.833c-2.71,1.569-5.271,3.325-7.716,5.077c-2.445,1.746-4.731,3.58-7.069,5.31
		c-4.753,3.468-9.531,6.126-14.09,7.731c-4.54,1.656-8.648,2.289-11.828,2.916c-3.198,0.592-5.596,1.179-7.234,1.74
		c-0.82,0.267-1.451,0.498-1.873,0.662c-0.429,0.158-0.651,0.24-0.651,0.24l-0.543-0.84c0,0,0.181-0.167,0.533-0.488
		c0.355-0.32,0.905-0.773,1.675-1.296c1.515-1.073,4.025-2.323,7.265-3.307c3.236-1,7.066-1.914,11.168-3.546
		c2.048-0.827,4.165-1.844,6.33-3.062c2.151-1.227,4.358-2.707,6.519-4.354c0.534-0.391,1.105-0.862,1.67-1.309
		c0.56-0.453,1.125-0.912,1.696-1.375c1.159-0.943,2.356-1.891,3.588-2.842c2.475-1.891,5.085-3.803,7.957-5.586
		c2.867-1.779,5.982-3.484,9.607-4.604c1.808-0.555,3.767-0.93,5.825-0.971c2.055-0.062,4.209,0.325,6.208,1.086
		c0.983,0.409,1.958,0.864,2.839,1.438c0.459,0.268,0.87,0.582,1.301,0.881c0.419,0.312,0.875,0.688,1.262,1.012l0.503,0.451
		l0.252,0.227l0.191,0.187l0.138,0.14c0.366,0.377,0.739,0.746,1.076,1.16c0.706,0.793,1.316,1.691,1.89,2.615
		c1.098,1.884,1.878,4.014,2.18,6.214c0.32,2.197,0.192,4.433-0.276,6.558c-0.472,2.129-1.279,4.154-2.364,6.029
		c-1.09,1.874-2.452,3.607-4.192,5.104c-0.234,0.188-0.416,0.359-0.696,0.559l-0.395,0.288l-0.198,0.142l-0.148,0.096l-1.188,0.755
		l-2.305,1.542l-4.688,3.197c-12.578,8.543-25.392,16.855-38.505,23.17c-3.29,1.568-6.584,3.058-10.033,4.238
		c-3.47,1.104-7.047,2.141-11.313,1.614c-0.611-0.101-1.313-0.243-1.607-0.339l-0.292-0.079c-0.318-0.093-0.135-0.042-0.227-0.071
		l-0.081-0.029l-0.162-0.057l-0.646-0.234c-0.43-0.146-0.855-0.323-1.276-0.508c-0.423-0.178-0.842-0.359-1.252-0.578
		c-1.652-0.809-3.214-1.836-4.59-3.055c-2.797-2.427-4.623-5.632-5.659-8.67c-1.057-3.064-1.42-6.021-1.604-8.742
		c-0.165-2.73-0.154-5.256-0.103-7.599c0.033-1.162,0.065-2.286,0.097-3.371c0.017-0.538,0.033-1.065,0.05-1.584
		c0.018-0.524,0.005-0.956-0.01-1.422c-0.105-1.817-0.561-3.386-1.056-4.651c-0.995-2.535-2.104-3.994-3.063-5.228
		c-0.479-0.601-0.929-1.083-1.249-1.423c-0.166-0.174-0.291-0.305-0.375-0.393c-0.088-0.091-0.116-0.131-0.125-0.132L21.631,190.738
		z"/>
</g>
<g>
	<path fill="#5D4883" d="M112.657,198.052c0,0,0.168-0.027,0.495-0.082c0.357-0.051,0.795-0.113,1.396-0.159
		c1.188-0.095,2.916-0.173,5.147,0.104c1.114,0.127,2.356,0.389,3.694,0.801c0.669,0.197,1.354,0.505,2.064,0.785
		c0.685,0.377,1.428,0.69,2.119,1.185c0.347,0.243,0.699,0.489,1.057,0.739s0.667,0.58,1.007,0.875
		c0.699,0.586,1.274,1.312,1.871,2.055c0.32,0.359,0.548,0.773,0.801,1.182l0.374,0.621l0.187,0.314l0.093,0.158l0.046,0.078
		l0.023,0.041l0.053,0.102c0.173,0.354,0.347,0.713,0.524,1.076c0.176,0.359,0.354,0.716,0.542,1.168
		c0.78,1.714,1.4,3.492,1.891,5.512c0.476,2.008,0.666,4.296,0.351,6.645c-0.309,2.353-1.2,4.705-2.48,6.744
		c-1.306,2.022-2.934,3.721-4.66,5.262c-1.74,1.451-3.668,2.822-5.504,3.943c-1.754,1.113-3.742,2.297-5.606,3.375
		c-3.791,2.198-7.668,4.342-11.58,6.418c-3.913,2.076-7.853,4.096-11.771,6.023c-3.92,1.928-7.816,3.754-11.711,5.404
		c-1.968,0.818-3.875,1.599-6.049,2.254l-0.837,0.236l-0.417,0.115l-0.485,0.098c-0.365,0.082-1.289,0.207-1.835,0.242
		c-1.191,0.094-2.311,0.059-3.403-0.027c-4.342-0.379-8.208-1.699-11.533-3.627c-3.304-1.938-5.997-4.656-7.548-7.627
		c-1.58-2.955-2.084-5.916-2.114-8.211c-0.058-2.326,0.299-4.049,0.511-5.219c0.278-1.143,0.426-1.753,0.426-1.753l6.667,1.87
		c0,0-0.112,0.458-0.323,1.314c-0.151,0.852-0.417,2.115-0.373,3.644c0.015,1.53,0.339,3.31,1.28,5.097
		c0.922,1.789,2.603,3.561,4.972,4.971c2.359,1.388,5.414,2.445,8.602,2.718c0.788,0.065,1.588,0.091,2.329,0.028
		c0.21-0.006,0.319-0.031,0.468-0.043c0.08-0.01,0.123-0.004,0.233-0.023l0.361-0.068l0.181-0.033l0.09-0.018l0.045-0.009
		c0.124-0.024-0.117,0.024-0.08,0.017l0.293-0.086l0.589-0.166c1.625-0.482,3.483-1.217,5.316-1.98
		c3.695-1.555,7.517-3.332,11.363-5.213c3.848-1.881,7.733-3.862,11.589-5.896c3.855-2.034,7.674-4.135,11.372-6.269
		c1.881-1.084,3.586-2.088,5.415-3.241c1.785-1.087,3.265-2.162,4.702-3.334c1.343-1.202,2.529-2.454,3.386-3.769
		c0.82-1.324,1.323-2.676,1.514-4.065c0.186-1.39,0.106-2.828-0.236-4.276c-0.346-1.43-0.848-2.912-1.433-4.197
		c-0.122-0.312-0.305-0.687-0.483-1.051c-0.176-0.363-0.35-0.723-0.521-1.078c-0.012-0.025,0.051,0.104,0.017,0.039l-0.015-0.023
		l-0.03-0.047l-0.059-0.094l-0.116-0.188l-0.226-0.374c-0.15-0.247-0.275-0.512-0.47-0.706c-0.353-0.422-0.665-0.862-1.075-1.185
		c-0.198-0.166-0.357-0.369-0.571-0.508c-0.208-0.146-0.414-0.289-0.616-0.43c-1.634-1.117-3.53-1.544-5.095-1.764
		c-1.585-0.205-2.897-0.152-3.757-0.086c-0.426,0.031-0.77,0.08-0.939,0.104c-0.199,0.032-0.301,0.049-0.301,0.049L112.657,198.052z
		"/>
</g>
<g>
	<path fill="#5D4883" d="M95.669,251.796c0,0-0.019,0.078-0.054,0.227c-0.035,0.17-0.088,0.421-0.156,0.749
		c-0.127,0.671-0.315,1.677-0.444,2.963c-0.131,1.282-0.232,2.851-0.153,4.576c0.091,1.698,0.35,3.649,1.145,5.155
		c0.391,0.748,0.866,1.363,1.485,1.77l0.115,0.08l0.058,0.042c0.14,0.072-0.176-0.086-0.132-0.063l0.028,0.014l0.055,0.027
		l0.442,0.219c0.291,0.141,0.605,0.305,0.883,0.43c0.229,0.08,0.461,0.16,0.694,0.24c0.223,0.089,0.463,0.179,0.771,0.244
		c2.283,0.627,4.984,0.885,7.775,0.703c5.588-0.346,11.645-2.069,16.747-5.229c0.617-0.421,1.271-0.794,1.862-1.25
		c0.627-0.479,1.319-0.962,1.885-1.437c1.179-0.937,2.363-1.93,3.429-2.973c2.151-2.068,4-4.336,5.101-6.719
		c0.471-1.201,0.89-2.398,0.931-3.587c0.012-0.296,0.046-0.591,0.048-0.884c-0.033-0.291-0.065-0.58-0.098-0.867
		c-0.008-0.58-0.228-1.131-0.366-1.682c-0.098-0.562-0.44-1.067-0.645-1.592c-0.191-0.533-0.574-0.998-0.864-1.484
		c-0.154-0.238-0.307-0.477-0.458-0.711c-0.186-0.221-0.37-0.439-0.552-0.656c-0.181-0.217-0.361-0.434-0.539-0.646l-0.264-0.318
		l-0.065-0.079l-0.016-0.021c0.033,0.033-0.097-0.102,0.069,0.069l-0.041-0.039l-0.164-0.157c-0.217-0.207-0.433-0.414-0.646-0.617
		c-0.207-0.188-0.44-0.449-0.608-0.541c-0.377-0.244-0.669-0.533-1.069-0.748c-0.782-0.455-1.554-0.805-2.313-0.998
		c-1.511-0.414-2.913-0.369-4.047-0.176c-1.139,0.192-2.006,0.545-2.56,0.793c-0.562,0.26-0.784,0.412-0.729,0.377l-2.443-4.07
		c0.055-0.032,0.522-0.299,1.348-0.625c0.833-0.327,2.061-0.732,3.701-0.965c1.629-0.225,3.726-0.229,5.976,0.473
		c1.125,0.334,2.251,0.883,3.339,1.572c0.556,0.324,1.102,0.804,1.662,1.229c0.312,0.23,0.46,0.418,0.688,0.629
		c0.21,0.206,0.423,0.415,0.638,0.625l0.162,0.159l0.041,0.04c0.18,0.184,0.061,0.064,0.106,0.111l0.02,0.025l0.08,0.096
		l0.318,0.389c0.213,0.261,0.428,0.523,0.645,0.791c0.216,0.268,0.434,0.535,0.653,0.809c0.192,0.301,0.386,0.605,0.582,0.912
		c0.373,0.629,0.817,1.215,1.097,1.946c0.287,0.718,0.689,1.388,0.854,2.192c0.972,3.086,0.68,6.785-0.698,9.9
		c-1.403,3.113-3.568,5.741-5.929,8.071c-1.182,1.178-2.432,2.25-3.745,3.313c-0.659,0.555-1.28,0.993-1.922,1.494
		c-0.678,0.526-1.396,0.993-2.095,1.491c-5.729,3.782-12.329,5.886-18.72,6.498c-3.204,0.274-6.385,0.247-9.466-0.442
		c-0.372-0.062-0.784-0.181-1.204-0.316c-0.413-0.133-0.822-0.266-1.229-0.396c-0.313-0.133-0.624-0.265-0.933-0.396l-0.453-0.194
		l-0.057-0.024l-0.028-0.012l-0.186-0.094l-0.151-0.086l-0.3-0.176c-1.616-0.94-2.782-2.334-3.57-3.67
		c-0.802-1.354-1.262-2.69-1.61-3.93c-0.341-1.246-0.541-2.416-0.676-3.502c-0.257-2.175-0.264-4.029-0.221-5.548
		c0.053-1.519,0.141-2.702,0.229-3.521c0.048-0.416,0.085-0.734,0.11-0.948c0.034-0.233,0.051-0.354,0.051-0.354L95.669,251.796z"/>
</g>
<path fill="#5D4883" d="M38.481,123.453c0,0,9.839,4.592,20.881-0.438c0,0-12.9,1.093-18.913-3.061L38.481,123.453z"/>
<path fill="#5D4883" d="M44.02,123.016c0,0-1.53,4.373-0.875,11.37c0.656,6.997-12.973,15.014-12.973,15.014l5.685,0.729
	c0,0,11.589-8.309,10.496-15.306c-1.093-6.997,2.187-11.37,2.187-11.37L44.02,123.016z"/>
<g>
	<g>
		<path fill="#5D4883" d="M156.805,170.862c3.112-2.177,6.196-4.495,9.164-6.905c3.567-2.893,7.035-5.91,10.407-9.028
			c3.39-3.101,6.651-6.333,9.874-9.601c3.219-3.271,6.361-6.613,9.393-10.046c3.045-3.421,5.988-6.928,8.781-10.54
			c2.814-3.596,5.479-7.302,7.932-11.125c1.263-1.893,2.385-3.859,3.545-5.806c1.067-1.99,2.175-3.965,3.106-6.011
			c1.916-4.065,3.542-8.257,4.577-12.558l0.633-3.239l0.078-0.405c-0.003,0.031,0.021-0.141-0.004,0.057l0.005-0.054l0.011-0.107
			l0.022-0.216l0.087-0.863l0.174-1.726c0.023-0.283,0.071-0.586,0.074-0.853v-0.789l0.007-1.578l0.007-0.789l-0.07-0.811
			l-0.142-1.622c-0.465-4.315-1.735-8.534-3.696-12.42c-3.924-7.778-10.528-14.224-18.349-18.144
			c-3.903-1.969-8.118-3.309-12.405-3.844c-4.283-0.541-8.641-0.271-12.709,0.935c-4.07,1.204-7.779,3.425-10.865,6.336
			c-3.094,2.919-5.533,6.537-7.418,10.455l-2.309,4.802l-2.539-4.792l-0.001-0.002c-0.425-0.818-1.028-1.821-1.622-2.705
			c-0.612-0.902-1.243-1.798-1.931-2.649c-1.357-1.715-2.848-3.32-4.462-4.765c-1.614-1.446-3.352-2.729-5.189-3.812
			c-1.832-1.09-3.765-1.995-5.786-2.607c-2.016-0.611-4.088-1.072-6.207-1.169c-0.525-0.062-1.056-0.072-1.587-0.06
			c-0.531,0.005-1.062-0.01-1.593,0.009c-1.063,0.118-2.131,0.114-3.19,0.335c-4.247,0.658-8.427,2.12-12.396,4.109
			c-1.012,0.45-1.965,1.047-2.944,1.582c-0.985,0.523-1.93,1.132-2.872,1.746l-1.419,0.91l-0.177,0.114l-0.089,0.057
			c0.041-0.03-0.153,0.108,0.08-0.061l-0.043,0.033l-0.348,0.265l-0.696,0.531l-1.393,1.062c-0.466,0.354-0.953,0.707-1.281,1.071
			c-0.731,0.729-1.488,1.417-2.218,2.158l-2.037,2.476c-0.611,0.872-1.153,1.792-1.74,2.682c-0.318,0.432-0.498,0.942-0.742,1.415
			l-0.703,1.438c-1.743,3.906-2.618,8.213-2.79,12.596c-0.158,4.385,0.277,8.858,1.312,13.238c1.006,4.38,2.322,8.735,4.089,12.941
			c1.746,4.208,3.712,8.354,6.011,12.33c2.229,4.014,4.768,7.861,7.393,11.646c1.374,1.851,2.672,3.758,4.126,5.552l2.14,2.721
			l2.238,2.645c2.977,3.531,6.152,6.895,9.412,10.169c3.32,3.214,6.668,6.407,10.246,9.334l2.678,2.199
			c0.89,0.735,1.846,1.39,2.765,2.087c0.932,0.682,1.845,1.389,2.79,2.051l2.88,1.92
			C150.063,167.279,153.396,169.148,156.805,170.862z M155.292,177.854c-1.855-1.532-3.785-2.929-5.646-4.413
			c-1.855-1.492-3.75-2.917-5.574-4.432c-3.692-2.967-7.308-6.006-10.861-9.112c-0.899-0.765-1.778-1.551-2.642-2.354l-2.624-2.375
			c-1.732-1.601-3.41-3.26-5.105-4.9c-3.296-3.375-6.58-6.767-9.643-10.362l-2.305-2.688l-2.233-2.751
			c-1.523-1.807-2.895-3.736-4.34-5.608c-2.772-3.833-5.461-7.741-7.85-11.848c-2.457-4.062-4.632-8.311-6.569-12.681l-1.395-3.309
			c-0.427-1.12-0.819-2.256-1.23-3.385c-0.432-1.121-0.766-2.28-1.103-3.439c-0.325-1.162-0.725-2.301-0.955-3.495
			c-1.183-4.692-1.761-9.593-1.659-14.534c0.115-4.934,1.031-9.955,3.025-14.618c0.558-1.136,1.03-2.321,1.688-3.404
			c0.684-1.067,1.333-2.162,2.058-3.2l2.401-2.945c0.896-0.931,1.86-1.825,2.798-2.728c0.477-0.487,0.938-0.821,1.399-1.175
			l1.388-1.069l0.694-0.534l0.347-0.267l0.214-0.154l0.095-0.062l0.19-0.124l1.524-0.989c1.012-0.665,2.028-1.324,3.102-1.905
			c1.066-0.591,2.097-1.236,3.216-1.747c4.36-2.208,9.083-3.925,14.077-4.673c1.235-0.245,2.516-0.26,3.773-0.384
			c0.634-0.022,1.272-0.007,1.908-0.01c0.637-0.01,1.273,0.006,1.909,0.076c2.552,0.131,5.079,0.683,7.519,1.434
			c4.903,1.522,9.295,4.31,12.985,7.672c1.848,1.688,3.527,3.535,5.048,5.496c0.77,0.974,1.477,1.996,2.164,3.033
			c0.689,1.065,1.297,2.064,1.936,3.325l0.002,0.005l-4.849,0.01c2.183-4.384,5.06-8.518,8.743-11.912
			c3.665-3.395,8.139-6.007,12.965-7.38c4.825-1.383,9.896-1.629,14.773-0.963c4.886,0.668,9.596,2.217,13.945,4.417
			c8.693,4.406,15.991,11.549,20.387,20.315c2.191,4.376,3.617,9.158,4.127,14.042l0.154,1.835l0.072,0.918l-0.007,0.946
			l-0.022,1.892l-0.015,0.945c-0.009,0.312-0.054,0.582-0.08,0.875l-0.18,1.726l-0.091,0.863l-0.021,0.215l-0.011,0.108
			l-0.005,0.054c-0.029,0.233-0.016,0.097-0.024,0.163l-0.086,0.447l-0.694,3.571c-1.117,4.708-2.845,9.189-4.853,13.492
			c-0.981,2.169-2.128,4.237-3.242,6.326c-1.198,2.032-2.366,4.088-3.664,6.051c-2.53,3.972-5.26,7.797-8.134,11.496
			c-2.854,3.717-5.85,7.312-8.943,10.812c-6.16,7.027-12.738,13.647-19.482,20.074c-3.377,3.21-6.778,6.394-10.198,9.565
			c-3.437,3.17-6.835,6.321-10.365,9.51l-2.002,1.81L155.292,177.854z"/>
	</g>
</g>
<g>
	<path fill="#5D4883" d="M180.693,233.699c-0.346-0.435-0.854-1.095-1.491-1.99c-1.263-1.797-3.028-4.543-4.808-8.279
		c-1.756-3.733-3.592-8.459-4.625-14.105c-0.205-1.419-0.524-2.869-0.623-4.389c-0.072-0.758-0.146-1.525-0.222-2.305
		c-0.038-0.78-0.041-1.573-0.063-2.375c-0.01-0.401-0.021-0.805-0.029-1.211c-0.002-0.185-0.016-0.453-0.01-0.567l0.023-0.644
		c0.028-0.861,0.059-1.732,0.088-2.615c0.015-0.898,0.118-1.709,0.172-2.582c0.063-0.86,0.125-1.73,0.248-2.617
		c0.392-3.544,1.063-7.188,2.196-10.794c0.543-1.813,1.249-3.593,2.042-5.396c0.396-0.904,0.831-1.799,1.285-2.752
		c0.446-0.938,0.939-1.938,1.363-3.164c0.099-0.332,0.203-0.643,0.287-0.994c0.07-0.387,0.13-0.779,0.18-1.17
		c0.04-0.5,0.085-0.92,0.152-1.445c0.129-1.018,0.281-2.062,0.453-3.11c0.309-1.915,0.668-3.855,1.062-5.805
		c-1.875,1.554-3.83,3.114-5.859,4.677c-0.019,0.111-0.041,0.225-0.06,0.335c-0.183,1.091-0.347,2.177-0.493,3.281
		c-0.072,0.536-0.145,1.175-0.188,1.735c-0.034,0.135-0.058,0.268-0.07,0.403l-0.161,0.526c-0.271,0.768-0.685,1.666-1.136,2.605
		c-0.439,0.926-0.908,1.893-1.334,2.869c-0.857,1.953-1.641,3.939-2.235,5.936c-1.241,3.982-1.958,7.932-2.37,11.711
		c-0.128,0.939-0.195,1.891-0.262,2.83c-0.059,0.927-0.166,1.892-0.178,2.758c-0.027,0.881-0.057,1.752-0.084,2.613l-0.021,0.644
		c-0.012,0.312,0.007,0.472,0.007,0.712c0.012,0.443,0.021,0.885,0.032,1.324c0.026,0.876,0.033,1.742,0.077,2.595
		c0.083,0.851,0.164,1.688,0.244,2.515c0.109,1.662,0.477,3.236,0.715,4.779c1.184,6.143,3.213,11.23,5.146,15.244
		c1.959,4.016,3.889,6.961,5.291,8.917c0.707,0.976,1.283,1.711,1.684,2.204c0.424,0.499,0.643,0.756,0.643,0.756l3.448-3.033
		c0,0-0.05-0.059-0.149-0.173C180.98,234.048,180.855,233.897,180.693,233.699z"/>
	<path fill="#5D4883" d="M306.099,111.066c0.002,0.042-0.003-0.156-0.009-0.184l-0.014-0.123l-0.03-0.246l-0.065-0.493l-0.074-0.492
		l-0.11-0.426c-0.143-0.576-0.303-1.143-0.506-1.645c-0.185-0.53-0.388-1.039-0.611-1.522c-1.75-3.921-4.018-7.468-6.593-11.009
		c-1.304-1.757-2.702-3.479-4.298-5.157c-0.423-0.428-0.884-0.887-1.313-1.294l-0.614-0.541l-0.389-0.333l-0.5-0.36
		c-1.356-0.901-2.647-1.241-3.894-1.532c-2.491-0.528-4.857-0.587-7.227-0.571c-2.36,0.039-4.707,0.211-7.052,0.466
		c-2.345,0.257-4.69,0.589-7.043,1.008c-1.177,0.215-2.353,0.449-3.546,0.719l-0.916,0.216l-0.441,0.109l-0.356,0.055
		c-0.489,0.06-0.922,0.193-1.459,0.216l-1.618,0.067c-0.552,0.007-1.128-0.034-1.693-0.037c-1.129-0.007-2.313-0.121-3.483-0.188
		c-1.198-0.093-2.398-0.187-3.601-0.281c-1.147-0.089-2.632-0.182-3.826-0.166l-0.908,0.025l-0.227,0.006
		c0.045-0.001-0.184,0.001-0.236,0.014l-0.187,0.03c-0.229,0.042-0.544,0.094-0.688,0.151c-0.737,0.222-1.33,0.468-1.92,0.727
		c-1.176,0.513-2.282,1.063-3.387,1.627c-2.213,1.104-4.371,2.279-6.543,3.435c-2.955,1.615-5.922,3.237-8.887,4.857
		c-0.546,1.532-1.203,3.223-1.99,5.055c4.1-2.43,8.235-4.802,12.428-7.005c2.146-1.146,4.322-2.23,6.49-3.258
		c1.088-0.5,2.182-0.987,3.25-1.399c0.529-0.21,1.073-0.397,1.5-0.505c0.143-0.047,0.135-0.015,0.201-0.036l0.027-0.007l0,0
		l0.227,0.003l0.908,0.013c0.632-0.012,1.132,0.08,1.689,0.12c0.526,0.043,1.107,0.111,1.707,0.188
		c1.193,0.149,2.385,0.298,3.572,0.446c2.43,0.266,4.848,0.576,7.486,0.435c0.648-0.013,1.375-0.164,2.057-0.251l0.52-0.08
		l0.42-0.093l0.811-0.168c1.111-0.221,2.244-0.417,3.375-0.593c2.262-0.357,4.521-0.662,6.76-0.875
		c2.238-0.216,4.457-0.35,6.623-0.359c2.149,0.004,4.297,0.114,6.145,0.538c0.902,0.207,1.771,0.513,2.232,0.857l0.166,0.118
		c0.002,0,0-0.001,0,0c0.002,0.001,0,0,0.002,0.001l0.076,0.068l0.151,0.137l0.608,0.548l0.991,1.011
		c1.378,1.477,2.66,3.105,3.862,4.747c2.405,3.271,4.58,6.699,6.073,10.04c0.196,0.418,0.359,0.828,0.499,1.229
		c0.168,0.413,0.271,0.791,0.376,1.16l0.084,0.279l0.032,0.23c0.019,0.125,0.062,0.363,0.074,0.395
		c0.016,0.478,0.042,1.002,0.016,1.338c-0.047,1.574-0.34,3.328-0.829,4.843c-0.491,1.539-1.19,2.938-2.075,4.076
		c-0.888,1.138-1.949,2.005-3.125,2.62c-1.206,0.56-2.53,0.848-3.888,0.922l-0.126,0.013l-0.062,0.006
		c-0.087,0.002,0.05,0.006,0.007,0.004L290.888,125l-0.59-0.009c-0.387-0.009-0.794-0.004-1.155-0.024
		c-0.687-0.073-1.351-0.07-2.039-0.172c-5.535-0.693-10.093-2.999-12.858-5.877c-2.798-2.889-3.863-6.083-4.308-8.231
		c-0.309-1.076-0.438-1.937-0.631-2.519c-0.173-0.584-0.316-0.896-0.316-0.896s-0.123,0.302-0.256,0.908
		c-0.115,0.604-0.342,1.523-0.205,2.715c0.177,2.345,0.955,6.005,3.796,9.698c2.841,3.646,7.839,6.879,14.157,8.086
		c0.783,0.171,1.645,0.259,2.49,0.378c0.407,0.039,0.779,0.049,1.177,0.076l0.59,0.034l0.296,0.017
		c0.007,0.002,0.193,0.005,0.156,0.002l0.086-0.003l0.171-0.007c1.821-0.015,3.763-0.322,5.646-1.113
		c1.862-0.83,3.56-2.155,4.861-3.781c1.314-1.621,2.273-3.489,2.945-5.444c0.668-1.984,1.068-3.965,1.186-6.222
		C306.123,111.995,306.103,111.555,306.099,111.066z"/>
</g>
<g>
	<path fill="#5D4883" d="M89.804,96.967c-2.214-1.21-4.431-2.422-6.638-3.628c-2.173-1.156-4.332-2.331-6.544-3.435
		c-1.104-0.563-2.209-1.114-3.387-1.627c-0.59-0.259-1.182-0.505-1.92-0.727c-0.144-0.057-0.458-0.108-0.688-0.15l-0.187-0.03
		c-0.052-0.013-0.281-0.015-0.235-0.014l-0.227-0.006l-0.908-0.025c-1.194-0.016-2.678,0.077-3.826,0.166
		c-1.203,0.094-2.403,0.188-3.601,0.281c-1.17,0.066-2.355,0.18-3.484,0.188c-0.565,0.003-1.141,0.044-1.693,0.037l-1.618-0.067
		c-0.537-0.023-0.97-0.156-1.459-0.216l-0.357-0.055l-0.441-0.109l-0.916-0.216c-1.193-0.27-2.37-0.504-3.546-0.719
		c-2.353-0.419-4.698-0.751-7.043-1.008c-2.346-0.254-4.691-0.427-7.052-0.466c-2.368-0.016-4.734,0.043-7.226,0.571
		c-1.246,0.292-2.537,0.631-3.894,1.532l-0.5,0.36l-0.388,0.333l-0.615,0.541c-0.43,0.407-0.891,0.866-1.313,1.294
		c-1.597,1.677-2.994,3.4-4.298,5.157c-2.576,3.541-4.843,7.087-6.593,11.009c-0.224,0.484-0.427,0.992-0.611,1.522
		c-0.203,0.501-0.363,1.068-0.506,1.645l-0.11,0.426l-0.074,0.492l-0.066,0.493l-0.03,0.246l-0.014,0.123
		c-0.006,0.027-0.011,0.227-0.009,0.184c-0.003,0.489-0.024,0.929,0.016,1.551c0.117,2.256,0.518,4.238,1.186,6.221
		c0.671,1.956,1.63,3.824,2.945,5.445c1.303,1.625,2.999,2.951,4.861,3.781c1.882,0.791,3.823,1.098,5.646,1.113l0.171,0.007
		l0.086,0.003c-0.038,0.003,0.148,0,0.156-0.002l0.296-0.017l0.589-0.034c0.396-0.026,0.769-0.037,1.177-0.076
		c0.845-0.119,1.706-0.208,2.49-0.378c6.317-1.207,11.316-4.44,14.157-8.086c2.841-3.693,3.619-7.354,3.795-9.698
		c0.138-1.192-0.089-2.112-0.205-2.715c-0.132-0.606-0.255-0.908-0.255-0.908s-0.144,0.312-0.317,0.896
		c-0.192,0.583-0.322,1.443-0.631,2.519c-0.444,2.148-1.509,5.342-4.307,8.231c-2.767,2.878-7.323,5.184-12.858,5.877
		c-0.688,0.102-1.353,0.099-2.04,0.172c-0.361,0.021-0.769,0.016-1.155,0.024L23,125.004l-0.296,0.005
		c-0.043,0.001,0.094-0.002,0.007-0.004l-0.062-0.006l-0.126-0.013c-1.358-0.074-2.681-0.362-3.888-0.922
		c-1.176-0.615-2.237-1.482-3.124-2.62c-0.885-1.137-1.585-2.537-2.075-4.076c-0.489-1.515-0.782-3.27-0.829-4.843
		c-0.028-0.336,0-0.86,0.015-1.338c0-0.008,0-0.007,0-0.012c0,0.014,0,0.027,0.002,0.015l0.012-0.057l0.022-0.114l0.039-0.228
		l0.032-0.229l0.084-0.279c0.105-0.369,0.208-0.747,0.376-1.16c0.139-0.401,0.302-0.811,0.499-1.229
		c1.494-3.341,3.668-6.769,6.073-10.04c1.202-1.642,2.484-3.27,3.862-4.747l0.992-1.011l0.608-0.548l0.152-0.137l0.076-0.068
		c0.001-0.001,0,0,0.001-0.001c0,0-0.001,0.001,0,0l0.167-0.118c0.461-0.344,1.33-0.65,2.232-0.857
		c1.848-0.424,3.995-0.533,6.145-0.538c2.165,0.009,4.384,0.143,6.622,0.359c2.238,0.213,4.498,0.518,6.76,0.875
		c1.13,0.177,2.263,0.372,3.375,0.593l0.811,0.168l0.42,0.093l0.519,0.08c0.682,0.088,1.409,0.239,2.057,0.251
		c2.639,0.141,5.056-0.169,7.486-0.435c1.188-0.148,2.379-0.297,3.572-0.446c0.6-0.077,1.181-0.145,1.708-0.188
		c0.558-0.04,1.057-0.132,1.689-0.12l0.908-0.013l0.227-0.003l0,0l0.027,0.007c0.066,0.021,0.059-0.011,0.201,0.036
		c0.428,0.108,0.971,0.295,1.5,0.505c1.068,0.412,2.164,0.899,3.251,1.399c2.167,1.028,4.343,2.112,6.49,3.258
		c3.679,1.934,7.312,4,10.919,6.118C91.46,100.307,90.546,98.486,89.804,96.967z"/>
	<path fill="#5D4883" d="M149.938,197.667c-0.028-0.861-0.056-1.732-0.084-2.615c-0.011-0.865-0.12-1.83-0.177-2.756
		c-0.067-0.939-0.134-1.889-0.262-2.83c-0.412-3.779-1.127-7.729-2.37-11.711c-0.595-1.994-1.377-3.981-2.235-5.935
		c-0.426-0.978-0.895-1.942-1.333-2.87c-0.453-0.939-0.865-1.836-1.137-2.604c-0.049-0.175-0.12-0.365-0.16-0.525
		c-0.013-0.136-0.036-0.269-0.07-0.403c-0.029-0.365-0.071-0.756-0.116-1.137c-1.919-1.361-3.798-2.802-5.634-4.312
		c0.069,0.408,0.146,0.82,0.212,1.227c0.171,1.049,0.323,2.092,0.453,3.11c0.067,0.524,0.113,0.946,0.153,1.444
		c0.049,0.392,0.109,0.783,0.178,1.17c0.084,0.353,0.189,0.664,0.288,0.996c0.423,1.226,0.917,2.226,1.363,3.164
		c0.454,0.953,0.889,1.848,1.285,2.752c0.793,1.801,1.5,3.582,2.042,5.396c1.133,3.606,1.806,7.249,2.196,10.794
		c0.124,0.887,0.184,1.756,0.248,2.617c0.054,0.874,0.158,1.684,0.172,2.583c0.03,0.881,0.06,1.752,0.089,2.612l0.022,0.645
		c0.007,0.115-0.007,0.385-0.009,0.566c-0.01,0.408-0.02,0.812-0.029,1.213c-0.023,0.802-0.026,1.596-0.063,2.375
		c-0.075,0.779-0.149,1.548-0.223,2.305c-0.097,1.521-0.417,2.971-0.622,4.389c-1.032,5.648-2.868,10.373-4.625,14.106
		c-1.78,3.735-3.544,6.483-4.808,8.278c-0.637,0.896-1.145,1.557-1.491,1.99c-0.164,0.199-0.288,0.35-0.371,0.451
		c-0.099,0.114-0.149,0.172-0.149,0.172l3.448,3.034c0,0,0.219-0.257,0.643-0.756c0.401-0.493,0.977-1.228,1.684-2.204
		c1.403-1.956,3.332-4.902,5.291-8.917c1.934-4.013,3.964-9.103,5.147-15.243c0.239-1.543,0.604-3.119,0.714-4.779
		c0.08-0.828,0.162-1.666,0.244-2.516c0.044-0.854,0.051-1.719,0.077-2.595c0.011-0.438,0.021-0.88,0.032-1.324
		c0.001-0.241,0.019-0.399,0.007-0.713L149.938,197.667z"/>
</g>
</svg>
