<?xml version="1.0" encoding="utf-8"?>
<!-- Generator: Adobe Illustrator 16.0.0, SVG Export Plug-In . SVG Version: 6.00 Build 0)  -->
<!DOCTYPE svg PUBLIC "-//W3C//DTD SVG 1.1//EN" "http://www.w3.org/Graphics/SVG/1.1/DTD/svg11.dtd">
<svg version="1.1" id="Layer_1" xmlns="http://www.w3.org/2000/svg" xmlns:xlink="http://www.w3.org/1999/xlink" x="0px" y="0px"
	 width="279px" height="206px" viewBox="0 49.5 279 206" enable-background="new 0 49.5 279 206" xml:space="preserve">
<path fill="none" stroke="#5D4883" stroke-width="3.1736" stroke-miterlimit="10" d="M220.172,162.124
	c-34.115-0.794-40.066-10.71-51.967-10.71s-12.424,7.52-12.424,7.52c-7.686,35.59-17.823,52.893-30.996,52.893
	c-0.758,0-1.527-0.062-2.285-0.184c-4.411-0.707-7.903-3.383-9.833-7.539c-4.406-9.487-0.356-25.834,11.111-44.847
	c0,0,5.153-5.065-3.972-8.239c-9.124-3.174-14.677,11.107-24.991,10.314"/>
<circle fill="none" stroke="#5D4883" stroke-width="5.5537" stroke-miterlimit="10" cx="66.519" cy="129.464" r="41.521"/>
<path fill="#5D4883" d="M195.794,57.853H89.858c-15.51,0-28.126,12.617-28.126,28.126v2.246c1.571-0.181,3.167-0.283,4.787-0.283
	c0.199,0,0.395,0.013,0.593,0.015v-1.978c0-12.543,10.204-22.747,22.747-22.747h105.936c12.543,0,22.747,10.204,22.747,22.747
	v134.666c0,12.541-10.204,22.746-22.747,22.746H89.858c-12.543,0-22.747-10.205-22.747-22.746V170.97
	c-0.198,0.003-0.394,0.015-0.593,0.015c-1.62,0-3.216-0.102-4.788-0.283v49.943c0,15.508,12.617,28.127,28.126,28.127h105.937
	c15.509,0,28.125-12.619,28.125-28.127V85.979C223.921,70.47,211.303,57.853,195.794,57.853z"/>
<g>
	<path fill="#5D4883" d="M61.434,139.271c-0.088-0.432-0.152-0.865-0.195-1.297c-0.044-0.433-0.065-0.885-0.065-1.363
		c0-1.728,0.389-3.381,1.167-4.959c0.778-1.577,2.095-3.058,3.955-4.44l3.111-2.333c1.858-1.382,2.788-3.089,2.788-5.121
		c0-0.734-0.13-1.46-0.389-2.171c-0.26-0.713-0.66-1.339-1.2-1.879c-0.541-0.541-1.222-0.975-2.042-1.297
		c-0.821-0.325-1.772-0.487-2.852-0.487c-1.167,0-2.162,0.217-2.982,0.649c-0.821,0.431-1.502,0.983-2.042,1.653
		c-0.542,0.671-0.94,1.447-1.2,2.333c-0.259,0.885-0.389,1.782-0.389,2.69c0,0.864,0.085,1.556,0.259,2.075L51.19,123
		c-0.13-0.477-0.217-0.962-0.259-1.458c-0.045-0.496-0.066-0.984-0.066-1.459c0-1.729,0.325-3.425,0.973-5.089
		c0.647-1.665,1.598-3.133,2.852-4.41c1.253-1.273,2.797-2.299,4.635-3.079c1.837-0.778,3.965-1.167,6.386-1.167
		c2.506,0,4.71,0.369,6.612,1.103c1.901,0.733,3.501,1.698,4.797,2.884c1.296,1.19,2.269,2.562,2.917,4.117
		c0.648,1.554,0.972,3.156,0.972,4.797c0,2.594-0.583,4.809-1.75,6.646c-1.167,1.835-2.723,3.446-4.667,4.83l-2.658,1.88
		c-1.125,0.82-1.989,1.739-2.594,2.753c-0.605,1.018-0.908,2.195-0.908,3.533v0.391H61.434L61.434,139.271z M59.944,148.671
		c0-1.427,0.496-2.647,1.491-3.662c0.993-1.017,2.204-1.522,3.631-1.522c1.426,0,2.646,0.506,3.663,1.522
		c1.015,1.015,1.523,2.235,1.523,3.662c0,1.425-0.508,2.638-1.523,3.629c-1.016,0.995-2.236,1.494-3.663,1.494
		c-1.427,0-2.638-0.499-3.631-1.494C60.44,151.309,59.944,150.096,59.944,148.671z"/>
</g>
<path fill="#5D4883" d="M179.312,103.017c0,0-21.422,19.834-28.959,54.744c-7.537,34.909-17.059,49.983-26.976,48.396
	s-9.917-19.04,5.157-44.032C143.609,137.132,163.049,107.777,179.312,103.017z"/>
<path fill="none" stroke="#5D4883" stroke-width="2.3802" stroke-miterlimit="10" d="M221.23,172.835c0,0-10.051-0.528-12.166,3.438
	s-11.107,5.817-16.924-3.174c-5.82-8.992-10.314-5.289-13.754-3.703c-3.438,1.586-10.313,1.059-12.164-0.265
	c-1.853-1.321-8.463,1.323-8.197,9.521c0.265,8.197,1.851,15.867,9.785,20.629c7.934,4.761,2.644,14.016-3.969,11.636
	c-6.611-2.381-8.99-15.867-10.05-19.835c-1.06-3.967-5.024,2.91-3.174,7.404c1.853,4.496,10.579,16.134,3.967,19.834
	c-6.61,3.703-12.958,0.794-10.843-6.346c2.115-7.141-7.141,2.379-11.637,4.23c-2.255,0.929-12.694,3.703-19.042-1.852
	c-6.347-5.554-11.637-19.57-3.173-37.024c8.463-17.455-3.967-10.313-6.611-6.347c-2.645,3.967-9.786,8.463-13.224,2.91
	c-3.438-5.555-15.074-2.646-15.074-2.646"/>
</svg>
