<?xml version="1.0" encoding="utf-8"?>
<!-- Generator: Adobe Illustrator 16.0.0, SVG Export Plug-In . SVG Version: 6.00 Build 0)  -->
<!DOCTYPE svg PUBLIC "-//W3C//DTD SVG 1.1//EN" "http://www.w3.org/Graphics/SVG/1.1/DTD/svg11.dtd">
<svg version="1.1" id="Layer_1" xmlns="http://www.w3.org/2000/svg" xmlns:xlink="http://www.w3.org/1999/xlink" x="0px" y="0px"
	 width="344.688px" height="266px" viewBox="0 43.33 344.688 266" enable-background="new 0 43.33 344.688 266"
	 xml:space="preserve">
<g>
	<path fill="none" stroke="#5D4883" stroke-width="7" stroke-miterlimit="10" d="M128.015,131.43
		c0-22.675,18.552-41.227,41.227-41.227h3.75c22.675,0,41.227,18.552,41.227,41.227v77.956c0,22.676-18.552,41.229-41.227,41.229
		h-3.75c-22.675,0-41.227-18.553-41.227-41.229V131.43z"/>
</g>
<path fill="none" stroke="#5D4883" stroke-width="3.7479" stroke-miterlimit="10" d="M214.218,174.531c0,0-37.479,16.49-86.577,0"/>
<circle fill="#5D4883" cx="146.567" cy="161.976" r="4.311"/>
<circle fill="#5D4883" cx="163.433" cy="161.976" r="4.31"/>
<circle fill="#5D4883" cx="180.298" cy="161.976" r="4.31"/>
<circle fill="#5D4883" cx="197.164" cy="161.976" r="4.31"/>
<circle fill="#5D4883" cx="146.567" cy="146.047" r="4.311"/>
<circle fill="#5D4883" cx="163.433" cy="146.047" r="4.31"/>
<circle fill="#5D4883" cx="180.298" cy="146.047" r="4.31"/>
<circle fill="#5D4883" cx="197.164" cy="146.047" r="4.31"/>
<circle fill="#5D4883" cx="146.567" cy="130.118" r="4.311"/>
<circle fill="#5D4883" cx="163.433" cy="130.118" r="4.31"/>
<circle fill="#5D4883" cx="180.298" cy="130.118" r="4.31"/>
<circle fill="#5D4883" cx="197.164" cy="130.118" r="4.31"/>
<circle fill="#5D4883" cx="163.433" cy="114.189" r="4.31"/>
<circle fill="#5D4883" cx="180.298" cy="114.189" r="4.31"/>
<path fill="#5D4883" d="M171.116,273.305c-35.387,0-64.176-27.522-64.176-61.353v-34.424c0-2.453,1.988-4.441,4.441-4.441
	c2.453,0,4.442,1.988,4.442,4.441v34.424c0,28.932,24.804,52.469,55.292,52.469s55.292-23.537,55.292-52.469v-34.424
	c0-2.453,1.989-4.441,4.442-4.441c2.452,0,4.44,1.988,4.44,4.441v34.424C235.292,245.783,206.503,273.305,171.116,273.305z"/>
<line fill="none" stroke="#5D4883" stroke-width="10.4942" stroke-miterlimit="10" x1="171.116" y1="269.354" x2="171.116" y2="295.339"/>
<line fill="none" stroke="#5D4883" stroke-width="10.4942" stroke-linecap="round" stroke-miterlimit="10" x1="199.102" y1="294.839" x2="143.132" y2="294.839"/>
<path fill="#5D4883" d="M278.075,124.026c0,14.117-3.974,27.479-11.039,39.363l8.231,4.865
	c8.185-13.289,12.808-28.319,12.808-44.229c0-29.425-15.793-55.854-40.729-73.791l-6.103,6.577
	C263.809,73.224,278.075,97.271,278.075,124.026z"/>
<path fill="#5D4883" d="M247.284,123.026c0,6.788-1.484,13.291-4.188,19.309l8.393,4.959c3.728-7.488,5.796-15.681,5.796-24.268
	c0-18.535-9.58-35.248-24.847-46.946l-6.121,6.597C239.218,92.835,247.284,107.161,247.284,123.026z"/>
<path fill="#5D4883" d="M100.552,145.908c-3.596-6.81-5.601-14.32-5.601-22.215c0-15.588,7.784-29.693,20.293-39.816l-6.121-6.597
	c-14.87,11.67-24.172,28.154-24.172,46.413c0,9.69,2.636,18.873,7.317,27.109L100.552,145.908z"/>
<path fill="#5D4883" d="M74.57,166.124c-8.126-12.555-12.743-26.887-12.743-42.098c0-26.479,13.976-50.305,36.137-66.703
	l-6.103-6.577c-24.532,17.926-40.034,44.132-40.034,73.28c0,17.003,5.282,33,14.546,46.941L74.57,166.124z"/>
</svg>
