<?xml version="1.0" encoding="utf-8"?>
<!-- Generator: Adobe Illustrator 16.0.0, SVG Export Plug-In . SVG Version: 6.00 Build 0)  -->
<!DOCTYPE svg PUBLIC "-//W3C//DTD SVG 1.1//EN" "http://www.w3.org/Graphics/SVG/1.1/DTD/svg11.dtd">
<svg version="1.1" id="Layer_1" xmlns="http://www.w3.org/2000/svg" xmlns:xlink="http://www.w3.org/1999/xlink" x="0px" y="0px"
	 width="344.688px" height="199px" viewBox="0 0 344.688 199" enable-background="new 0 0 344.688 199" xml:space="preserve">
<polyline fill="none" stroke="#5C4782" stroke-width="6" stroke-miterlimit="10" points="185.837,93.053 207.148,93.053 
	211.344,85.39 217.984,93.053 230.268,93.053 236.16,111.505 244.461,62.327 253.111,121.936 259.531,93.053 317.603,93.053 "/>
<g>
	<path fill="none" stroke="#5C4782" stroke-width="4" stroke-miterlimit="10" d="M59.936,38"/>
</g>
<g>
	<path fill="none" stroke="#5C4782" stroke-width="4" stroke-miterlimit="10" d="M176.078,38c0,0,2.367,0,5.262,0
		s5.262,6.75,5.262,15v112c0,8.25-6.75,15-15,15H74.936c-8.25,0-15-2.074-15-4.609c0-2.532,0-4.606,0-4.606"/>
</g>
<g>
	<path fill="none" stroke="#5C4782" stroke-width="4" stroke-miterlimit="10" d="M162.828,30c0,0,3.099,0,6.887,0
		s6.887,6.75,6.887,15v112c0,8.25-6.75,15-15,15H64.936c-8.25,0-15-2.806-15-6.234c0-3.428,0-6.231,0-6.231"/>
</g>
<path fill="none" stroke="#5C4782" stroke-width="4" stroke-miterlimit="10" d="M49.936,30"/>
<g>
	<path fill="none" stroke="#5C4782" stroke-width="7" stroke-miterlimit="10" d="M38.936,40c0-11,9-20,20-20h86.667c11,0,20,9,20,20
		v102c0,11-9,20-20,20H58.936c-11,0-20-9-20-20V40z"/>
</g>
<circle fill="#5C4782" cx="67.603" cy="103.54" r="3.5"/>
<circle fill="#5C4782" cx="67.603" cy="121.04" r="3.5"/>
<circle fill="#5C4782" cx="67.603" cy="138.54" r="3.5"/>
<line fill="none" stroke="#5C4782" stroke-width="3" stroke-miterlimit="10" x1="78.603" y1="103.54" x2="141.103" y2="103.54"/>
<line fill="none" stroke="#5C4782" stroke-width="3" stroke-miterlimit="10" x1="78.603" y1="121.04" x2="141.103" y2="121.04"/>
<line fill="none" stroke="#5C4782" stroke-width="3" stroke-miterlimit="10" x1="78.603" y1="138.54" x2="141.103" y2="138.54"/>
<path fill="#5C4782" d="M74.603,37.707c-10.493,0-19,8.507-19,19s8.507,19,19,19s19-8.507,19-19S85.096,37.707,74.603,37.707z
	 M70.686,61.707c-4.971,0-9-4.029-9-9c0-4.972,4.029-9,9-9s9,4.028,9,9C79.686,57.678,75.657,61.707,70.686,61.707z"/>
</svg>
