<?xml version="1.0" encoding="utf-8"?>
<!-- Generator: Adobe Illustrator 16.0.0, SVG Export Plug-In . SVG Version: 6.00 Build 0)  -->
<!DOCTYPE svg PUBLIC "-//W3C//DTD SVG 1.1//EN" "http://www.w3.org/Graphics/SVG/1.1/DTD/svg11.dtd">
<svg version="1.1" id="Layer_1" xmlns="http://www.w3.org/2000/svg" xmlns:xlink="http://www.w3.org/1999/xlink" x="0px" y="0px"
	 width="344.688px" height="302px" viewBox="0 21 344.688 302" enable-background="new 0 21 344.688 302" xml:space="preserve">
<g>
	<path fill="#5D4883" d="M210.516,269.354c0,0-0.375,2.313,0.666,3.834c1.041,1.521,3.5,2.25,7.334,2.166
		c7.666-0.166,5.666,0.834,10.332-1.5c4.668-2.332,3.5-1.334,3.834-7s-10.166-13.832-16.5-11.332S210.516,269.354,210.516,269.354z"
		/>
	<path fill="#5D4883" d="M125.931,166.104c0,0,3.083,10.25,5.416,14.084c2.334,3.832,6.001,8.166,5.668,9.666
		c-0.334,1.5-0.168,4-0.168,4s-0.666-0.5-1.832,0.5c-1.168,1-3.668,2-6.168,2.166c-2.5,0.168-5.166,3.668-7.166,1.668
		s0.25-12.25-1.834-19.75c-2.083-7.5-5.916-12.334-7.083-14.666c-1.167-2.334-0.249-6.334,0.417-7.167
		c0.666-0.833,7-2.417,8.416-2.25c1.417,0.167,3.167,1.418,3.25,4.583C124.931,162.104,125.931,166.104,125.931,166.104z"/>
	<path fill="#5D4883" d="M121.597,154.354c0,0,3.75-1.499,2.5-4.999s-4.916-3.335-5.75-9.001c-0.832-5.666,0.251-10.834-3.582-10.75
		c-3.834,0.084-9.167,2.668-8.25,5.334c0.916,2.666,4.999,4.334,4.332,9.75c-0.666,5.416-1.916,9.332,1.334,10.166
		S118.847,155.77,121.597,154.354z"/>
	<path fill="#5D4883" d="M112.015,131.021c0,0,4.5-2.417,4.5-4.167s-2.75-4.166-4.084-5.833s-2.333-4.333-1.416-5.25
		c0.916-0.917,1.666-2.583-0.668-6.5c-2.332-3.917-6.75-2.333-7.5-0.25s-1.166,6.833,0.25,8.083c1.418,1.25,3.751,1.918,3.168,5.084
		c-0.584,3.166-3,3.833-2.25,6.833S109.015,131.771,112.015,131.021z"/>
	<path fill="#5D4883" d="M139.347,197.438c0,0-5-5.25-8.5-0.5s-6,4.5-3.5,12.25s5.5,4.75,9.5,17s8.501,18,8.501,18s0.25,3.25,2,6
		s5,4.5,6.75,8.25s8.5,0.25,8.5-2.75s3.75-3.25,3.75-3.25s-0.316-5.613-6.75-9.75c-7-4.5-17.001-28.5-18.001-31.5
		S142.347,198.688,139.347,197.438z"/>
	<path fill="#5D4883" d="M164.348,250.188c0,0-0.75-1.25-0.5-10.25s-7-35.5-10.75-39.25s-5.75-9-5.5-13.25s0.5-10.75,4-12
		s13.25-2,15.25,5.25s-1.75,6.5-1.5,16.75s6.75,28,8.25,30.75c1.5,2.75,7.5,9.75,6.5,13.5s1.5,7.5,0.5,11.5s-7.75,2.5-12,0.5
		C164.348,251.688,164.348,250.188,164.348,250.188z"/>
	<path fill="#5D4883" d="M180.098,243.438c0,0,3-12.25,3.5-17.5s-1.5-14-3.75-26.25s-1.75-16.75-4-19.5s-1.25-5.25,0.25-10
		s0.5-8.75,4.75-9.75s10.75-3.25,14.75,1.75s5,7,2.25,14s-5.75,21-4,34s3.25,19.25,5,22.25s0.5,10.25,1.75,12.25s0.5,8.25-1.5,8.75
		s-3.25-1.75-9,3.25s-6.25-2.5-8.75-4.5S180.098,243.438,180.098,243.438z"/>
	<path fill="#5D4883" d="M199.348,250.188c0,0,2.5-8.75,5-11.5s3.5-5.5,5-13.5s0-43.5,0.5-49.25s4.25-13.75,13.25-11.75s9,6,7.5,14
		s-6.5,18.5-8.25,34.75s-4.25,16.5-2.75,26.25s2,11.25,0,13.25s-2,5.5-5,6s-1.25-2.5-5.5-1.5s-7.75,4.75-9.25,2
		S199.348,250.188,199.348,250.188z"/>
	<path fill="#5D4883" d="M227.598,261.188c0,0-9-2-6.25-7.25s4.5-11.25,9.25-13s12.75-19.5,12-21.5s-1.25-4.25,2.5-8
		s10-6,12.75-2.25s6.25,5.25,2.5,12.5s-4,8.5-6,11.5s-3.5,2.25-6.25,7s-8,13-7.5,16.75S232.348,263.688,227.598,261.188z"/>
	<path fill="#5D4883" d="M256.348,209.188c0,0-8.75,1.5-9.25-7.5c0,0-0.25-2.75,2.5-4.5s9.25-9,10.25-16.5s-0.75-12,2.75-14.5
		s3.5-2.5,3.5-2.5s7.75,0.25,9.25,3.75s1.5,5.75-1.5,10s-8.75,20.5-7.75,23.5s0.75,5.5,0.75,5.5l-2.75,5
		C264.098,211.438,257.598,207.438,256.348,209.188z"/>
	<path fill="#5D4883" d="M273.098,167.938c0,0,6,0.25,6.75-1.25s0.5-4,2-6s-2.75-2.25-2.75-4.75c0-2.5-0.25-6.25-0.25-6.25
		s3.5,1.5,5.25-3.5s1.75-9.75,0-10.5s-6.25-3.25-11.75,2s-2.5,6.75-1.5,8.75s0,4.75-3,6.75s-8.666,3.001-4.666,9.001
		C267.182,168.189,273.098,167.938,273.098,167.938z"/>
	<path fill="#5D4883" d="M227.016,166.354c0,0,3.5,0.334,4-0.332c0.5-0.668,4.498-3.834,4.332-6.168
		c-0.166-2.332-3.332-6.833-3.166-15.666s2.334-20.834,3.5-23.667s3.834-10.166-0.666-13.833s-9-3.001-11.834-1.167
		s-3.166,2.168-3,6.834s1.166,12.166-0.166,16.333c-1.334,4.167-1.334,14.833-2.334,17s-5.668,7.833-5.834,9.333s0,3.334,0.5,5.167
		c0.5,1.834,1.334,3.334,3.834,3.334S223.682,162.854,227.016,166.354z"/>
	<path fill="#5D4883" d="M233.182,107.188c0,0,4.666-1.334,5.166-4.667s-4.666-7.166-4.332-14.166c0.332-7,0.5-10.168,1.666-11.834
		s0.834-8.166-2-7.333s-3,1.833-5.834,0.5c-2.832-1.333-6-1.333-6.166,0.667s1.834,7.832,1.834,15.666s-3.834,11.668-4.5,13.834
		c-0.668,2.166,1.832,7.332,3.666,7.166S228.682,109.021,233.182,107.188z"/>
	<path fill="#5D4883" d="M234.014,53.355c0,0,2.502-0.334,2.668-1.834s-1.5-11.332-7-10.166s-8.168,9-6.834,11.333
		s3.166-1.667,2.666,2.833s-4.5,6.5-4.666,8.667s4.666,6.666,9.166,6.333s9.5-4,8-7.5s-3-0.333-4.166-4.833
		S234.014,53.355,234.014,53.355z"/>
	<path fill="#5D4883" d="M192.348,162.188c0,0,7.166-2.166,7-8.333c-0.166-6.167-4.832-8.668-6.166-21.834s0.5-22.334,1-23
		s1.666-12.667-3.5-13c-5.168-0.333-11-2.666-13.168,4.667c-2.166,7.333,2.168,5.833,1.668,13s-0.168,17.166,0.332,22.833
		s-0.5,6.168-2.5,10.334s-3.5,6.499-2.332,10.167C175.848,160.688,178.514,164.021,192.348,162.188z"/>
	<path fill="#5D4883" d="M190.348,98.021c0,0,4.834,0.001,5.834-6.166s-3.502-3.334-4.168-10.334s-1-9.834-1.666-12.5
		s2.166-13.834-1-14.5s-10.5-1.832-12.166,1.834c-1.668,3.666-0.168,6.666,0.666,8.333s0.5,16.167,0.5,18.5s-3.5,11.667,1.834,13.5
		C185.514,98.521,190.348,98.021,190.348,98.021z"/>
	<path fill="#5D4883" d="M186.682,55.188c0,0,4.332-1.334,4-5.167c-0.334-3.833-4.002-2.5-4.334-12.5c0,0,4.832,0.833,3-5
		c-1.834-5.833-6.5-12.834-10.666-5.5c-4.168,7.334-3.334,10.668-2,10.834c1.332,0.166,2.5-0.833,2.5,2s-4.668,7.832-3.668,9.666
		S171.514,54.688,186.682,55.188z"/>
	<path fill="#5D4883" d="M145.514,73.355c0.391-0.312,6.834-2.334,5-6.167c-1.833-3.833-5-1.666-5.5-10.833c0,0,2.668-0.5,1.5-5.167
		c-1.166-4.667-5.333-7-7.667-4c-2.332,3-3.666,4.667-3.332,7.5c0.332,2.833,0.166,2.333,1.666,2.5s1.5,0.999,1.5,3.333
		s-2.333,5.834-3.666,6.834c-1.334,1-1,4.666,2.5,5.666S143.015,75.355,145.514,73.355z"/>
	<path fill="#5D4883" d="M145.848,117.354c0,0,12.166-1.834,10.833-6s-3.167-3.667-5.667-11.5s-1.5-14.333-1-18.833
		s0.166-9.999-6.167-8.333c-6.332,1.666-9.166-1.668-8.832,6.166c0.332,7.834,1.166,6.834,2.332,13.167
		c1.168,6.333,0.501,16.666-0.332,18.333c-0.834,1.667,2,6.834,4.166,7.167S144.014,116.688,145.848,117.354z"/>
	<path fill="#5D4883" d="M142.515,116.355c0,0-4.168,1.499-3.668,6.166s1.667,4.333,3.5,7.833c1.834,3.5,2.834,13.334,2.334,15.834
		s0.667,9.666,0.833,11.333c0.167,1.666-1.333,8.834-1.999,11.166c-0.668,2.334,1.499,7,3.166,7.334s5.333-0.168,7.5-0.5
		c2.167-0.334,8.167-2.666,9.167-2.334c1,0.334,5-3,2.5-8s-4.5-1-6.5-15.167c-2-14.166-0.334-7.332-2.5-14.166
		c-2.167-6.834,3.5-17.668-2.5-19.334S142.515,116.355,142.515,116.355z"/>
	<path fill="#5D4883" d="M215.014,256.188c0,0,1.002,6.666-0.832,9.666s-3.334,3.168-4,5.668c-0.668,2.5-9.334,1.5-9.334,1.5
		l-0.166-17C200.682,256.021,213.182,252.688,215.014,256.188z"/>
	<path fill="#5D4883" d="M200.682,253.354c0,0,1.332,24.502-2.168,29.834c-3.5,5.334-7.666,7.166-11.666,6.334
		c0,0-6.834-3.5-6.166-9.834c0.666-6.334-1.334-21.834-1.334-21.834s4-3.332,6-3.166S198.516,249.854,200.682,253.354z"/>
	<path fill="#5D4883" d="M200.848,276.688c0,0,4.668-2.666,11.334-1.5c6.666,1.168,10.5,4,9.666,7.5
		c-0.832,3.5-4.666,4.502-7.166,7.168s-8.668,12.998-25.834,11.166c0,0-4.5-0.5-3.166-3.834c1.332-3.332,1.666-7.832,5-7.332
		C194.014,290.355,199.516,287.188,200.848,276.688z"/>
	<path fill="#5D4883" d="M186.182,288.354c0,0,0.832,10.168-3.168,11.5c-4,1.334-18.666,2.332-20,0.166c-1.333-2.166-2.666-7-2-7
		c0.667,0,7.5-8.666,8.834-8.5c1.333,0.168,4.666-4.998,11-3.666C187.182,282.188,186.182,288.354,186.182,288.354z"/>
	<path fill="#5D4883" d="M161.348,294.354c0,0-8,1.666-9.167-7.334c0,0-6.167-0.332-5.5-7.666s-0.501-14,5.167-14.334
		c0,0,1.5-5.5,4.666-7c3.167-1.5,7.5-8.5,11.334-7.332c3.833,1.166,12.166,5,13,8.166s-3.166,22.834-3.166,22.834l-6.5,3.166
		c0,0-1.999-4.332-4.667-4.5l-0.166,3.334l2.166,3C168.514,286.688,169.18,294.021,161.348,294.354z"/>
	<path fill="#5D4883" d="M222.848,274.938l-11.5,2.25c0,0-19.75,21.75-24.5,19.75s-20.75-10.25-20.75-10.25s-6.5-9.25-6.25-10
		s6-11.25,6-11.25l11.75-16.75l19.5,6.25L222.848,274.938z"/>
</g>
<circle fill="#FFFFFF" cx="110.931" cy="269.271" r="44.333"/>
<circle fill="none" stroke="#5D4883" stroke-width="6.1214" stroke-miterlimit="10" cx="110.931" cy="269.271" r="45.766"/>
<g>
	<path fill="#5D4883" d="M115.137,278.453h-7.933l-2.617-34.916h13.168L115.137,278.453z M104.75,290.312
		c0-1.801,0.626-3.34,1.882-4.623c1.253-1.279,2.752-1.92,4.498-1.92c1.799,0,3.34,0.641,4.621,1.92
		c1.28,1.283,1.921,2.822,1.921,4.623c0,1.797-0.641,3.326-1.921,4.578c-1.281,1.254-2.822,1.883-4.621,1.883
		c-1.746,0-3.245-0.629-4.498-1.883C105.376,293.639,104.75,292.109,104.75,290.312z"/>
</g>
</svg>
