<?xml version="1.0" encoding="utf-8"?>
<!-- Generator: Adobe Illustrator 16.0.0, SVG Export Plug-In . SVG Version: 6.00 Build 0)  -->
<!DOCTYPE svg PUBLIC "-//W3C//DTD SVG 1.1//EN" "http://www.w3.org/Graphics/SVG/1.1/DTD/svg11.dtd">
<svg version="1.1" id="Layer_1" xmlns="http://www.w3.org/2000/svg" xmlns:xlink="http://www.w3.org/1999/xlink" x="0px" y="0px"
	 width="109.82px" height="106.333px" viewBox="0 0 109.82 106.333" enable-background="new 0 0 109.82 106.333"
	 xml:space="preserve">
<path opacity="0.5" fill="#5B3D96" d="M33.081,65.45c0.285,2.854,0.499,3.711,2.353,4.354c1,0.214,2.429,0.427,4.496,0.783
	c0.355,0.285,0.285,2.57-0.143,2.854c-2.497,0-6.994-0.216-10.846-0.216c-3.637,0-8.272,0.216-9.413,0.216
	c-0.36-0.358-0.36-2.496,0-2.854c1.567-0.213,3.422-0.498,4.349-0.715c1.784-0.57,2.141-1.354,2.212-4.062
	c0.144-2.643,0.144-9.062,0.144-15.698c0-5.848,0.074-10.557-0.071-14.837c-0.071-1.572-0.215-2.425-2.139-2.924
	c-0.93-0.216-2.354-0.5-4.141-0.715c-0.427-0.427-0.427-2.354,0-2.781c1.714,0,4.425,0.213,9.847,0.213
	c4.495,0,7.348-0.213,9.56-0.213c0.285,0.499,0.285,2.212,0,2.781c-1.285,0.215-2.854,0.499-3.924,0.786
	c-1.711,0.5-2.14,1.212-2.282,3.28c-0.072,3.21-0.072,7.493-0.072,14.34C33.009,55.891,33.009,60.599,33.081,65.45z M44.71,28.854
	c2.066,0,4.778,0.213,9.203,0.213c5.276,0,7.276-0.141,9.272-0.213c0.287,0.285,0.356,2.496-0.07,2.781
	c-4.209,0.715-6.278,1.214-9.133,4.351c-4.422,4.782-9.774,10.062-12.771,13.271c-0.07,0.073-0.07,0.213,0,0.355
	c3.995,5.28,12.558,14.625,17.834,18.692c1.143,0.927,2.213,1.499,3.211,1.713c1.931,0.427,3.21,0.498,4.495,0.569
	c0.285,0.5,0.144,2.57-0.354,2.854c-2.283,0.284-10.346,0.071-12.415-0.715c-0.928-0.286-1.854-0.929-2.423-1.429
	c-3.354-2.994-12.131-12.982-16.055-17.902c-0.072-0.072-0.928-0.858-1.641-1.358c-0.146-0.354,0-1.284,0.214-1.494
	c3.28-1.359,11.271-10.062,14.768-14.414c0.715-0.997,0.998-1.713,0.998-2.282c0-0.715-0.496-1.07-1.284-1.354
	c-0.783-0.286-2.354-0.643-3.851-0.857C44.353,31.208,44.353,29.281,44.71,28.854z"/>
<path opacity="0.5" fill="#5B3D96" d="M62.117,37.086c2.426,0,4.851,0.215,9.987,0.215c5.565,0,8.133-0.143,9.704-0.215
	c0.429,0.43,0.355,2.283,0,2.781c-1.999,0.214-3.212,0.572-4.21,0.716c-1.712,0.427-1.929,1.428-2,2.711
	c-0.143,2.78-0.211,7.348-0.211,14.694c0,10.916,0,14.626,0.211,17.407c0.071,1.143,1.213,1.854,1.5,1.997
	c2.141,0.569,8.274,0.499,11.63,0.499c1.566,0,2.923-0.428,4.494-2.926c1.354-2.066,2.995-5.348,4.208-8.129
	c0.712-0.072,2.495,0.641,2.924,1.209c-0.499,2.926-3.942,8.471-5.369,10.826c-0.213,0.643,0.305,2.941-1.836,2.941
	c-5.062,0-17.19-0.354-20.977-0.354c-3.707,0-10.271,0.215-11.553,0.215c-0.43-0.286-0.499-2.569-0.073-2.854
	c2.64-0.286,3.995-0.356,5.563-0.782c1.713-0.502,1.999-1.5,2.14-2.643c0.146-1.997,0.216-12.913,0.216-17.049
	c0-7.49,0.071-11.914-0.07-13.913c-0.072-2.639-0.428-3.493-2.212-3.851c-0.928-0.214-2.639-0.502-4.28-0.716
	C61.546,39.369,61.689,37.444,62.117,37.086z"/>
<g>
	<path fill="#5B3D96" d="M31.091,62.45c0.279,2.801,0.489,3.641,2.31,4.27c0.98,0.211,2.381,0.421,4.412,0.771
		c0.348,0.279,0.278,2.52-0.143,2.801c-2.448,0-6.859-0.211-10.641-0.211c-3.568,0-8.116,0.211-9.237,0.211
		c-0.353-0.353-0.353-2.449,0-2.801c1.539-0.209,3.359-0.49,4.27-0.701c1.75-0.561,2.099-1.328,2.17-3.988
		c0.141-2.592,0.141-8.889,0.141-15.401c0-5.737,0.07-10.358-0.071-14.558c-0.068-1.542-0.211-2.38-2.099-2.869
		c-0.91-0.211-2.31-0.491-4.061-0.701c-0.418-0.419-0.418-2.311,0-2.729c1.68,0,4.339,0.209,9.661,0.209
		c4.408,0,7.21-0.209,9.379-0.209c0.279,0.489,0.279,2.169,0,2.729c-1.263,0.21-2.801,0.49-3.851,0.771
		c-1.68,0.489-2.101,1.188-2.24,3.22c-0.069,3.148-0.069,7.35-0.069,14.068C31.021,53.068,31.021,57.689,31.091,62.45z
		 M42.501,26.542c2.028,0,4.689,0.209,9.031,0.209c5.176,0,7.138-0.14,9.095-0.209c0.283,0.28,0.354,2.449-0.066,2.729
		c-4.13,0.701-6.16,1.19-8.96,4.269c-4.341,4.691-9.593,9.873-12.53,13.021c-0.069,0.071-0.069,0.209,0,0.349
		c3.92,5.181,12.32,14.35,17.499,18.34c1.12,0.91,2.173,1.471,3.151,1.681c1.893,0.419,3.147,0.489,4.408,0.562
		c0.28,0.487,0.143,2.52-0.348,2.799C61.54,70.569,53.63,70.36,51.6,69.588c-0.911-0.279-1.818-0.909-2.38-1.398
		c-3.288-2.939-11.9-12.738-15.749-17.568c-0.071-0.071-0.912-0.842-1.61-1.331c-0.141-0.348,0-1.262,0.209-1.47
		c3.22-1.331,11.06-9.871,14.489-14.14c0.7-0.98,0.98-1.681,0.98-2.241c0-0.701-0.489-1.049-1.26-1.329
		c-0.771-0.281-2.312-0.631-3.779-0.841C42.15,28.852,42.15,26.96,42.501,26.542z"/>
	<path fill="#5B3D96" d="M59.58,34.619c2.381,0,4.762,0.21,9.801,0.21c5.461,0,7.979-0.14,9.521-0.21
		c0.421,0.421,0.352,2.24,0,2.729c-1.96,0.209-3.15,0.561-4.129,0.702c-1.682,0.419-1.894,1.398-1.962,2.658
		c-0.141,2.729-0.208,7.209-0.208,14.419c0,10.709,0,14.351,0.208,17.08c0.068,1.119,1.189,1.818,1.473,1.959
		c2.1,0.561,8.118,0.49,11.409,0.49c1.539,0,2.868-0.42,4.409-2.871c1.329-2.027,2.938-5.248,4.131-7.978
		c0.698-0.069,2.448,0.629,2.867,1.188c-0.489,2.869-2.588,10.289-3.989,12.601c-0.209,0.631-0.979,0.909-3.079,0.909
		c-4.969,0-16.868-0.35-20.581-0.35c-3.639,0-10.078,0.209-11.337,0.209c-0.421-0.279-0.489-2.521-0.07-2.8
		c2.588-0.28,3.919-0.351,5.458-0.771c1.682-0.489,1.961-1.471,2.1-2.59c0.143-1.961,0.212-12.672,0.212-16.729
		c0-7.349,0.07-11.689-0.069-13.649c-0.071-2.589-0.42-3.428-2.169-3.778c-0.909-0.21-2.59-0.493-4.201-0.702
		C59.021,36.859,59.162,34.971,59.58,34.619z"/>
	<path fill="#5B3D96" d="M54.908,102.249c-27.062,0-49.078-22.02-49.078-49.083c0-27.062,22.017-49.079,49.078-49.079
		c27.063,0,49.082,22.017,49.082,49.079C103.99,80.229,81.972,102.249,54.908,102.249z M54.908,7.974
		c-24.92,0-45.192,20.271-45.192,45.191c0,24.919,20.272,45.193,45.192,45.193c24.921,0,45.196-20.271,45.196-45.193
		C100.104,28.244,79.829,7.974,54.908,7.974z"/>
</g>
</svg>
